{
.appVersion = "3134";
.formatVersion = 3;
axes = (
{
name = Weight;
tag = wght;
}
);
classes = (
{
automatic = 1;

glyphs = (
{
color = 4;
glyphname = A;
kernLeft = A;
kernRight = A;
layers = (
{
anchors = (
{
name = bottom;
pos = (302,0);
},
{
name = ogonek;
pos = (591,0);
},
{
name = top;
pos = (292,641);
}
);
layerId = "E1BF09ED-4302-4AD3-9939-8FDA35DE0FE8";
shapes = (
{
closed = 1;
nodes = (
(127,0,ls),
(141,0,o),
(144,4,o),
(144,18,c),
(73,32,l),
(73,15,l),
(289,604,l),
(285,602,l),
(512,23,l),
(523,34,l),
(459,20,ls),
(448,18,o),
(443,12,o),
(443,0,c),
(591,0,ls),
(605,0,o),
(608,4,o),
(608,18,c),
(527,34,l),
(550,18,l),
(300,653,l),
(299,654,o),
(296,655,o),
(294,655,cs),
(288,655,o),
(286,653,o),
(283,645,cs),
(52,16,l),
(66,30,l),
(20,20,ls),
(9,18,o),
(4,12,o),
(4,0,c)
);
},
{
closed = 1;
nodes = (
(441,230,l),
(431,250,l),
(153,250,l),
(145,230,l)
);
}
);
width = 612;
},
{
anchors = (
{
name = bottom;
pos = (346,0);
},
{
name = ogonek;
pos = (688,0);
},
{
name = top;
pos = (346,641);
}
);
guides = (
{
angle = 110.927;
pos = (464,56);
}
);
layerId = "7B53E429-1BF0-49C5-9F57-63EEBF39C6CC";
shapes = (
{
closed = 1;
nodes = (
(253,0,l),
(271,29,o),
(276,50,o),
(276,76,c),
(150,106,l),
(162,57,l),
(337,539,l),
(279,539,l),
(464,56,l),
(470,96,l),
(396,69,ls),
(386,65,o),
(380,39,o),
(380,0,c),
(688,0,l),
(706,29,o),
(711,50,o),
(711,76,c),
(609,100,l),
(656,57,l),
(430,648,l),
(408,653,o),
(387,656,o),
(363,656,cs),
(335,656,o),
(269,646,o),
(259,618,cs),
(54,52,l),
(102,103,l),
(18,69,ls),
(8,65,o),
(2,39,o),
(2,0,c)
);
},
{
closed = 1;
nodes = (
(443,185,l),
(424,275,l),
(193,275,l),
(176,185,l)
);
}
);
width = 713;
},
{
anchors = (
{
name = bottom;
pos = (316,0);
},
{
name = ogonek;
pos = (623,0);
},
{
name = top;
pos = (309,641);
}
);
layerId = "649F6AC0-C354-445A-B217-A871C51F37B2";
shapes = (
{
closed = 1;
nodes = (
(167,0,ls),
(184,10,o),
(187,19,o),
(187,37,c),
(98,56,l),
(101,28,l),
(304,583,l),
(283,581,l),
(497,34,l),
(506,54,l),
(438,36,ls),
(428,33,o),
(422,21,o),
(422,0,c),
(623,0,ls),
(638,10,o),
(642,19,o),
(642,37,c),
(553,56,l),
(585,31,l),
(343,652,l),
(334,654,o),
(325,655,o),
(317,655,cs),
(303,655,o),
(281,651,o),
(275,636,cs),
(53,28,l),
(78,54,l),
(19,36,ls),
(9,33,o),
(3,21,o),
(3,0,c)
);
},
{
closed = 1;
nodes = (
(442,216,l),
(429,258,l),
(166,258,l),
(155,216,l)
);
}
);
width = 644.75676;
}
);
metricLeft = "=H*.05";
metricRight = "=H*.05";
unicode = 65;
},
{
color = 4;
glyphname = AE;
kernRight = E;
layers = (
{
anchors = (
{
name = bottom;
pos = (586,0);
},
{
name = top;
pos = (586,641);
}
);
layerId = "E1BF09ED-4302-4AD3-9939-8FDA35DE0FE8";
shapes = (
{
closed = 1;
nodes = (
(152,0,ls),
(166,0,o),
(169,4,o),
(169,18,c),
(78,32,l),
(75,18,l),
(284,302,l),
(272,296,l),
(497,296,l),
(492,302,l),
(492,23,l),
(505,34,l),
(441,20,ls),
(430,18,o),
(425,12,o),
(425,0,c),
(851,0,l),
(851,108,ls),
(851,115,o),
(848,121,o),
(833,121,c),
(808,2,l),
(821,11,l),
(515,34,l),
(525,23,l),
(525,305,l),
(515,298,l),
(719,298,l),
(707,305,l),
(723,245,l),
(736,245,o),
(739,246,o),
(743,261,c),
(743,353,l),
(739,368,o),
(737,369,o),
(723,369,c),
(708,311,l),
(719,316,l),
(515,316,l),
(525,310,l),
(525,625,l),
(514,612,l),
(790,630,l),
(776,639,l),
(800,558,ls),
(804,546,o),
(811,542,o),
(820,542,c),
(820,633,ls),
(820,638,o),
(817,641,o),
(812,641,cs),
(429,641,ls),
(415,641,o),
(412,637,o),
(412,623,c),
(510,608,l),
(501,630,l),
(49,17,l),
(66,33,l),
(20,20,ls),
(9,17,o),
(4,12,o),
(4,0,c)
);
},
{
closed = 1;
nodes = (
(494,588,l),
(492,609,l),
(492,308,l),
(497,313,l),
(279,313,l),
(285,305,l)
);
}
);
width = 919;
},
{
anchors = (
{
name = bottom;
pos = (566,0);
},
{
name = top;
pos = (566,641);
}
);
layerId = "7B53E429-1BF0-49C5-9F57-63EEBF39C6CC";
shapes = (
{
closed = 1;
nodes = (
(244,0,l),
(262,29,o),
(267,50,o),
(267,76,c),
(139,109,l),
(172,58,l),
(289,238,l),
(244,206,l),
(454,206,l),
(438,235,l),
(438,70,l),
(459,96,l),
(385,69,ls),
(375,65,o),
(369,39,o),
(369,0,c),
(911,0,l),
(911,183,l),
(884,200,o),
(861,205,o),
(835,205,c),
(801,72,l),
(813,94,l),
(614,111,l),
(624,100,l),
(624,276,l),
(614,266,l),
(724,266,l),
(710,275,l),
(733,202,l),
(759,202,o),
(792,207,o),
(819,224,c),
(819,404,l),
(792,421,o),
(759,426,o),
(733,426,c),
(711,356,l),
(724,366,l),
(614,366,l),
(624,356,l),
(624,544,l),
(613,531,l),
(796,549,l),
(782,558,l),
(811,478,ls),
(815,466,o),
(831,458,o),
(881,458,c),
(881,617,ls),
(881,632,o),
(872,641,o),
(857,641,cs),
(331,641,l),
(314,614,o),
(309,591,o),
(309,565,c),
(460,541,l),
(395,591,l),
(28,32,l),
(83,103,l),
(-1,69,ls),
(-11,65,o),
(-17,39,o),
(-17,0,c)
);
},
{
closed = 1;
nodes = (
(456,509,l),
(438,509,l),
(438,278,l),
(453,306,l),
(301,306,l),
(304,278,l)
);
}
);
width = 963;
},
{
anchors = (
{
name = bottom;
pos = (579,0);
},
{
name = top;
pos = (579,641);
}
);
layerId = "649F6AC0-C354-445A-B217-A871C51F37B2";
shapes = (
{
closed = 1;
nodes = (
(182,0,l),
(198,10,o),
(201,19,o),
(201,37,c),
(98,57,l),
(107,31,l),
(285,281,l),
(263,267,l),
(483,267,l),
(475,280,l),
(475,38,l),
(490,54,l),
(423,36,ls),
(413,33,o),
(407,21,o),
(407,0,c),
(871,0,l),
(871,132,l),
(862,142,o),
(852,148,o),
(834,148,c),
(806,25,l),
(819,38,l),
(547,59,l),
(557,48,l),
(557,295,l),
(547,287,l),
(720,287,l),
(708,295,l),
(726,231,l),
(744,231,o),
(756,233,o),
(768,249,c),
(768,369,l),
(756,385,o),
(745,388,o),
(726,388,c),
(709,325,l),
(720,332,l),
(547,332,l),
(557,325,l),
(557,599,l),
(546,586,l),
(792,604,l),
(778,613,l),
(803,532,ls),
(807,520,o),
(818,515,o),
(840,515,c),
(840,625,ls),
(840,635,o),
(834,641,o),
(824,641,cs),
(397,641,l),
(382,632,o),
(378,622,o),
(378,604,c),
(494,586,l),
(466,617,l),
(42,21,l),
(71,56,l),
(13,36,ls),
(2,32,o),
(-3,21,o),
(-3,0,c)
);
},
{
closed = 1;
nodes = (
(482,563,l),
(475,576,l),
(475,298,l),
(483,311,l),
(287,311,l),
(292,296,l)
);
}
);
width = 933;
}
);
metricRight = E;
unicode = 198;
},
{
color = 4;
glyphname = B;
kernLeft = H;
kernRight = B;
layers = (
{
anchors = (
{
name = bottom;
pos = (300,0);
},
{
name = top;
pos = (300,641);
}
);
layerId = "E1BF09ED-4302-4AD3-9939-8FDA35DE0FE8";
shapes = (
{
closed = 1;
nodes = (
(317,0,ls),
(443,0,o),
(528,75,o),
(528,186,cs),
(528,275,o),
(448,350,o),
(353,350,c),
(341,346,l),
(429,346,o),
(501,417,o),
(501,503,cs),
(501,587,o),
(431,641,o),
(320,641,cs),
(97,641,ls),
(84,641,o),
(81,637,o),
(81,623,c),
(162,607,l),
(148,618,l),
(148,23,l),
(161,34,l),
(97,20,ls),
(85,17,o),
(81,12,o),
(81,0,c)
);
},
{
closed = 1;
nodes = (
(265,18,o),
(205,27,o),
(171,38,c),
(181,28,l),
(181,347,l),
(171,339,l),
(315,339,ls),
(426,339,o),
(487,282,o),
(487,177,cs),
(487,73,o),
(425,18,o),
(310,18,cs)
);
},
{
closed = 1;
nodes = (
(181,614,l),
(171,605,l),
(214,617,o),
(259,623,o),
(297,623,cs),
(404,623,o),
(465,573,o),
(465,487,cs),
(465,406,o),
(404,357,o),
(303,357,cs),
(251,357,o),
(173,358,o),
(171,359,c),
(181,349,l)
);
}
);
width = 599;
},
{
anchors = (
{
name = bottom;
pos = (321,0);
},
{
name = top;
pos = (321,641);
}
);
layerId = "7B53E429-1BF0-49C5-9F57-63EEBF39C6CC";
shapes = (
{
closed = 1;
nodes = (
(383,0,ls),
(521,0,o),
(607,74,o),
(607,193,cs),
(607,282,o),
(535,351,o),
(423,367,c),
(435,354,l),
(524,373,o),
(580,431,o),
(580,503,cs),
(580,590,o),
(504,641,o),
(375,641,cs),
(59,641,l),
(44,617,o),
(38,594,o),
(38,565,c),
(129,541,l),
(107,566,l),
(107,70,l),
(128,96,l),
(54,69,ls),
(44,65,o),
(38,39,o),
(38,0,c)
);
},
{
closed = 1;
nodes = (
(328,95,o),
(303,102,o),
(283,114,c),
(293,100,l),
(293,310,l),
(283,300,l),
(312,300,ls),
(385,300,o),
(421,264,o),
(421,189,cs),
(421,128,o),
(396,95,o),
(351,95,cs)
);
},
{
closed = 1;
nodes = (
(293,545,l),
(283,533,l),
(297,542,o),
(313,546,o),
(332,546,cs),
(377,546,o),
(397,524,o),
(397,474,cs),
(397,421,o),
(374,396,o),
(326,396,cs),
(307,396,o),
(293,401,o),
(273,413,c),
(293,387,l)
);
}
);
width = 653;
},
{
anchors = (
{
name = bottom;
pos = (307,0);
},
{
name = top;
pos = (307,641);
}
);
layerId = "649F6AC0-C354-445A-B217-A871C51F37B2";
shapes = (
{
closed = 1;
nodes = (
(339,0,ls),
(468,0,o),
(553,75,o),
(553,188,cs),
(553,277,o),
(476,350,o),
(376,355,c),
(372,348,l),
(460,355,o),
(526,421,o),
(526,503,cs),
(526,588,o),
(455,641,o),
(338,641,cs),
(85,641,ls),
(71,633,o),
(67,623,o),
(67,604,c),
(151,585,l),
(135,602,l),
(135,38,l),
(150,54,l),
(83,36,ls),
(72,32,o),
(67,21,o),
(67,0,c)
);
},
{
closed = 1;
nodes = (
(286,43,o),
(237,51,o),
(207,63,c),
(217,51,l),
(217,335,l),
(207,326,l),
(314,326,ls),
(413,326,o),
(465,277,o),
(465,181,cs),
(465,91,o),
(415,43,o),
(323,43,cs)
);
},
{
closed = 1;
nodes = (
(217,591,l),
(207,582,l),
(241,593,o),
(276,598,o),
(308,598,cs),
(395,598,o),
(443,557,o),
(443,483,cs),
(443,410,o),
(394,370,o),
(311,370,cs),
(270,370,o),
(212,372,o),
(204,376,c),
(217,361,l)
);
}
);
width = 616.51351;
}
);
metricLeft = H;
unicode = 66;
},
{
color = 4;
glyphname = C;
kernLeft = O;
kernRight = C;
layers = (
{
anchors = (
{
name = bottom;
pos = (357,0);
},
{
name = top;
pos = (357,641);
}
);
layerId = "E1BF09ED-4302-4AD3-9939-8FDA35DE0FE8";
shapes = (
{
closed = 1;
nodes = (
(424,-12,o),
(504,15,o),
(561,58,cs),
(565,61,o),
(566,63,o),
(566,68,cs),
(562,173,ls),
(561,184,o),
(551,189,o),
(533,189,c),
(524,65,l),
(536,93,l),
(508,46,o),
(437,14,o),
(363,14,cs),
(214,14,o),
(110,142,o),
(110,325,cs),
(110,507,o),
(213,626,o),
(370,626,cs),
(434,626,o),
(500,609,o),
(530,584,c),
(522,599,l),
(528,503,ls),
(529,494,o),
(538,487,o),
(549,487,c),
(566,600,ls),
(567,604,o),
(565,608,o),
(561,610,cs),
(510,640,o),
(452,655,o),
(392,655,cs),
(210,655,o),
(71,500,o),
(71,298,cs),
(71,118,o),
(187,-12,o),
(349,-12,cs)
);
}
);
width = 636;
},
{
anchors = (
{
name = bottom;
pos = (378,0);
},
{
name = top;
pos = (378,641);
}
);
layerId = "7B53E429-1BF0-49C5-9F57-63EEBF39C6CC";
shapes = (
{
closed = 1;
nodes = (
(463,-12,o),
(559,18,o),
(608,65,cs),
(614,71,o),
(616,79,o),
(615,92,cs),
(605,244,l),
(595,256,o),
(579,259,o),
(526,259,c),
(507,94,l),
(540,157,l),
(507,113,o),
(450,87,o),
(389,87,cs),
(285,87,o),
(221,180,o),
(221,332,cs),
(221,476,o),
(281,556,o),
(388,556,cs),
(447,556,o),
(503,536,o),
(542,500,c),
(509,545,l),
(523,444,ls),
(525,431,o),
(552,423,o),
(596,423,c),
(614,585,ls),
(615,598,o),
(611,609,o),
(599,615,cs),
(551,641,o),
(484,655,o),
(413,655,cs),
(189,655,o),
(25,502,o),
(25,293,cs),
(25,108,o),
(158,-12,o),
(363,-12,cs)
);
}
);
width = 678;
},
{
anchors = (
{
name = bottom;
pos = (364,0);
},
{
name = top;
pos = (364,641);
}
);
layerId = "649F6AC0-C354-445A-B217-A871C51F37B2";
shapes = (
{
closed = 1;
nodes = (
(436,-12,o),
(520,15,o),
(574,59,cs),
(580,64,o),
(581,69,o),
(581,78,cs),
(576,196,l),
(572,207,o),
(560,212,o),
(531,212,c),
(519,75,l),
(537,114,l),
(508,68,o),
(441,38,o),
(372,38,cs),
(237,38,o),
(146,154,o),
(146,327,cs),
(146,497,o),
(235,603,o),
(376,603,cs),
(438,603,o),
(501,585,o),
(534,557,c),
(518,582,l),
(527,483,ls),
(528,473,o),
(542,466,o),
(564,466,c),
(581,593,ls),
(582,602,o),
(579,608,o),
(572,613,cs),
(522,640,o),
(462,655,o),
(399,655,cs),
(203,655,o),
(56,501,o),
(56,297,cs),
(56,115,o),
(177,-12,o),
(353,-12,cs)
);
}
);
width = 650;
}
);
metricLeft = O;
unicode = 67;
},
{
color = 4;
glyphname = D;
kernLeft = H;
kernRight = O;
layers = (
{
anchors = (
{
name = bottom;
pos = (336,0);
},
{
name = center;
pos = (181,321);
},
{
name = top;
pos = (356,641);
}
);
layerId = "E1BF09ED-4302-4AD3-9939-8FDA35DE0FE8";
shapes = (
{
closed = 1;
nodes = (
(329,0,ls),
(526,0,o),
(640,183,o),
(640,345,cs),
(640,499,o),
(542,641,o),
(352,641,cs),
(97,641,ls),
(84,641,o),
(81,637,o),
(81,623,c),
(159,607,l),
(148,619,l),
(148,23,l),
(161,34,l),
(97,20,ls),
(86,18,o),
(81,12,o),
(81,0,c)
);
},
{
closed = 1;
nodes = (
(276,20,o),
(214,25,o),
(171,36,c),
(181,22,l),
(181,619,l),
(171,607,l),
(208,615,o),
(259,623,o),
(328,623,cs),
(505,623,o),
(601,479,o),
(601,314,cs),
(601,167,o),
(505,20,o),
(334,20,cs)
);
}
);
width = 711;
},
{
anchors = (
{
name = bottom;
pos = (370,0);
},
{
name = center;
pos = (218,321);
},
{
name = top;
pos = (380,641);
}
);
layerId = "7B53E429-1BF0-49C5-9F57-63EEBF39C6CC";
shapes = (
{
closed = 1;
nodes = (
(393,0,ls),
(589,0,o),
(704,175,o),
(704,345,cs),
(704,499,o),
(611,641,o),
(408,641,cs),
(56,641,l),
(42,614,o),
(38,591,o),
(38,565,c),
(129,541,l),
(107,566,l),
(107,70,l),
(128,96,l),
(54,69,ls),
(44,65,o),
(38,39,o),
(38,0,c)
);
},
{
closed = 1;
nodes = (
(338,96,o),
(307,101,o),
(283,116,c),
(293,102,l),
(293,544,l),
(271,522,l),
(294,536,o),
(334,545,o),
(371,545,cs),
(462,545,o),
(508,444,o),
(508,328,cs),
(508,198,o),
(467,96,o),
(369,96,cs)
);
}
);
width = 729;
},
{
anchors = (
{
name = bottom;
pos = (347,0);
},
{
name = center;
pos = (193,321);
},
{
name = top;
pos = (364,641);
}
);
layerId = "649F6AC0-C354-445A-B217-A871C51F37B2";
shapes = (
{
closed = 1;
nodes = (
(350,0,ls),
(547,0,o),
(661,181,o),
(661,345,cs),
(661,499,o),
(565,641,o),
(371,641,cs),
(84,641,ls),
(71,632,o),
(67,622,o),
(67,604,c),
(149,585,l),
(135,602,l),
(135,38,l),
(150,54,l),
(83,36,ls),
(73,33,o),
(67,21,o),
(67,0,c)
);
},
{
closed = 1;
nodes = (
(296,45,o),
(245,50,o),
(207,62,c),
(217,48,l),
(217,595,l),
(204,580,l),
(236,590,o),
(283,598,o),
(342,598,cs),
(491,598,o),
(571,468,o),
(571,318,cs),
(571,177,o),
(493,45,o),
(345,45,cs)
);
}
);
width = 716;
}
);
metricLeft = H;
metricRight = O;
unicode = 68;
},
{
color = 4;
glyphname = E;
kernLeft = H;
kernRight = E;
layers = (
{
anchors = (
{
name = "#entry";
pos = (81,0);
},
{
name = bottom;
pos = (311,0);
},
{
name = ogonek;
pos = (517,0);
},
{
name = top;
pos = (311,641);
},
{
name = topleft;
pos = (98,641);
}
);
layerId = "E1BF09ED-4302-4AD3-9939-8FDA35DE0FE8";
shapes = (
{
closed = 1;
nodes = (
(517,0,l),
(517,108,ls),
(517,115,o),
(514,121,o),
(499,121,c),
(474,7,l),
(487,16,l),
(171,34,l),
(181,23,l),
(181,323,l),
(171,314,l),
(421,314,l),
(409,323,l),
(420,253,l),
(429,253,o),
(436,254,o),
(440,264,c),
(440,386,l),
(436,396,o),
(430,397,o),
(420,397,c),
(410,330,l),
(421,336,l),
(171,336,l),
(181,329,l),
(181,625,l),
(170,612,l),
(456,625,l),
(442,634,l),
(466,558,ls),
(470,546,o),
(477,542,o),
(486,542,c),
(486,633,ls),
(486,638,o),
(483,641,o),
(478,641,cs),
(98,641,ls),
(84,641,o),
(81,637,o),
(81,623,c),
(159,607,l),
(148,619,l),
(148,23,l),
(161,34,l),
(97,20,ls),
(86,18,o),
(81,12,o),
(81,0,c)
);
}
);
width = 585;
},
{
anchors = (
{
name = "#entry";
pos = (38,0);
},
{
name = bottom;
pos = (315,0);
},
{
name = ogonek;
pos = (580,0);
},
{
name = top;
pos = (315,641);
},
{
name = topleft;
pos = (60,641);
}
);
layerId = "7B53E429-1BF0-49C5-9F57-63EEBF39C6CC";
shapes = (
{
closed = 1;
nodes = (
(580,0,l),
(580,183,l),
(553,200,o),
(530,205,o),
(504,205,c),
(470,72,l),
(482,94,l),
(283,111,l),
(293,100,l),
(293,291,l),
(283,281,l),
(403,281,l),
(389,290,l),
(412,212,l),
(435,212,o),
(464,217,o),
(488,234,c),
(488,414,l),
(464,431,o),
(435,436,o),
(412,436,c),
(390,361,l),
(403,371,l),
(283,371,l),
(293,361,l),
(293,544,l),
(282,531,l),
(465,549,l),
(451,558,l),
(480,478,ls),
(484,466,o),
(500,458,o),
(550,458,c),
(550,617,ls),
(550,632,o),
(541,641,o),
(526,641,cs),
(60,641,l),
(43,614,o),
(38,591,o),
(38,565,c),
(129,541,l),
(107,566,l),
(107,70,l),
(128,96,l),
(54,69,ls),
(44,65,o),
(38,39,o),
(38,0,c)
);
}
);
width = 632;
},
{
anchors = (
{
name = "#entry";
pos = (67,0);
},
{
name = bottom;
pos = (312,0);
},
{
name = ogonek;
pos = (538,0);
},
{
name = top;
pos = (312,641);
},
{
name = topleft;
pos = (86,641);
}
);
layerId = "649F6AC0-C354-445A-B217-A871C51F37B2";
shapes = (
{
closed = 1;
nodes = (
(538,0,l),
(538,132,l),
(529,142,o),
(519,148,o),
(500,148,c),
(473,28,l),
(486,41,l),
(207,59,l),
(217,48,l),
(217,312,l),
(207,303,l),
(416,303,l),
(402,312,l),
(418,240,l),
(431,240,o),
(445,242,o),
(455,254,c),
(455,395,l),
(445,407,o),
(431,410,o),
(418,410,c),
(403,340,l),
(416,347,l),
(207,347,l),
(217,340,l),
(217,599,l),
(206,586,l),
(459,600,l),
(445,609,l),
(470,532,ls),
(474,520,o),
(485,515,o),
(507,515,c),
(507,625,ls),
(507,635,o),
(501,641,o),
(491,641,cs),
(86,641,l),
(71,632,o),
(67,622,o),
(67,604,c),
(149,585,l),
(135,602,l),
(135,38,l),
(150,54,l),
(83,36,ls),
(73,33,o),
(67,21,o),
(67,0,c)
);
}
);
width = 600;
}
);
metricLeft = H;
unicode = 69;
},
{
color = 4;
glyphname = Schwa;
kernLeft = O;
kernRight = O;
layers = (
{
guides = (
{
angle = 45;
pos = (569,358);
}
);
layerId = "E1BF09ED-4302-4AD3-9939-8FDA35DE0FE8";
shapes = (
{
closed = 1;
nodes = (
(241,655,o),
(153,606,o),
(84,516,cs),
(81,511,o),
(81,507,o),
(84,504,cs),
(87,500,ls),
(90,496,o),
(95,497,o),
(98,501,cs),
(160,581,o),
(233,623,o),
(309,623,cs),
(452,623,o),
(529,515,o),
(529,318,cs),
(529,110,o),
(458,12,o),
(303,12,cs),
(184,12,o),
(101,112,o),
(107,247,c),
(93,239,l),
(543,248,l),
(543,265,l),
(92,265,ls),
(79,265,o),
(71,246,o),
(71,217,cs),
(71,93,o),
(172,-12,o),
(291,-12,cs),
(471,-12,o),
(569,117,o),
(569,358,cs),
(569,536,o),
(477,655,o),
(338,655,cs)
);
}
);
width = 640;
},
{
layerId = "7B53E429-1BF0-49C5-9F57-63EEBF39C6CC";
shapes = (
{
closed = 1;
nodes = (
(214,656,o),
(117,615,o),
(40,537,cs),
(29,527,o),
(28,517,o),
(34,504,cs),
(37,498,ls),
(44,484,o),
(57,481,o),
(70,489,cs),
(126,525,o),
(181,542,o),
(235,542,cs),
(365,542,o),
(438,447,o),
(438,275,cs),
(438,139,o),
(394,62,o),
(315,62,cs),
(238,62,o),
(202,135,o),
(207,279,c),
(174,238,l),
(487,244,l),
(488,319,l),
(62,319,ls),
(33,319,o),
(27,310,o),
(27,266,cs),
(27,101,o),
(140,-12,o),
(306,-12,cs),
(492,-12,o),
(634,136,o),
(634,332,cs),
(634,523,o),
(505,656,o),
(320,656,cs)
);
}
);
width = 659;
},
{
layerId = "649F6AC0-C354-445A-B217-A871C51F37B2";
shapes = (
{
closed = 1;
nodes = (
(232,655,o),
(142,609,o),
(71,525,cs),
(64,517,o),
(64,509,o),
(70,502,cs),
(70,501,ls),
(75,493,o),
(83,493,o),
(90,501,cs),
(150,564,o),
(217,597,o),
(284,597,cs),
(423,597,o),
(499,493,o),
(499,304,cs),
(499,120,o),
(436,28,o),
(306,28,cs),
(201,28,o),
(133,120,o),
(139,258,c),
(118,239,l),
(524,247,l),
(525,282,l),
(81,282,ls),
(63,282,o),
(56,267,o),
(56,233,cs),
(56,95,o),
(160,-12,o),
(294,-12,cs),
(477,-12,o),
(589,124,o),
(589,349,cs),
(589,532,o),
(485,655,o),
(332,655,cs)
);
}
);
width = 644;
}
);
metricLeft = O;
metricRight = O;
unicode = 399;
},
{
color = 4;
glyphname = F;
kernLeft = H;
kernRight = F;
layers = (
{
anchors = (
{
name = bottom;
pos = (270,0);
},
{
name = top;
pos = (270,641);
}
);
layerId = "E1BF09ED-4302-4AD3-9939-8FDA35DE0FE8";
shapes = (
{
closed = 1;
nodes = (
(244,0,ls),
(258,0,o),
(261,4,o),
(261,18,c),
(170,34,l),
(181,22,l),
(181,313,l),
(171,304,l),
(416,304,l),
(404,313,l),
(415,243,l),
(424,243,o),
(431,244,o),
(435,254,c),
(435,376,l),
(431,386,o),
(425,387,o),
(415,387,c),
(405,320,l),
(416,326,l),
(171,326,l),
(181,319,l),
(181,625,l),
(170,612,l),
(456,625,l),
(442,634,l),
(466,558,ls),
(470,546,o),
(477,542,o),
(486,542,c),
(486,633,ls),
(486,638,o),
(483,641,o),
(478,641,cs),
(98,641,ls),
(84,641,o),
(81,637,o),
(81,623,c),
(159,607,l),
(148,619,l),
(148,23,l),
(161,34,l),
(97,20,ls),
(86,18,o),
(81,12,o),
(81,0,c)
);
}
);
width = 540;
},
{
anchors = (
{
name = bottom;
pos = (288,0);
},
{
name = top;
pos = (288,641);
}
);
layerId = "7B53E429-1BF0-49C5-9F57-63EEBF39C6CC";
shapes = (
{
closed = 1;
nodes = (
(356,0,l),
(372,29,o),
(376,50,o),
(376,76,c),
(264,100,l),
(293,75,l),
(293,281,l),
(283,271,l),
(413,271,l),
(399,280,l),
(422,202,l),
(445,202,o),
(474,207,o),
(498,224,c),
(498,404,l),
(474,421,o),
(445,426,o),
(422,426,c),
(400,351,l),
(413,361,l),
(283,361,l),
(293,351,l),
(293,542,l),
(282,529,l),
(465,547,l),
(451,556,l),
(480,478,ls),
(484,466,o),
(500,458,o),
(550,458,c),
(550,617,ls),
(550,632,o),
(541,641,o),
(526,641,cs),
(60,641,l),
(43,614,o),
(38,591,o),
(38,565,c),
(129,541,l),
(107,566,l),
(107,70,l),
(128,96,l),
(54,69,ls),
(44,65,o),
(38,39,o),
(38,0,c)
);
}
);
width = 576;
},
{
anchors = (
{
name = bottom;
pos = (276,0);
},
{
name = top;
pos = (276,641);
}
);
layerId = "649F6AC0-C354-445A-B217-A871C51F37B2";
shapes = (
{
closed = 1;
nodes = (
(280,0,l),
(295,10,o),
(298,19,o),
(298,37,c),
(201,56,l),
(217,39,l),
(217,302,l),
(207,293,l),
(415,293,l),
(403,302,l),
(417,230,l),
(431,230,o),
(445,232,o),
(456,244,c),
(456,385,l),
(445,397,o),
(432,400,o),
(417,400,c),
(404,330,l),
(415,337,l),
(207,337,l),
(217,330,l),
(217,598,l),
(206,585,l),
(459,600,l),
(445,609,l),
(470,532,ls),
(474,520,o),
(485,515,o),
(507,515,c),
(507,625,ls),
(507,635,o),
(501,641,o),
(491,641,cs),
(86,641,l),
(71,632,o),
(67,622,o),
(67,604,c),
(149,585,l),
(135,602,l),
(135,38,l),
(150,54,l),
(83,36,ls),
(73,33,o),
(67,21,o),
(67,0,c)
);
}
);
width = 552;
}
);
metricLeft = H;
metricRight = "=H*.7";
unicode = 70;
},
{
color = 4;
glyphname = G;
kernLeft = O;
kernRight = G;
layers = (
{
anchors = (
{
name = bottom;
pos = (357,0);
},
{
name = top;
pos = (357,641);
}
);
layerId = "E1BF09ED-4302-4AD3-9939-8FDA35DE0FE8";
shapes = (
{
closed = 1;
nodes = (
(425,-12,o),
(495,11,o),
(558,54,cs),
(561,57,o),
(563,60,o),
(563,64,cs),
(563,256,l),
(550,245,l),
(593,259,ls),
(606,264,o),
(609,268,o),
(609,279,c),
(466,279,ls),
(452,279,o),
(449,275,o),
(449,261,c),
(541,245,l),
(530,257,l),
(530,64,l),
(532,78,l),
(488,35,o),
(434,14,o),
(369,14,cs),
(213,14,o),
(110,138,o),
(110,324,cs),
(110,508,o),
(211,626,o),
(369,626,cs),
(433,626,o),
(497,608,o),
(531,581,c),
(517,598,l),
(523,505,ls),
(524,494,o),
(528,490,o),
(544,487,c),
(561,600,ls),
(562,604,o),
(560,608,o),
(556,610,cs),
(506,640,o),
(450,655,o),
(391,655,cs),
(208,655,o),
(71,500,o),
(71,294,cs),
(71,111,o),
(185,-12,o),
(353,-12,cs)
);
}
);
width = 671;
},
{
anchors = (
{
name = bottom;
pos = (370,0);
},
{
name = top;
pos = (370,641);
}
);
layerId = "7B53E429-1BF0-49C5-9F57-63EEBF39C6CC";
shapes = (
{
closed = 1;
nodes = (
(444,-12,o),
(533,11,o),
(601,48,cs),
(612,54,o),
(616,63,o),
(616,76,cs),
(616,271,l),
(583,223,l),
(652,250,ls),
(662,254,o),
(668,279,o),
(668,319,c),
(373,319,l),
(358,291,o),
(353,272,o),
(353,243,c),
(460,219,l),
(438,265,l),
(438,53,l),
(478,125,l),
(459,100,o),
(427,87,o),
(385,87,cs),
(274,87,o),
(217,167,o),
(217,323,cs),
(217,475,o),
(271,556,o),
(373,556,cs),
(431,556,o),
(493,536,o),
(514,511,c),
(502,531,l),
(512,448,ls),
(514,433,o),
(544,423,o),
(587,423,c),
(605,585,ls),
(606,598,o),
(602,608,o),
(589,614,cs),
(537,639,o),
(460,655,o),
(387,655,cs),
(177,655,o),
(25,503,o),
(25,294,cs),
(25,108,o),
(156,-12,o),
(358,-12,cs)
);
}
);
width = 698;
},
{
anchors = (
{
name = bottom;
pos = (361,0);
},
{
name = top;
pos = (361,641);
}
);
layerId = "649F6AC0-C354-445A-B217-A871C51F37B2";
shapes = (
{
closed = 1;
nodes = (
(431,-12,o),
(506,11,o),
(570,51,cs),
(577,56,o),
(580,62,o),
(580,70,cs),
(580,260,l),
(561,237,l),
(613,256,ls),
(625,261,o),
(629,271,o),
(629,292,c),
(436,292,l),
(421,283,o),
(417,274,o),
(417,256,c),
(515,236,l),
(501,259,l),
(501,61,l),
(515,93,l),
(478,56,o),
(432,38,o),
(374,38,cs),
(233,38,o),
(145,148,o),
(145,324,cs),
(145,497,o),
(231,603,o),
(370,603,cs),
(432,603,o),
(496,585,o),
(526,558,c),
(513,576,l),
(520,486,ls),
(521,474,o),
(533,468,o),
(558,466,c),
(574,593,ls),
(575,602,o),
(573,608,o),
(565,613,cs),
(515,640,o),
(452,655,o),
(390,655,cs),
(198,655,o),
(56,501,o),
(56,294,cs),
(56,110,o),
(175,-12,o),
(354,-12,cs)
);
}
);
width = 680;
}
);
metricLeft = O;
metricRight = "=H*.8";
unicode = 71;
},
{
color = 4;
glyphname = H;
kernLeft = H;
kernRight = H;
layers = (
{
anchors = (
{
name = bottom;
pos = (376,0);
},
{
name = center;
pos = (376,475);
},
{
name = top;
pos = (376,641);
},
{
name = topleft;
pos = (98,641);
}
);
layerId = "E1BF09ED-4302-4AD3-9939-8FDA35DE0FE8";
shapes = (
{
closed = 1;
nodes = (
(234,0,ls),
(248,0,o),
(251,4,o),
(251,18,c),
(170,34,l),
(181,22,l),
(181,316,l),
(175,314,l),
(577,314,l),
(571,316,l),
(571,23,l),
(584,34,l),
(520,20,ls),
(509,18,o),
(504,12,o),
(504,0,c),
(657,0,ls),
(671,0,o),
(674,4,o),
(674,18,c),
(593,34,l),
(604,22,l),
(604,619,l),
(594,607,l),
(658,621,ls),
(669,623,o),
(674,629,o),
(674,641,c),
(521,641,ls),
(507,641,o),
(504,637,o),
(504,623,c),
(585,607,l),
(571,618,l),
(571,334,l),
(577,336,l),
(175,336,l),
(181,334,l),
(181,619,l),
(171,607,l),
(235,621,ls),
(246,623,o),
(251,629,o),
(251,641,c),
(98,641,ls),
(84,641,o),
(81,637,o),
(81,623,c),
(162,607,l),
(148,618,l),
(148,23,l),
(161,34,l),
(97,20,ls),
(86,18,o),
(81,12,o),
(81,0,c)
);
}
);
width = 751;
},
{
anchors = (
{
name = bottom;
pos = (387,0);
},
{
name = center;
pos = (387,472);
},
{
name = top;
pos = (387,641);
},
{
name = topleft;
pos = (60,641);
}
);
layerId = "7B53E429-1BF0-49C5-9F57-63EEBF39C6CC";
shapes = (
{
closed = 1;
nodes = (
(343,0,l),
(359,29,o),
(363,50,o),
(363,76,c),
(261,100,l),
(293,75,l),
(293,304,l),
(281,281,l),
(491,281,l),
(479,304,l),
(479,70,l),
(500,96,l),
(426,69,ls),
(416,65,o),
(410,39,o),
(410,0,c),
(722,0,l),
(740,29,o),
(745,50,o),
(745,76,c),
(643,100,l),
(665,75,l),
(665,571,l),
(644,545,l),
(729,572,ls),
(739,575,o),
(745,602,o),
(745,641,c),
(430,641,l),
(414,614,o),
(410,591,o),
(410,565,c),
(501,541,l),
(479,566,l),
(479,347,l),
(491,371,l),
(281,371,l),
(293,347,l),
(293,571,l),
(262,545,l),
(347,572,ls),
(357,575,o),
(363,602,o),
(363,641,c),
(60,641,l),
(43,614,o),
(38,591,o),
(38,565,c),
(129,541,l),
(107,566,l),
(107,70,l),
(128,96,l),
(54,69,ls),
(44,65,o),
(38,39,o),
(38,0,c)
);
}
);
width = 782;
},
{
anchors = (
{
name = bottom;
pos = (379,0);
},
{
name = center;
pos = (379,474);
},
{
name = top;
pos = (379,641);
},
{
name = topleft;
pos = (86,641);
}
);
layerId = "649F6AC0-C354-445A-B217-A871C51F37B2";
shapes = (
{
closed = 1;
nodes = (
(269,0,ls),
(284,10,o),
(287,19,o),
(287,37,c),
(199,56,l),
(217,39,l),
(217,312,l),
(210,303,l),
(549,303,l),
(542,312,l),
(542,38,l),
(557,54,l),
(489,36,ls),
(479,33,o),
(473,21,o),
(473,0,c),
(678,0,ls),
(694,10,o),
(697,19,o),
(697,37,c),
(609,56,l),
(624,39,l),
(624,604,l),
(610,587,l),
(681,605,ls),
(692,608,o),
(697,620,o),
(697,641,c),
(492,641,ls),
(477,632,o),
(473,622,o),
(473,604,c),
(558,585,l),
(542,602,l),
(542,338,l),
(549,347,l),
(210,347,l),
(217,338,l),
(217,604,l),
(200,587,l),
(271,605,ls),
(282,608,o),
(287,620,o),
(287,641,c),
(86,641,ls),
(71,632,o),
(67,622,o),
(67,604,c),
(151,585,l),
(135,602,l),
(135,38,l),
(150,54,l),
(83,36,ls),
(73,33,o),
(67,21,o),
(67,0,c)
);
}
);
width = 761.05406;
}
);
unicode = 72;
},
{
color = 4;
glyphname = I;
kernLeft = H;
kernRight = H;
layers = (
{
anchors = (
{
name = bottom;
pos = (164,0);
},
{
name = ogonek;
pos = (234,0);
},
{
name = top;
pos = (164,641);
},
{
name = topleft;
pos = (98,641);
}
);
layerId = "E1BF09ED-4302-4AD3-9939-8FDA35DE0FE8";
shapes = (
{
closed = 1;
nodes = (
(234,0,l),
(248,0,o),
(251,4,o),
(251,18,c),
(170,34,l),
(181,22,l),
(181,619,l),
(171,607,l),
(235,621,ls),
(246,623,o),
(251,629,o),
(251,641,c),
(98,641,l),
(84,641,o),
(81,637,o),
(81,623,c),
(162,607,l),
(148,618,l),
(148,23,l),
(161,34,l),
(97,20,ls),
(86,18,o),
(81,12,o),
(81,0,c)
);
}
);
width = 328;
},
{
anchors = (
{
name = bottom;
pos = (196,0);
},
{
name = ogonek;
pos = (343,0);
},
{
name = top;
pos = (196,641);
},
{
name = topleft;
pos = (60,641);
}
);
layerId = "7B53E429-1BF0-49C5-9F57-63EEBF39C6CC";
shapes = (
{
closed = 1;
nodes = (
(343,0,l),
(359,29,o),
(363,50,o),
(363,76,c),
(261,100,l),
(293,75,l),
(293,571,l),
(262,545,l),
(347,572,ls),
(357,575,o),
(363,602,o),
(363,641,c),
(60,641,l),
(43,614,o),
(38,591,o),
(38,565,c),
(129,541,l),
(107,566,l),
(107,70,l),
(128,96,l),
(54,69,ls),
(44,65,o),
(38,39,o),
(38,0,c)
);
}
);
width = 400;
},
{
anchors = (
{
name = bottom;
pos = (175,0);
},
{
name = ogonek;
pos = (269,0);
},
{
name = top;
pos = (175,641);
},
{
name = topleft;
pos = (86,641);
}
);
layerId = "649F6AC0-C354-445A-B217-A871C51F37B2";
shapes = (
{
closed = 1;
nodes = (
(269,0,l),
(284,10,o),
(287,19,o),
(287,37,c),
(199,56,l),
(217,39,l),
(217,604,l),
(200,587,l),
(271,605,ls),
(282,608,o),
(287,620,o),
(287,641,c),
(86,641,l),
(71,632,o),
(67,622,o),
(67,604,c),
(151,585,l),
(135,602,l),
(135,38,l),
(150,54,l),
(83,36,ls),
(73,33,o),
(67,21,o),
(67,0,c)
);
}
);
width = 351.35136;
}
);
metricLeft = H;
metricRight = H;
unicode = 73;
},
{
color = 4;
glyphname = J;
kernLeft = J;
kernRight = J;
layers = (
{
anchors = (
{
name = bottom;
pos = (133,0);
},
{
name = top;
pos = (133,641);
}
);
background = {
shapes = (
{
closed = 1;
nodes = (
(92,-184,o),
(149,-33,o),
(149,169,cs),
(149,618,l),
(139,607,l),
(203,621,ls),
(214,623,o),
(219,629,o),
(219,641,c),
(66,641,ls),
(52,641,o),
(49,637,o),
(49,623,c),
(130,607,l),
(116,618,l),
(116,67,ls),
(116,-64,o),
(79,-149,o),
(-37,-149,cs),
(-53,-149,l),
(-55,-152,o),
(-56,-155,o),
(-56,-159,cs),
(-56,-174,o),
(-36,-184,o),
(-13,-184,cs)
);
}
);
};
layerId = "E1BF09ED-4302-4AD3-9939-8FDA35DE0FE8";
shapes = (
{
closed = 1;
nodes = (
(87,-184,o),
(149,-34,o),
(149,169,cs),
(149,618,l),
(139,607,l),
(203,621,ls),
(215,624,o),
(219,630,o),
(219,641,c),
(66,641,ls),
(52,641,o),
(49,637,o),
(49,623,c),
(130,607,l),
(116,618,l),
(116,67,ls),
(116,-90,o),
(68,-149,o),
(-53,-149,c),
(-55,-153,o),
(-56,-157,o),
(-56,-161,cs),
(-56,-176,o),
(-41,-184,o),
(-17,-184,cs)
);
}
);
width = 265;
},
{
anchors = (
{
name = bottom;
pos = (187,0);
},
{
name = top;
pos = (187,641);
}
);
layerId = "7B53E429-1BF0-49C5-9F57-63EEBF39C6CC";
shapes = (
{
closed = 1;
nodes = (
(151,-193,o),
(278,21,o),
(278,265,cs),
(278,574,l),
(247,545,l),
(332,572,ls),
(342,575,o),
(348,602,o),
(348,641,c),
(45,641,l),
(30,616,o),
(23,594,o),
(23,565,c),
(114,541,l),
(92,574,l),
(92,94,ls),
(92,-11,o),
(59,-40,o),
(-63,-40,c),
(-74,-58,o),
(-80,-87,o),
(-80,-105,cs),
(-80,-160,o),
(-43,-193,o),
(7,-193,cs)
);
}
);
width = 370;
},
{
anchors = (
{
name = bottom;
pos = (150,0);
},
{
name = top;
pos = (150,641);
}
);
layerId = "649F6AC0-C354-445A-B217-A871C51F37B2";
shapes = (
{
closed = 1;
nodes = (
(108,-187,o),
(191,-17,o),
(191,201,cs),
(191,604,l),
(174,587,l),
(245,605,ls),
(256,608,o),
(261,621,o),
(261,641,c),
(59,641,ls),
(44,633,o),
(40,623,o),
(40,604,c),
(125,585,l),
(108,604,l),
(108,76,ls),
(108,-65,o),
(65,-114,o),
(-56,-114,c),
(-62,-122,o),
(-64,-134,o),
(-64,-143,cs),
(-64,-171,o),
(-42,-187,o),
(-9,-187,cs)
);
}
);
width = 300;
}
);
metricRight = U;
unicode = 74;
},
{
color = 4;
glyphname = K;
kernLeft = H;
kernRight = K;
layers = (
{
anchors = (
{
name = bottom;
pos = (321,0);
},
{
name = top;
pos = (321,641);
}
);
guides = (
{
angle = -89.0715;
pos = (597,10);
}
);
layerId = "E1BF09ED-4302-4AD3-9939-8FDA35DE0FE8";
shapes = (
{
closed = 1;
nodes = (
(558,-10,o),
(567,0,o),
(567,10,c),
(465,65,o),
(305,235,o),
(217,332,c),
(217,318,l),
(494,625,l),
(473,607,l),
(540,621,ls),
(551,623,o),
(556,629,o),
(556,641,c),
(393,641,ls),
(379,641,o),
(376,637,o),
(376,623,c),
(467,607,l),
(463,620,l),
(194,322,l),
(329,156,o),
(498,-10,o),
(542,-10,cs)
);
},
{
closed = 1;
nodes = (
(234,0,ls),
(248,0,o),
(251,4,o),
(251,18,c),
(170,34,l),
(181,22,l),
(181,619,l),
(171,607,l),
(235,621,ls),
(246,623,o),
(251,629,o),
(251,641,c),
(98,641,ls),
(84,641,o),
(81,637,o),
(81,623,c),
(162,607,l),
(148,618,l),
(148,23,l),
(161,34,l),
(97,20,ls),
(86,18,o),
(81,12,o),
(81,0,c)
);
}
);
width = 575;
},
{
anchors = (
{
name = bottom;
pos = (338,0);
},
{
name = top;
pos = (338,641);
}
);
guides = (
{
angle = 230.005;
pos = (651,589);
},
{
angle = -89.0715;
pos = (704,33);
}
);
layerId = "7B53E429-1BF0-49C5-9F57-63EEBF39C6CC";
shapes = (
{
closed = 1;
nodes = (
(619,-12,o),
(662,3,o),
(704,33,c),
(628,100,o),
(525,235,o),
(445,373,c),
(411,306,l),
(635,589,l),
(575,540,l),
(664,568,ls),
(685,574,o),
(694,596,o),
(694,641,c),
(440,641,l),
(426,617,o),
(420,595,o),
(420,565,c),
(536,541,l),
(505,584,l),
(294,317,l),
(460,10,o),
(479,-12,o),
(576,-12,cs)
);
},
{
closed = 1;
nodes = (
(343,0,l),
(359,29,o),
(363,50,o),
(363,76,c),
(261,100,l),
(293,75,l),
(293,571,l),
(262,545,l),
(347,572,ls),
(357,575,o),
(363,603,o),
(363,641,c),
(60,641,l),
(43,614,o),
(38,591,o),
(38,565,c),
(129,541,l),
(107,566,l),
(107,70,l),
(128,96,l),
(54,69,ls),
(44,65,o),
(38,39,o),
(38,0,c)
);
}
);
width = 708;
},
{
anchors = (
{
name = bottom;
pos = (326,0);
},
{
name = top;
pos = (326,641);
}
);
layerId = "649F6AC0-C354-445A-B217-A871C51F37B2";
shapes = (
{
closed = 1;
nodes = (
(578,-11,o),
(598,1,o),
(612,18,c),
(517,76,o),
(376,235,o),
(291,345,c),
(280,314,l),
(540,613,l),
(506,585,l),
(580,604,ls),
(595,607,o),
(601,618,o),
(601,641,c),
(408,641,ls),
(394,633,o),
(390,624,o),
(390,604,c),
(490,585,l),
(476,608,l),
(227,321,l),
(372,109,o),
(492,-11,o),
(553,-11,cs)
);
},
{
closed = 1;
nodes = (
(269,0,ls),
(284,10,o),
(287,19,o),
(287,37,c),
(199,56,l),
(217,39,l),
(217,604,l),
(200,587,l),
(271,605,ls),
(282,608,o),
(287,620,o),
(287,641,c),
(86,641,ls),
(71,632,o),
(67,622,o),
(67,604,c),
(151,585,l),
(135,602,l),
(135,38,l),
(150,54,l),
(83,36,ls),
(73,33,o),
(67,21,o),
(67,0,c)
);
}
);
width = 618.13513;
}
);
metricLeft = H;
metricRight = "=H*.1";
unicode = 75;
},
{
color = 4;
glyphname = L;
kernLeft = H;
kernRight = L;
layers = (
{
anchors = (
{
name = bottom;
pos = (313,0);
},
{
name = center;
pos = (166,321);
},
{
name = top;
pos = (166,641);
},
{
name = topright;
pos = (327,443);
}
);
layerId = "E1BF09ED-4302-4AD3-9939-8FDA35DE0FE8";
shapes = (
{
closed = 1;
nodes = (
(499,0,ls),
(504,0,o),
(507,3,o),
(507,8,cs),
(507,108,ls),
(507,115,o),
(499,121,o),
(484,121,c),
(469,7,l),
(482,16,l),
(171,34,l),
(181,23,l),
(181,619,l),
(171,607,l),
(235,621,ls),
(246,623,o),
(251,629,o),
(251,641,c),
(98,641,ls),
(84,641,o),
(81,637,o),
(81,623,c),
(162,607,l),
(148,618,l),
(148,23,l),
(161,34,l),
(97,20,ls),
(86,18,o),
(81,12,o),
(81,0,c)
);
}
);
width = 545;
},
{
anchors = (
{
name = bottom;
pos = (321,0);
},
{
name = center;
pos = (199,321);
},
{
name = top;
pos = (199,641);
},
{
name = topright;
pos = (403,443);
}
);
layerId = "7B53E429-1BF0-49C5-9F57-63EEBF39C6CC";
shapes = (
{
closed = 1;
nodes = (
(546,0,ls),
(561,0,o),
(570,9,o),
(570,24,cs),
(570,183,l),
(543,200,o),
(520,205,o),
(494,205,c),
(460,72,l),
(472,94,l),
(283,112,l),
(293,101,l),
(293,571,l),
(273,545,l),
(358,572,ls),
(368,575,o),
(374,602,o),
(374,641,c),
(60,641,l),
(43,614,o),
(38,591,o),
(38,565,c),
(129,541,l),
(107,566,l),
(107,70,l),
(128,96,l),
(54,69,ls),
(44,65,o),
(38,39,o),
(38,0,c)
);
}
);
width = 611;
},
{
anchors = (
{
name = bottom;
pos = (315,0);
},
{
name = center;
pos = (177,321);
},
{
name = top;
pos = (177,641);
},
{
name = topright;
pos = (352,443);
}
);
layerId = "649F6AC0-C354-445A-B217-A871C51F37B2";
shapes = (
{
closed = 1;
nodes = (
(512,0,ls),
(522,0,o),
(528,6,o),
(528,16,cs),
(528,132,l),
(519,142,o),
(506,148,o),
(487,148,c),
(466,28,l),
(479,41,l),
(207,59,l),
(217,48,l),
(217,604,l),
(204,587,l),
(275,605,ls),
(285,608,o),
(291,620,o),
(291,641,c),
(86,641,l),
(71,632,o),
(67,622,o),
(67,604,c),
(151,585,l),
(135,602,l),
(135,38,l),
(150,54,l),
(83,36,ls),
(73,33,o),
(67,21,o),
(67,0,c)
);
}
);
width = 566;
}
);
metricLeft = H;
unicode = 76;
},
{
color = 4;
glyphname = M;
kernLeft = M;
kernRight = M;
layers = (
{
anchors = (
{
name = bottom;
pos = (444,0);
},
{
name = top;
pos = (444,641);
}
);
layerId = "E1BF09ED-4302-4AD3-9939-8FDA35DE0FE8";
shapes = (
{
closed = 1;
nodes = (
(443,-3,o),
(447,0,o),
(452,14,cs),
(690,636,l),
(676,636,l),
(727,11,l),
(732,34,l),
(661,20,ls),
(650,18,o),
(645,12,o),
(645,0,c),
(816,0,ls),
(830,0,o),
(833,4,o),
(833,18,c),
(751,32,l),
(760,15,l),
(710,634,l),
(697,608,l),
(765,621,ls),
(776,623,o),
(781,629,o),
(781,641,c),
(677,641,ls),
(673,641,o),
(670,640,o),
(668,635,cs),
(441,41,l),
(456,41,l),
(230,635,ls),
(228,640,o),
(225,641,o),
(221,641,cs),
(135,641,ls),
(121,641,o),
(118,637,o),
(118,623,c),
(192,609,l),
(188,634,l),
(130,14,l),
(136,30,l),
(77,20,ls),
(66,18,o),
(61,12,o),
(61,0,c),
(203,0,ls),
(217,0,o),
(220,4,o),
(220,18,c),
(145,31,l),
(151,18,l),
(208,634,l),
(194,634,l),
(436,-1,l),
(438,-3,o),
(439,-3,o),
(440,-3,cs)
);
}
);
width = 887;
},
{
anchors = (
{
name = bottom;
pos = (468,0);
},
{
name = top;
pos = (468,641);
}
);
layerId = "7B53E429-1BF0-49C5-9F57-63EEBF39C6CC";
shapes = (
{
closed = 1;
nodes = (
(461,-3,o),
(490,6,o),
(495,23,cs),
(666,564,l),
(623,564,l),
(665,53,l),
(693,97,l),
(613,70,ls),
(603,67,o),
(597,40,o),
(597,1,c),
(890,1,l),
(907,28,o),
(912,51,o),
(912,77,c),
(826,101,l),
(845,57,l),
(802,589,l),
(765,545,l),
(855,572,ls),
(865,575,o),
(871,602,o),
(871,641,c),
(606,641,ls),
(592,641,o),
(583,635,o),
(579,621,cs),
(448,204,l),
(522,204,l),
(379,622,ls),
(375,635,o),
(365,641,o),
(351,641,cs),
(98,641,l),
(81,614,o),
(76,591,o),
(76,565,c),
(167,541,l),
(158,584,l),
(109,53,l),
(131,97,l),
(46,70,ls),
(36,67,o),
(30,40,o),
(30,1,c),
(286,1,l),
(302,28,o),
(306,51,o),
(306,77,c),
(200,101,l),
(210,57,l),
(255,554,l),
(210,554,l),
(402,4,l),
(407,0,o),
(431,-3,o),
(442,-3,cs)
);
}
);
width = 944;
},
{
anchors = (
{
name = bottom;
pos = (452,0);
},
{
name = top;
pos = (452,641);
}
);
layerId = "649F6AC0-C354-445A-B217-A871C51F37B2";
shapes = (
{
closed = 1;
nodes = (
(449,-3,o),
(461,2,o),
(466,17,cs),
(682,613,l),
(659,613,l),
(707,24,l),
(719,55,l),
(646,36,ls),
(635,34,o),
(630,21,o),
(630,0,c),
(840,0,l),
(855,9,o),
(858,19,o),
(858,38,c),
(775,55,l),
(787,28,l),
(740,620,l),
(719,587,l),
(794,605,ls),
(804,608,o),
(810,620,o),
(810,641,c),
(657,641,ls),
(648,641,o),
(641,636,o),
(638,628,cs),
(443,93,l),
(478,93,l),
(280,628,ls),
(277,636,o),
(270,641,o),
(261,641,cs),
(123,641,l),
(108,632,o),
(105,622,o),
(105,604,c),
(184,587,l),
(178,618,l),
(123,27,l),
(135,52,l),
(67,36,ls),
(56,34,o),
(51,21,o),
(51,0,c),
(230,0,l),
(244,9,o),
(248,19,o),
(248,38,c),
(163,54,l),
(171,31,l),
(223,608,l),
(199,608,l),
(425,0,l),
(428,-2,o),
(437,-3,o),
(441,-3,cs)
);
}
);
width = 905;
}
);
unicode = 77;
},
{
color = 4;
glyphname = N;
kernLeft = H;
kernRight = N;
layers = (
{
anchors = (
{
name = bottom;
pos = (383,0);
},
{
name = top;
pos = (383,641);
}
);
layerId = "E1BF09ED-4302-4AD3-9939-8FDA35DE0FE8";
shapes = (
{
closed = 1;
nodes = (
(614,-1,o),
(617,7,o),
(617,12,cs),
(617,623,l),
(611,611,l),
(670,621,ls),
(681,623,o),
(686,629,o),
(686,641,c),
(544,641,ls),
(530,641,o),
(527,637,o),
(527,623,c),
(602,610,l),
(597,623,l),
(597,38,l),
(608,38,l),
(191,636,ls),
(189,640,o),
(185,641,o),
(181,641,cs),
(98,641,ls),
(84,641,o),
(81,637,o),
(81,623,c),
(155,609,l),
(151,617,l),
(151,12,l),
(156,30,l),
(97,20,ls),
(86,18,o),
(81,12,o),
(81,0,c),
(223,0,ls),
(237,0,o),
(240,4,o),
(240,18,c),
(165,31,l),
(171,17,l),
(171,618,l),
(164,617,l),
(594,1,l),
(596,0,o),
(599,-1,o),
(604,-1,cs)
);
}
);
width = 740;
},
{
anchors = (
{
name = bottom;
pos = (400,0);
},
{
name = top;
pos = (400,641);
}
);
layerId = "7B53E429-1BF0-49C5-9F57-63EEBF39C6CC";
shapes = (
{
closed = 1;
nodes = (
(611,-3,o),
(671,6,o),
(671,37,cs),
(671,589,l),
(648,545,l),
(738,572,ls),
(748,575,o),
(754,602,o),
(754,641,c),
(488,641,l),
(472,614,o),
(468,591,o),
(468,565,c),
(579,541,l),
(571,584,l),
(571,137,l),
(630,158,l),
(273,627,ls),
(265,637,o),
(256,641,o),
(244,641,cs),
(58,641,l),
(42,614,o),
(38,591,o),
(38,565,c),
(149,541,l),
(122,584,l),
(122,52,l),
(144,96,l),
(54,69,ls),
(44,66,o),
(38,39,o),
(38,0,c),
(304,0,l),
(320,27,o),
(324,50,o),
(324,76,c),
(213,100,l),
(222,57,l),
(222,439,l),
(202,422,l),
(523,3,l),
(540,-1,o),
(567,-3,o),
(596,-3,cs)
);
}
);
width = 780;
},
{
anchors = (
{
name = bottom;
pos = (388,0);
},
{
name = top;
pos = (388,641);
}
);
layerId = "649F6AC0-C354-445A-B217-A871C51F37B2";
shapes = (
{
closed = 1;
nodes = (
(613,-2,o),
(634,7,o),
(634,20,cs),
(634,612,l),
(623,589,l),
(692,605,ls),
(703,608,o),
(708,620,o),
(708,641,c),
(526,641,l),
(511,632,o),
(507,622,o),
(507,604,c),
(594,587,l),
(588,610,l),
(588,70,l),
(616,77,l),
(218,631,ls),
(213,638,o),
(207,641,o),
(199,641,cs),
(85,641,l),
(71,632,o),
(67,622,o),
(67,604,c),
(153,587,l),
(141,606,l),
(141,25,l),
(152,52,l),
(83,36,ls),
(73,33,o),
(67,21,o),
(67,0,c),
(249,0,l),
(264,9,o),
(267,19,o),
(267,37,c),
(180,54,l),
(187,30,l),
(187,560,l),
(176,554,l),
(571,2,l),
(578,0,o),
(588,-2,o),
(602,-2,cs)
);
}
);
width = 753;
}
);
metricLeft = H;
metricRight = "=H*.7";
unicode = 78;
},
{
color = 4;
glyphname = Eng;
kernLeft = H;
kernRight = J;
layers = (
{
layerId = "E1BF09ED-4302-4AD3-9939-8FDA35DE0FE8";
shapes = (
{
closed = 1;
nodes = (
(560,-184,o),
(617,-33,o),
(617,119,cs),
(617,623,l),
(611,611,l),
(670,621,ls),
(681,623,o),
(686,629,o),
(686,641,c),
(544,641,ls),
(530,641,o),
(527,637,o),
(527,623,c),
(602,610,l),
(599,623,l),
(599,61,l),
(604,68,l),
(191,636,ls),
(189,639,o),
(185,641,o),
(181,641,cs),
(98,641,ls),
(84,641,o),
(81,637,o),
(81,623,c),
(155,609,l),
(151,617,l),
(151,12,l),
(156,30,l),
(97,20,ls),
(86,18,o),
(81,12,o),
(81,0,c),
(223,0,ls),
(237,0,o),
(240,4,o),
(240,18,c),
(165,31,l),
(169,17,l),
(169,618,l),
(164,617,l),
(591,30,l),
(590,40,l),
(582,-97,o),
(533,-149,o),
(415,-149,c),
(413,-152,o),
(412,-155,o),
(412,-159,cs),
(412,-174,o),
(432,-184,o),
(455,-184,cs)
);
}
);
width = 732;
},
{
layerId = "7B53E429-1BF0-49C5-9F57-63EEBF39C6CC";
shapes = (
{
closed = 1;
nodes = (
(520,-193,o),
(671,-23,o),
(671,159,cs),
(671,589,l),
(648,545,l),
(738,572,ls),
(748,575,o),
(754,602,o),
(754,641,c),
(488,641,l),
(472,614,o),
(468,591,o),
(468,565,c),
(579,541,l),
(566,584,l),
(566,180,l),
(593,188,l),
(273,626,ls),
(266,636,o),
(256,641,o),
(244,641,cs),
(58,641,l),
(42,614,o),
(38,591,o),
(38,565,c),
(149,541,l),
(122,584,l),
(122,52,l),
(144,96,l),
(54,69,ls),
(44,66,o),
(38,39,o),
(38,0,c),
(304,0,l),
(320,27,o),
(324,50,o),
(324,76,c),
(213,100,l),
(227,57,l),
(227,439,l),
(202,439,l),
(541,-10,l),
(517,109,l),
(517,-45,o),
(504,-65,o),
(330,-65,c),
(320,-77,o),
(318,-102,o),
(318,-114,cs),
(318,-161,o),
(354,-193,o),
(395,-193,cs)
);
}
);
width = 776;
},
{
layerId = "649F6AC0-C354-445A-B217-A871C51F37B2";
shapes = (
{
closed = 1;
nodes = (
(547,-187,o),
(634,-30,o),
(634,132,cs),
(634,612,l),
(623,589,l),
(692,605,ls),
(703,608,o),
(708,620,o),
(708,641,c),
(526,641,l),
(511,632,o),
(507,622,o),
(507,604,c),
(594,587,l),
(588,610,l),
(588,99,l),
(601,107,l),
(218,631,ls),
(213,638,o),
(207,641,o),
(199,641,cs),
(85,641,l),
(71,632,o),
(67,622,o),
(67,604,c),
(153,587,l),
(141,606,l),
(141,25,l),
(152,52,l),
(83,36,ls),
(73,33,o),
(67,21,o),
(67,0,c),
(249,0,l),
(264,9,o),
(267,19,o),
(267,37,c),
(180,54,l),
(188,30,l),
(188,560,l),
(176,559,l),
(575,17,l),
(566,63,l),
(561,-81,o),
(523,-122,o),
(388,-122,c),
(383,-128,o),
(381,-138,o),
(381,-145,cs),
(381,-170,o),
(407,-187,o),
(435,-187,cs)
);
}
);
width = 747;
}
);
metricLeft = N;
metricRight = J;
unicode = 330;
},
{
color = 4;
glyphname = O;
kernLeft = O;
kernRight = O;
layers = (
{
anchors = (
{
name = bottom;
pos = (370,0);
},
{
name = center;
pos = (370,321);
},
{
name = ogonek;
pos = (434,0);
},
{
name = top;
pos = (370,641);
},
{
name = topleft;
pos = (301,641);
},
{
name = topright;
pos = (477,641);
}
);
guides = (
{
angle = 45;
pos = (648,328);
}
);
layerId = "E1BF09ED-4302-4AD3-9939-8FDA35DE0FE8";
shapes = (
{
closed = 1;
nodes = (
(534,-12,o),
(668,152,o),
(668,348,cs),
(668,520,o),
(555,655,o),
(389,655,cs),
(217,655,o),
(71,501,o),
(71,297,cs),
(71,123,o),
(184,-12,o),
(350,-12,cs)
);
},
{
closed = 1;
nodes = (
(210,16,o),
(110,135,o),
(110,335,cs),
(110,510,o),
(227,626,o),
(357,626,cs),
(527,626,o),
(628,507,o),
(628,308,cs),
(628,142,o),
(523,16,o),
(380,16,cs)
);
}
);
width = 739;
},
{
anchors = (
{
name = bottom;
pos = (358,0);
},
{
name = center;
pos = (358,321);
},
{
name = ogonek;
pos = (430,0);
},
{
name = top;
pos = (358,641);
},
{
name = topleft;
pos = (278,641);
},
{
name = topright;
pos = (481,641);
}
);
layerId = "7B53E429-1BF0-49C5-9F57-63EEBF39C6CC";
shapes = (
{
closed = 1;
nodes = (
(538,-12,o),
(690,141,o),
(690,345,cs),
(690,529,o),
(565,655,o),
(380,655,cs),
(177,655,o),
(25,501,o),
(25,298,cs),
(25,114,o),
(150,-12,o),
(336,-12,cs)
);
},
{
closed = 1;
nodes = (
(277,87,o),
(221,184,o),
(221,333,cs),
(221,472,o),
(270,556,o),
(353,556,cs),
(438,556,o),
(494,459,o),
(494,310,cs),
(494,171,o),
(445,87,o),
(362,87,cs)
);
}
);
width = 715;
},
{
anchors = (
{
name = bottom;
pos = (366,0);
},
{
name = center;
pos = (366,321);
},
{
name = ogonek;
pos = (433,0);
},
{
name = top;
pos = (366,641);
},
{
name = topleft;
pos = (293,641);
},
{
name = topright;
pos = (478,641);
}
);
layerId = "649F6AC0-C354-445A-B217-A871C51F37B2";
shapes = (
{
closed = 1;
nodes = (
(535,-12,o),
(676,149,o),
(676,347,cs),
(676,523,o),
(558,655,o),
(386,655,cs),
(204,655,o),
(56,501,o),
(56,297,cs),
(56,120,o),
(173,-12,o),
(346,-12,cs)
);
},
{
closed = 1;
nodes = (
(232,39,o),
(146,151,o),
(146,334,cs),
(146,498,o),
(241,603,o),
(356,603,cs),
(499,603,o),
(584,492,o),
(584,309,cs),
(584,152,o),
(498,39,o),
(375,39,cs)
);
}
);
width = 731.21621;
}
);
unicode = 79;
},
{
color = 4;
glyphname = P;
kernLeft = H;
kernRight = P;
layers = (
{
anchors = (
{
name = bottom;
pos = (277,0);
},
{
name = top;
pos = (277,641);
}
);
layerId = "E1BF09ED-4302-4AD3-9939-8FDA35DE0FE8";
shapes = (
{
closed = 1;
nodes = (
(244,0,ls),
(258,0,o),
(261,4,o),
(261,18,c),
(172,34,l),
(183,22,l),
(183,285,l),
(173,285,l),
(198,277,o),
(240,273,o),
(273,273,cs),
(430,273,o),
(516,376,o),
(516,475,cs),
(516,561,o),
(453,641,o),
(316,641,cs),
(99,641,ls),
(86,641,o),
(83,637,o),
(83,623,c),
(161,607,l),
(150,619,l),
(150,23,l),
(163,34,l),
(97,20,ls),
(86,18,o),
(81,12,o),
(81,0,c)
);
},
{
closed = 1;
nodes = (
(183,621,l),
(173,609,l),
(198,615,o),
(247,623,o),
(299,623,cs),
(406,623,o),
(475,561,o),
(475,457,cs),
(475,374,o),
(417,293,o),
(293,293,cs),
(245,293,o),
(194,298,o),
(173,307,c),
(183,293,l)
);
}
);
width = 553;
},
{
anchors = (
{
name = bottom;
pos = (331,0);
},
{
name = top;
pos = (321,641);
}
);
layerId = "7B53E429-1BF0-49C5-9F57-63EEBF39C6CC";
shapes = (
{
closed = 1;
nodes = (
(353,0,l),
(368,25,o),
(373,46,o),
(373,76,c),
(261,100,l),
(293,57,l),
(293,242,l),
(264,242,l),
(303,229,o),
(340,223,o),
(374,223,cs),
(508,223,o),
(608,320,o),
(608,449,cs),
(608,566,o),
(525,641,o),
(398,641,cs),
(59,641,l),
(44,617,o),
(38,594,o),
(38,565,c),
(129,541,l),
(107,566,l),
(107,70,l),
(128,96,l),
(54,69,ls),
(44,65,o),
(38,39,o),
(38,0,c)
);
},
{
closed = 1;
nodes = (
(293,549,l),
(270,531,l),
(299,538,o),
(315,541,o),
(330,541,cs),
(388,541,o),
(415,510,o),
(415,442,cs),
(415,368,o),
(385,327,o),
(331,327,cs),
(311,327,o),
(284,333,o),
(268,340,c),
(293,315,l)
);
}
);
width = 649;
},
{
anchors = (
{
name = bottom;
pos = (294,0);
},
{
name = top;
pos = (291,641);
}
);
layerId = "649F6AC0-C354-445A-B217-A871C51F37B2";
shapes = (
{
closed = 1;
nodes = (
(279,0,ls),
(294,8,o),
(297,17,o),
(297,37,c),
(200,56,l),
(219,33,l),
(219,271,l),
(202,271,l),
(232,262,o),
(273,257,o),
(306,257,cs),
(455,257,o),
(546,358,o),
(546,466,cs),
(546,562,o),
(476,641,o),
(342,641,cs),
(86,641,ls),
(73,633,o),
(69,623,o),
(69,604,c),
(150,585,l),
(136,602,l),
(136,38,l),
(152,54,l),
(83,36,ls),
(73,33,o),
(67,21,o),
(67,0,c)
);
},
{
closed = 1;
nodes = (
(219,598,l),
(205,584,l),
(231,590,o),
(269,597,o),
(309,597,cs),
(401,597,o),
(455,545,o),
(455,453,cs),
(455,372,o),
(406,304,o),
(305,304,cs),
(267,304,o),
(223,309,o),
(204,318,c),
(219,301,l)
);
}
);
width = 584.13513;
}
);
metricLeft = H;
unicode = 80;
},
{
color = 4;
glyphname = Thorn;
kernLeft = H;
kernRight = P;
layers = (
{
layerId = "E1BF09ED-4302-4AD3-9939-8FDA35DE0FE8";
shapes = (
{
closed = 1;
nodes = (
(244,0,ls),
(258,0,o),
(261,4,o),
(261,18,c),
(170,34,l),
(181,22,l),
(181,159,l),
(172,152,l),
(197,145,o),
(238,141,o),
(271,141,cs),
(428,141,o),
(514,244,o),
(514,343,cs),
(514,429,o),
(451,509,o),
(314,509,cs),
(166,509,l),
(181,494,l),
(181,619,l),
(171,607,l),
(235,621,ls),
(246,623,o),
(251,629,o),
(251,641,c),
(98,641,ls),
(84,641,o),
(81,637,o),
(81,623,c),
(162,607,l),
(148,618,l),
(148,23,l),
(161,34,l),
(97,20,ls),
(86,18,o),
(81,12,o),
(81,0,c)
);
},
{
closed = 1;
nodes = (
(181,488,l),
(174,477,l),
(200,484,o),
(246,491,o),
(297,491,cs),
(404,491,o),
(473,429,o),
(473,325,cs),
(473,242,o),
(415,161,o),
(291,161,cs),
(247,161,o),
(202,165,o),
(177,173,c),
(181,161,l)
);
}
);
width = 534;
},
{
background = {
shapes = (
{
closed = 1;
nodes = (
(343,0,l),
(359,29,o),
(363,50,o),
(363,76,c),
(261,100,l),
(293,75,l),
(293,571,l),
(262,545,l),
(347,572,ls),
(357,575,o),
(363,602,o),
(363,641,c),
(60,641,l),
(43,614,o),
(38,591,o),
(38,565,c),
(129,541,l),
(107,566,l),
(107,70,l),
(128,96,l),
(54,69,ls),
(44,65,o),
(38,39,o),
(38,0,c)
);
}
);
};
layerId = "7B53E429-1BF0-49C5-9F57-63EEBF39C6CC";
shapes = (
{
closed = 1;
nodes = (
(353,0,l),
(369,29,o),
(373,50,o),
(373,76,c),
(261,100,l),
(293,57,l),
(293,138,l),
(283,128,l),
(316,120,o),
(348,116,o),
(376,116,cs),
(514,116,o),
(598,232,o),
(598,348,cs),
(598,444,o),
(530,534,o),
(388,534,cs),
(278,534,l),
(293,519,l),
(293,571,l),
(262,545,l),
(347,572,l),
(357,575,o),
(363,602,o),
(363,641,c),
(59,641,l),
(43,614,o),
(38,591,o),
(38,565,c),
(129,541,l),
(107,566,l),
(107,70,l),
(128,96,l),
(54,69,ls),
(44,65,o),
(38,39,o),
(38,0,c)
);
},
{
closed = 1;
nodes = (
(293,432,l),
(283,424,l),
(311,432,o),
(328,434,o),
(346,434,cs),
(385,434,o),
(405,386,o),
(405,335,cs),
(405,279,o),
(380,220,o),
(336,220,cs),
(321,220,o),
(305,220,o),
(283,227,c),
(293,213,l)
);
}
);
width = 598;
},
{
layerId = "649F6AC0-C354-445A-B217-A871C51F37B2";
shapes = (
{
closed = 1;
nodes = (
(279,0,ls),
(294,10,o),
(297,19,o),
(297,37,c),
(199,56,l),
(217,33,l),
(217,152,l),
(208,144,l),
(235,137,o),
(274,133,o),
(305,133,cs),
(456,133,o),
(541,240,o),
(541,344,cs),
(541,433,o),
(476,517,o),
(338,517,cs),
(202,517,l),
(217,502,l),
(217,604,l),
(200,587,l),
(271,605,ls),
(282,608,o),
(287,620,o),
(287,641,c),
(85,641,ls),
(71,632,o),
(67,622,o),
(67,604,c),
(151,585,l),
(135,602,l),
(135,38,l),
(150,54,l),
(83,36,ls),
(73,33,o),
(67,21,o),
(67,0,c)
);
},
{
closed = 1;
nodes = (
(217,470,l),
(209,460,l),
(236,468,o),
(272,472,o),
(313,472,cs),
(398,472,o),
(451,415,o),
(451,328,cs),
(451,254,o),
(404,181,o),
(305,181,cs),
(271,181,o),
(236,183,o),
(212,190,c),
(217,177,l)
);
}
);
width = 554.75676;
}
);
metricLeft = H;
unicode = 222;
},
{
color = 5;
glyphname = Q;
kernLeft = O;
kernRight = Q;
layers = (
{
layerId = "E1BF09ED-4302-4AD3-9939-8FDA35DE0FE8";
shapes = (
{
closed = 1;
nodes = (
(636,-166,o),
(657,-151,o),
(668,-121,c),
(575,-121,o),
(433,-61,o),
(356,10,c),
(348,-7,l),
(431,-98,o),
(542,-166,o),
(608,-166,cs)
);
},
{
ref = O;
}
);
width = 739;
},
{
layerId = "7B53E429-1BF0-49C5-9F57-63EEBF39C6CC";
shapes = (
{
closed = 1;
nodes = (
(607,-207,o),
(665,-157,o),
(690,-73,c),
(593,-73,o),
(461,-12,o),
(331,64,c),
(286,14,l),
(420,-163,o),
(495,-207,o),
(549,-207,cs)
);
},
{
ref = O;
}
);
width = 715;
},
{
layerId = "649F6AC0-C354-445A-B217-A871C51F37B2";
shapes = (
{
closed = 1;
nodes = (
(626,-179,o),
(659,-153,o),
(676,-106,c),
(581,-106,o),
(442,-45,o),
(348,27,c),
(328,0,l),
(428,-119,o),
(527,-179,o),
(588,-179,cs)
);
},
{
alignment = -1;
ref = O;
}
);
width = 731.34615;
}
);
metricLeft = O;
unicode = 81;
},
{
color = 4;
glyphname = R;
kernLeft = H;
kernRight = R;
layers = (
{
anchors = (
{
name = bottom;
pos = (316,0);
},
{
name = top;
pos = (301,641);
}
);
guides = (
{
angle = 101.5442;
pos = (603,11);
}
);
layerId = "E1BF09ED-4302-4AD3-9939-8FDA35DE0FE8";
shapes = (
{
closed = 1;
nodes = (
(244,0,ls),
(258,0,o),
(261,4,o),
(261,18,c),
(172,34,l),
(183,22,l),
(183,307,l),
(173,307,l),
(198,299,o),
(240,295,o),
(273,295,cs),
(424,295,o),
(506,391,o),
(506,485,cs),
(506,565,o),
(446,641,o),
(316,641,cs),
(99,641,ls),
(86,641,o),
(83,637,o),
(83,623,c),
(161,607,l),
(150,619,l),
(150,23,l),
(163,34,l),
(97,20,ls),
(86,18,o),
(81,12,o),
(81,0,c)
);
},
{
closed = 1;
nodes = (
(183,621,l),
(173,609,l),
(198,615,o),
(247,623,o),
(299,623,cs),
(400,623,o),
(465,565,o),
(465,468,cs),
(465,391,o),
(410,315,o),
(293,315,cs),
(245,315,o),
(194,320,o),
(173,329,c),
(183,315,l)
);
},
{
closed = 1;
nodes = (
(594,-10,o),
(603,2,o),
(603,11,c),
(546,32,o),
(434,157,o),
(334,313,c),
(313,303,l),
(406,140,o),
(537,-10,o),
(578,-10,cs)
);
}
);
width = 626;
},
{
anchors = (
{
name = bottom;
pos = (344,0);
},
{
name = top;
pos = (319,641);
}
);
background = {
shapes = (
{
closed = 1;
nodes = (
(343,0,l),
(358,25,o),
(363,46,o),
(363,76,c),
(251,100,l),
(293,57,l),
(293,262,l),
(264,262,l),
(303,249,o),
(340,243,o),
(374,243,cs),
(508,243,o),
(608,336,o),
(608,459,cs),
(608,570,o),
(525,641,o),
(398,641,cs),
(59,641,l),
(44,617,o),
(38,594,o),
(38,565,c),
(129,541,l),
(107,566,l),
(107,70,l),
(128,96,l),
(54,69,ls),
(44,65,o),
(38,39,o),
(38,0,c)
);
},
{
closed = 1;
nodes = (
(293,549,l),
(270,531,l),
(299,538,o),
(315,541,o),
(330,541,cs),
(388,541,o),
(415,514,o),
(415,452,cs),
(415,384,o),
(385,347,o),
(331,347,cs),
(311,347,o),
(284,353,o),
(268,360,c),
(293,335,l)
);
},
{
closed = 1;
nodes = (
(340,293,l),
(402,67,o),
(453,-12,o),
(538,-12,cs),
(577,-12,o),
(626,5,o),
(670,33,c),
(613,93,o),
(542,211,o),
(486,337,c)
);
}
);
};
guides = (
{
angle = 101.5442;
pos = (608,459);
}
);
layerId = "7B53E429-1BF0-49C5-9F57-63EEBF39C6CC";
shapes = (
{
closed = 1;
nodes = (
(343,0,l),
(358,25,o),
(363,46,o),
(363,76,c),
(251,100,l),
(293,57,l),
(293,262,l),
(264,262,l),
(303,249,o),
(340,243,o),
(374,243,cs),
(508,243,o),
(608,336,o),
(608,459,cs),
(608,570,o),
(525,641,o),
(398,641,cs),
(59,641,l),
(44,617,o),
(38,594,o),
(38,565,c),
(129,541,l),
(107,566,l),
(107,70,l),
(128,96,l),
(54,69,ls),
(44,65,o),
(38,39,o),
(38,0,c)
);
},
{
closed = 1;
nodes = (
(293,549,l),
(270,531,l),
(299,538,o),
(315,541,o),
(330,541,cs),
(388,541,o),
(415,514,o),
(415,452,cs),
(415,384,o),
(385,347,o),
(331,347,cs),
(311,347,o),
(284,353,o),
(268,360,c),
(293,335,l)
);
},
{
closed = 1;
nodes = (
(602,-12,o),
(651,5,o),
(695,33,c),
(619,93,o),
(544,207,o),
(491,337,c),
(345,293,l),
(413,28,o),
(469,-12,o),
(563,-12,cs)
);
}
);
width = 706;
},
{
anchors = (
{
name = bottom;
pos = (325,0);
},
{
name = top;
pos = (307,641);
}
);
layerId = "649F6AC0-C354-445A-B217-A871C51F37B2";
shapes = (
{
closed = 1;
nodes = (
(276,0,ls),
(291,8,o),
(294,17,o),
(294,37,c),
(197,56,l),
(219,33,l),
(219,293,l),
(202,293,l),
(232,283,o),
(273,279,o),
(306,279,cs),
(451,279,o),
(539,374,o),
(539,476,cs),
(539,566,o),
(471,641,o),
(342,641,cs),
(86,641,ls),
(73,633,o),
(69,623,o),
(69,604,c),
(150,585,l),
(136,602,l),
(136,38,l),
(152,54,l),
(83,36,ls),
(73,33,o),
(67,21,o),
(67,0,c)
);
},
{
closed = 1;
nodes = (
(219,598,l),
(205,584,l),
(231,590,o),
(269,597,o),
(309,597,cs),
(396,597,o),
(449,549,o),
(449,463,cs),
(449,389,o),
(402,326,o),
(305,326,cs),
(267,326,o),
(223,331,o),
(204,339,c),
(219,322,l)
);
},
{
closed = 1;
nodes = (
(596,-11,o),
(618,3,o),
(633,19,c),
(570,52,o),
(470,173,o),
(385,321,c),
(324,300,l),
(408,104,o),
(515,-11,o),
(574,-11,cs)
);
}
);
width = 651.94594;
}
);
metricLeft = H;
metricRight = "=H*.3";
unicode = 82;
},
{
color = 4;
glyphname = S;
kernLeft = S;
kernRight = S;
layers = (
{
anchors = (
{
name = bottom;
pos = (262,0);
},
{
name = top;
pos = (262,641);
}
);
layerId = "E1BF09ED-4302-4AD3-9939-8FDA35DE0FE8";
shapes = (
{
closed = 1;
nodes = (
(377,-12,o),
(457,62,o),
(457,169,cs),
(457,248,o),
(414,294,o),
(290,347,cs),
(159,403,o),
(120,441,o),
(120,512,cs),
(120,587,o),
(174,637,o),
(257,637,cs),
(310,637,o),
(368,617,o),
(400,588,c),
(388,611,l),
(396,519,ls),
(397,511,o),
(405,504,o),
(415,504,c),
(427,607,ls),
(428,611,o),
(426,615,o),
(421,617,cs),
(359,643,o),
(307,655,o),
(263,655,cs),
(159,655,o),
(90,592,o),
(90,497,cs),
(90,418,o),
(133,373,o),
(258,318,cs),
(383,264,o),
(420,227,o),
(420,156,cs),
(420,69,o),
(356,7,o),
(267,7,cs),
(213,7,o),
(134,30,o),
(93,58,c),
(108,17,l),
(103,159,l),
(100,161,o),
(94,162,o),
(90,162,cs),
(83,162,o),
(80,158,o),
(77,147,c),
(68,42,ls),
(68,38,o),
(69,34,o),
(73,32,cs),
(135,6,o),
(212,-12,o),
(261,-12,cs)
);
}
);
width = 523;
},
{
anchors = (
{
name = bottom;
pos = (293,0);
},
{
name = top;
pos = (293,641);
}
);
background = {
shapes = (
{
closed = 1;
nodes = (
(438,-12,o),
(536,75,o),
(536,208,cs),
(536,309,o),
(482,354,o),
(318,424,cs),
(237,458,o),
(214,474,o),
(214,506,cs),
(214,539,o),
(244,558,o),
(295,558,cs),
(353,558,o),
(401,538,o),
(423,503,c),
(401,540,l),
(415,455,ls),
(417,442,o),
(443,434,o),
(488,434,c),
(508,604,l),
(461,632,o),
(370,655,o),
(304,655,cs),
(166,655,o),
(75,575,o),
(75,454,cs),
(75,362,o),
(123,312,o),
(274,248,cs),
(359,211,o),
(384,189,o),
(384,150,cs),
(384,109,o),
(350,85,o),
(293,85,cs),
(243,85,o),
(198,104,o),
(161,140,c),
(176,106,l),
(163,246,l),
(154,249,o),
(144,251,o),
(134,251,cs),
(117,251,o),
(96,245,o),
(81,235,c),
(47,45,l),
(109,13,o),
(216,-12,o),
(289,-12,cs)
);
}
);
};
guides = (
{
angle = 154.9037;
pos = (342,407);
}
);
layerId = "7B53E429-1BF0-49C5-9F57-63EEBF39C6CC";
shapes = (
{
closed = 1;
nodes = (
(446,-12,o),
(536,61,o),
(536,184,cs),
(536,284,o),
(489,339,o),
(342,407,cs),
(245,453,o),
(224,469,o),
(224,501,cs),
(224,537,o),
(255,558,o),
(307,558,cs),
(363,558,o),
(411,537,o),
(433,503,c),
(396,570,l),
(415,455,ls),
(417,442,o),
(445,434,o),
(488,434,c),
(506,584,ls),
(508,597,o),
(503,607,o),
(490,613,cs),
(438,638,o),
(362,655,o),
(298,655,cs),
(161,655,o),
(75,583,o),
(75,470,cs),
(75,367,o),
(120,309,o),
(249,248,cs),
(356,199,o),
(374,183,o),
(374,145,cs),
(374,110,o),
(338,85,o),
(288,85,cs),
(237,85,o),
(189,104,o),
(151,140,c),
(176,106,l),
(163,237,l),
(156,240,o),
(146,241,o),
(134,241,cs),
(115,241,o),
(94,236,o),
(82,229,c),
(51,66,ls),
(48,52,o),
(53,42,o),
(66,36,cs),
(128,8,o),
(221,-12,o),
(295,-12,cs)
);
}
);
width = 586;
},
{
anchors = (
{
name = bottom;
pos = (272,0);
},
{
name = top;
pos = (272,641);
}
);
layerId = "649F6AC0-C354-445A-B217-A871C51F37B2";
shapes = (
{
closed = 1;
nodes = (
(400,-12,o),
(482,62,o),
(482,173,cs),
(482,260,o),
(438,308,o),
(306,367,cs),
(187,419,o),
(154,450,o),
(154,509,cs),
(154,571,o),
(200,612,o),
(273,612,cs),
(327,612,o),
(382,591,o),
(411,561,c),
(390,598,l),
(403,498,ls),
(404,488,o),
(418,481,o),
(439,481,c),
(452,597,ls),
(453,607,o),
(450,613,o),
(441,617,cs),
(385,642,o),
(325,655,o),
(274,655,cs),
(160,655,o),
(86,589,o),
(86,488,cs),
(86,402,o),
(129,352,o),
(255,295,cs),
(374,243,o),
(405,213,o),
(405,153,cs),
(405,82,o),
(351,32,o),
(274,32,cs),
(221,32,o),
(152,54,o),
(112,84,c),
(130,45,l),
(123,184,l),
(119,186,o),
(110,187,o),
(104,187,cs),
(94,187,o),
(84,183,o),
(78,173,c),
(62,52,ls),
(61,42,o),
(64,36,o),
(73,32,cs),
(134,5,o),
(215,-12,o),
(272,-12,cs)
);
}
);
width = 543;
}
);
unicode = 83;
},
{
color = 4;
glyphname = Germandbls;
layers = (
{
layerId = "E1BF09ED-4302-4AD3-9939-8FDA35DE0FE8";
shapes = (
{
closed = 1;
nodes = (
(544,-12,o),
(610,44,o),
(610,121,cs),
(610,182,o),
(573,219,o),
(469,260,cs),
(389,292,o),
(363,318,o),
(363,364,c),
(543,501,l),
(543,589,o),
(472,655,o),
(377,655,cs),
(244,655,o),
(163,573,o),
(163,437,c),
(172,445,l),
(90,443,l),
(83,437,o),
(81,432,o),
(81,421,c),
(171,420,l),
(163,427,l),
(163,22,l),
(174,34,l),
(117,20,ls),
(105,17,o),
(101,11,o),
(101,0,c),
(188,0,ls),
(193,0,o),
(196,2,o),
(196,8,cs),
(195,389,ls),
(195,559,o),
(248,632,o),
(369,632,cs),
(452,632,o),
(506,581,o),
(506,501,c),
(329,351,l),
(329,300,o),
(367,262,o),
(450,230,cs),
(545,194,o),
(575,164,o),
(575,106,cs),
(575,42,o),
(533,4,o),
(462,4,cs),
(391,4,o),
(353,43,o),
(353,116,c),
(348,124,o),
(341,128,o),
(332,128,cs),
(318,128,o),
(309,115,o),
(309,94,cs),
(309,34,o),
(373,-12,o),
(454,-12,cs)
);
}
);
width = 645;
},
{
background = {
shapes = (
{
closed = 0;
nodes = (
(406,723,ls)
);
}
);
};
guides = (
{
angle = 76.6755;
pos = (397,617);
}
);
layerId = "7B53E429-1BF0-49C5-9F57-63EEBF39C6CC";
shapes = (
{
closed = 1;
nodes = (
(651,-12,o),
(738,46,o),
(738,144,cs),
(738,218,o),
(691,261,o),
(570,301,cs),
(482,330,o),
(463,342,o),
(463,367,c),
(640,496,l),
(640,592,o),
(548,655,o),
(406,655,cs),
(230,655,o),
(100,554,o),
(100,418,c),
(134,446,l),
(60,442,l),
(48,434,o),
(39,399,o),
(39,362,c),
(127,359,l),
(100,385,l),
(100,80,l),
(111,97,l),
(54,69,ls),
(43,64,o),
(38,42,o),
(38,0,c),
(258,0,ls),
(273,0,o),
(282,9,o),
(282,24,cs),
(282,363,ls),
(282,524,o),
(309,579,o),
(388,579,cs),
(442,579,o),
(473,542,o),
(473,478,c),
(317,313,l),
(317,240,o),
(361,197,o),
(478,157,cs),
(563,128,o),
(581,116,o),
(581,91,cs),
(581,67,o),
(557,49,o),
(525,49,cs),
(476,49,o),
(455,77,o),
(455,144,c),
(438,156,o),
(411,164,o),
(386,164,cs),
(339,164,o),
(307,137,o),
(307,97,cs),
(307,33,o),
(389,-12,o),
(505,-12,cs)
);
}
);
width = 773;
},
{
layerId = "649F6AC0-C354-445A-B217-A871C51F37B2";
shapes = (
{
closed = 1;
nodes = (
(578,-12,o),
(651,45,o),
(651,129,cs),
(651,194,o),
(610,232,o),
(501,273,cs),
(419,304,o),
(395,326,o),
(395,365,c),
(574,500,l),
(574,590,o),
(496,655,o),
(386,655,cs),
(239,655,o),
(141,567,o),
(141,431,c),
(159,445,l),
(79,443,l),
(71,436,o),
(67,421,o),
(67,401,c),
(156,400,l),
(141,414,l),
(141,41,l),
(152,55,l),
(95,36,ls),
(84,32,o),
(79,21,o),
(79,0,c),
(207,0,ls),
(217,0,o),
(223,5,o),
(223,16,cs),
(222,380,ls),
(222,548,o),
(267,615,o),
(375,615,cs),
(448,615,o),
(494,568,o),
(494,493,c),
(324,339,l),
(324,280,o),
(364,241,o),
(458,206,cs),
(550,172,o),
(576,149,o),
(576,102,cs),
(576,50,o),
(540,18,o),
(482,18,cs),
(417,18,o),
(385,54,o),
(385,125,c),
(376,135,o),
(363,140,o),
(349,140,cs),
(324,140,o),
(307,123,o),
(307,95,cs),
(307,34,o),
(377,-12,o),
(469,-12,cs)
);
}
);
width = 685;
}
);
metricLeft = H;
metricRight = s;
unicode = 7838;
},
{
color = 4;
glyphname = T;
kernLeft = T;
kernRight = T;
layers = (
{
anchors = (
{
name = bottom;
pos = (301,0);
},
{
name = center;
pos = (301,321);
},
{
name = top;
pos = (301,641);
}
);
layerId = "E1BF09ED-4302-4AD3-9939-8FDA35DE0FE8";
shapes = (
{
closed = 1;
nodes = (
(390,0,ls),
(404,0,o),
(407,4,o),
(407,18,c),
(306,34,l),
(317,22,l),
(317,625,l),
(306,612,l),
(534,625,l),
(520,634,l),
(542,543,ls),
(545,531,o),
(553,527,o),
(562,527,c),
(562,633,ls),
(562,638,o),
(559,641,o),
(554,641,cs),
(47,641,ls),
(42,641,o),
(39,638,o),
(39,633,cs),
(39,527,l),
(48,527,o),
(56,531,o),
(59,543,cs),
(81,634,l),
(67,625,l),
(295,612,l),
(284,625,l),
(284,23,l),
(297,34,l),
(223,20,ls),
(212,18,o),
(207,12,o),
(207,0,c)
);
}
);
width = 601;
},
{
anchors = (
{
name = bottom;
pos = (335,0);
},
{
name = center;
pos = (335,321);
},
{
name = top;
pos = (335,641);
}
);
layerId = "7B53E429-1BF0-49C5-9F57-63EEBF39C6CC";
shapes = (
{
closed = 1;
nodes = (
(521,0,l),
(537,29,o),
(541,50,o),
(541,76,c),
(399,106,l),
(428,75,l),
(428,544,l),
(417,531,l),
(544,549,l),
(530,558,l),
(559,478,ls),
(563,466,o),
(579,458,o),
(629,458,c),
(629,617,ls),
(629,632,o),
(620,641,o),
(605,641,cs),
(65,641,ls),
(50,641,o),
(41,632,o),
(41,617,cs),
(41,458,l),
(91,458,o),
(107,466,o),
(111,478,cs),
(140,558,l),
(126,549,l),
(253,531,l),
(242,544,l),
(242,70,l),
(263,107,l),
(159,69,ls),
(149,65,o),
(143,39,o),
(143,0,c)
);
}
);
width = 670;
},
{
anchors = (
{
name = bottom;
pos = (312,0);
},
{
name = center;
pos = (312,321);
},
{
name = top;
pos = (312,641);
}
);
layerId = "649F6AC0-C354-445A-B217-A871C51F37B2";
shapes = (
{
closed = 1;
nodes = (
(433,0,l),
(448,10,o),
(451,19,o),
(451,37,c),
(337,57,l),
(353,39,l),
(353,599,l),
(342,586,l),
(537,600,l),
(523,609,l),
(547,522,ls),
(551,510,o),
(562,504,o),
(584,504,c),
(584,625,ls),
(584,635,o),
(578,641,o),
(568,641,cs),
(56,641,ls),
(46,641,o),
(40,635,o),
(40,625,cs),
(40,504,l),
(62,504,o),
(72,510,o),
(75,522,cs),
(101,609,l),
(87,600,l),
(282,586,l),
(271,599,l),
(271,38,l),
(286,58,l),
(202,36,ls),
(191,33,o),
(186,21,o),
(186,0,c)
);
}
);
width = 623;
}
);
unicode = 84;
},
{
color = 4;
glyphname = U;
kernLeft = U;
kernRight = U;
layers = (
{
anchors = (
{
name = bottom;
pos = (356,0);
},
{
name = ogonek;
pos = (444,0);
},
{
name = top;
pos = (356,641);
},
{
name = topright;
pos = (561,641);
}
);
layerId = "E1BF09ED-4302-4AD3-9939-8FDA35DE0FE8";
shapes = (
{
closed = 1;
nodes = (
(510,-12,o),
(581,75,o),
(581,214,cs),
(581,624,l),
(577,611,l),
(623,621,ls),
(634,623,o),
(639,629,o),
(639,641,c),
(516,641,l),
(502,641,o),
(499,637,o),
(499,623,c),
(566,610,l),
(561,619,l),
(561,206,ls),
(561,56,o),
(467,7,o),
(355,7,cs),
(257,7,o),
(149,67,o),
(149,204,cs),
(149,619,l),
(139,607,l),
(203,621,ls),
(214,623,o),
(219,629,o),
(219,641,c),
(66,641,ls),
(52,641,o),
(49,637,o),
(49,623,c),
(130,607,l),
(116,618,l),
(116,211,ls),
(116,77,o),
(188,-12,o),
(355,-12,cs)
);
}
);
width = 685;
},
{
anchors = (
{
name = bottom;
pos = (402,0);
},
{
name = ogonek;
pos = (482,0);
},
{
name = top;
pos = (402,641);
},
{
name = topright;
pos = (538,641);
}
);
layerId = "7B53E429-1BF0-49C5-9F57-63EEBF39C6CC";
shapes = (
{
closed = 1;
nodes = (
(566,-12,o),
(644,105,o),
(644,214,cs),
(644,589,l),
(625,545,l),
(712,572,ls),
(722,575,o),
(728,603,o),
(728,641,c),
(470,641,l),
(454,614,o),
(450,591,o),
(450,565,c),
(556,538,l),
(544,584,l),
(544,256,ls),
(544,147,o),
(516,87,o),
(395,87,cs),
(294,87,o),
(277,138,o),
(277,254,cs),
(277,571,l),
(247,545,l),
(332,572,ls),
(342,575,o),
(348,602,o),
(348,641,c),
(45,641,l),
(28,614,o),
(23,591,o),
(23,565,c),
(114,541,l),
(91,566,l),
(91,211,ls),
(91,77,o),
(169,-12,o),
(394,-12,cs)
);
}
);
width = 750;
},
{
anchors = (
{
name = bottom;
pos = (371,0);
},
{
name = ogonek;
pos = (456,0);
},
{
name = top;
pos = (371,641);
},
{
name = topright;
pos = (553,641);
}
);
layerId = "649F6AC0-C354-445A-B217-A871C51F37B2";
shapes = (
{
closed = 1;
nodes = (
(529,-12,o),
(602,85,o),
(602,214,cs),
(602,613,l),
(592,589,l),
(651,605,ls),
(662,608,o),
(667,620,o),
(667,641,c),
(501,641,l),
(487,632,o),
(483,622,o),
(483,604,c),
(563,587,l),
(556,608,l),
(556,222,ls),
(556,85,o),
(483,33,o),
(368,33,cs),
(269,33,o),
(190,90,o),
(190,220,cs),
(190,604,l),
(174,587,l),
(245,605,ls),
(255,608,o),
(261,620,o),
(261,641,c),
(59,641,ls),
(44,632,o),
(40,622,o),
(40,604,c),
(125,585,l),
(108,602,l),
(108,211,ls),
(108,77,o),
(182,-12,o),
(368,-12,cs)
);
}
);
width = 705;
}
);
metricLeft = "=H*.6";
metricRight = "=H*.6";
unicode = 85;
},
{
color = 4;
glyphname = V;
kernLeft = V;
kernRight = V;
layers = (
{
layerId = "E1BF09ED-4302-4AD3-9939-8FDA35DE0FE8";
shapes = (
{
closed = 1;
nodes = (
(320,-12,o),
(326,-6,o),
(332,11,cs),
(534,625,l),
(526,611,l),
(572,621,ls),
(583,623,o),
(588,629,o),
(588,641,c),
(465,641,ls),
(451,641,o),
(448,637,o),
(448,623,c),
(515,610,l),
(512,621,l),
(306,-5,l),
(318,-5,l),
(103,618,l),
(94,607,l),
(158,621,ls),
(169,623,o),
(174,629,o),
(174,641,c),
(21,641,ls),
(7,641,o),
(4,637,o),
(4,623,c),
(85,607,l),
(68,618,l),
(283,-6,l),
(288,-9,o),
(300,-12,o),
(307,-12,cs)
);
}
);
width = 592;
},
{
guides = (
{
angle = 111.1613;
pos = (245,589);
},
{
angle = 249.9547;
pos = (461,362);
}
);
layerId = "7B53E429-1BF0-49C5-9F57-63EEBF39C6CC";
shapes = (
{
closed = 1;
nodes = (
(373,-12,o),
(434,-4,o),
(445,25,cs),
(654,589,l),
(616,545,l),
(706,572,ls),
(716,575,o),
(722,602,o),
(722,641,c),
(459,641,l),
(443,614,o),
(439,591,o),
(439,565,c),
(550,541,l),
(545,584,l),
(381,140,l),
(413,140,l),
(239,589,l),
(220,545,l),
(305,572,ls),
(315,575,o),
(321,602,o),
(321,641,c),
(24,641,l),
(7,614,o),
(2,591,o),
(2,565,c),
(93,541,l),
(48,584,l),
(276,-5,l),
(295,-9,o),
(332,-12,o),
(349,-12,cs)
);
}
);
width = 724;
},
{
layerId = "649F6AC0-C354-445A-B217-A871C51F37B2";
shapes = (
{
closed = 1;
nodes = (
(337,-12,o),
(361,-5,o),
(369,15,cs),
(573,613,l),
(555,589,l),
(616,605,ls),
(627,608,o),
(632,620,o),
(632,641,c),
(463,641,ls),
(449,632,o),
(445,622,o),
(445,604,c),
(526,587,l),
(523,609,l),
(330,42,l),
(349,42,l),
(147,608,l),
(134,587,l),
(206,605,ls),
(216,608,o),
(222,620,o),
(222,641,c),
(22,641,ls),
(7,632,o),
(3,622,o),
(3,604,c),
(87,585,l),
(61,607,l),
(281,-6,l),
(290,-9,o),
(311,-12,o),
(320,-12,cs)
);
}
);
width = 634.81081;
}
);
metricLeft = "=H*.05";
metricRight = "=H*.05";
unicode = 86;
},
{
color = 4;
glyphname = W;
kernLeft = V;
kernRight = V;
layers = (
{
anchors = (
{
name = bottom;
pos = (467,0);
},
{
name = top;
pos = (467,641);
}
);
layerId = "E1BF09ED-4302-4AD3-9939-8FDA35DE0FE8";
shapes = (
{
closed = 1;
nodes = (
(316,-12,o),
(322,-6,o),
(328,11,c),
(469,490,l),
(457,490,l),
(611,-6,l),
(616,-9,o),
(628,-12,o),
(635,-12,cs),
(648,-12,o),
(654,-6,o),
(660,11,cs),
(847,625,l),
(839,611,l),
(885,621,ls),
(896,623,o),
(901,629,o),
(901,641,c),
(778,641,ls),
(764,641,o),
(761,637,o),
(761,623,c),
(828,610,l),
(825,621,l),
(636,1,l),
(643,1,l),
(472,552,l),
(467,552,l),
(304,1,l),
(312,1,l),
(101,626,l),
(94,608,l),
(158,622,ls),
(169,624,o),
(174,630,o),
(174,642,c),
(21,642,ls),
(7,642,o),
(4,638,o),
(4,624,c),
(85,608,l),
(68,621,l),
(279,-6,l),
(284,-9,o),
(296,-12,o),
(303,-12,cs)
);
}
);
width = 905;
},
{
anchors = (
{
name = bottom;
pos = (537,0);
},
{
name = top;
pos = (537,641);
}
);
guides = (
{
angle = 111.4424;
pos = (744,170);
}
);
layerId = "7B53E429-1BF0-49C5-9F57-63EEBF39C6CC";
shapes = (
{
closed = 1;
nodes = (
(334,-12,o),
(397,-4,o),
(406,25,cs),
(521,386,l),
(466,386,l),
(610,-5,l),
(629,-9,o),
(666,-12,o),
(683,-12,cs),
(707,-12,o),
(770,-4,o),
(779,25,cs),
(949,589,l),
(911,545,l),
(1001,572,ls),
(1011,575,o),
(1017,602,o),
(1017,641,c),
(751,641,l),
(735,614,o),
(731,591,o),
(731,565,c),
(842,541,l),
(843,584,l),
(718,170,l),
(737,170,l),
(586,579,l),
(477,579,l),
(347,170,l),
(370,170,l),
(236,589,l),
(221,545,l),
(306,572,ls),
(316,575,o),
(322,602,o),
(322,641,c),
(24,641,l),
(7,614,o),
(2,591,o),
(2,565,c),
(93,541,l),
(48,584,l),
(237,-5,l),
(256,-9,o),
(293,-12,o),
(310,-12,cs)
);
}
);
width = 1019;
},
{
anchors = (
{
name = bottom;
pos = (490,0);
},
{
name = top;
pos = (490,641);
}
);
layerId = "649F6AC0-C354-445A-B217-A871C51F37B2";
shapes = (
{
closed = 1;
nodes = (
(322,-12,o),
(346,-5,o),
(353,15,c),
(485,456,l),
(460,456,l),
(611,-6,l),
(620,-9,o),
(640,-12,o),
(650,-12,cs),
(668,-12,o),
(691,-5,o),
(698,15,cs),
(880,613,l),
(862,589,l),
(922,605,ls),
(933,608,o),
(938,620,o),
(938,641,c),
(769,641,ls),
(754,632,o),
(751,622,o),
(751,604,c),
(832,587,l),
(831,609,l),
(662,56,l),
(674,56,l),
(509,561,l),
(470,561,l),
(318,56,l),
(331,56,l),
(145,614,l),
(135,587,l),
(206,606,ls),
(217,608,o),
(222,621,o),
(222,642,c),
(22,642,ls),
(7,633,o),
(3,623,o),
(3,604,c),
(87,586,l),
(61,609,l),
(266,-6,l),
(275,-9,o),
(295,-12,o),
(305,-12,cs)
);
}
);
width = 941.11538;
}
);
metricLeft = V;
metricRight = V;
unicode = 87;
},
{
color = 4;
glyphname = X;
kernLeft = X;
kernRight = X;
layers = (
{
anchors = (
{
name = bottom;
pos = (317,0);
},
{
name = top;
pos = (317,641);
}
);
layerId = "E1BF09ED-4302-4AD3-9939-8FDA35DE0FE8";
shapes = (
{
closed = 1;
nodes = (
(576,0,ls),
(590,0,o),
(593,4,o),
(593,18,c),
(507,34,l),
(526,22,l),
(158,621,l),
(147,607,l),
(216,621,ls),
(227,623,o),
(232,629,o),
(232,641,c),
(69,641,ls),
(55,641,o),
(52,637,o),
(52,623,c),
(138,607,l),
(122,616,l),
(490,17,l),
(498,34,l),
(429,20,ls),
(418,18,o),
(413,12,o),
(413,0,c)
);
},
{
closed = 1;
nodes = (
(175,0,ls),
(189,0,o),
(192,4,o),
(192,18,c),
(123,31,l),
(125,23,l),
(326,331,l),
(310,343,l),
(98,18,l),
(114,30,l),
(58,20,ls),
(47,18,o),
(42,12,o),
(42,0,c)
);
},
{
closed = 1;
nodes = (
(526,627,l),
(509,611,l),
(565,621,ls),
(576,623,o),
(581,629,o),
(581,641,c),
(448,641,ls),
(434,641,o),
(431,637,o),
(431,623,c),
(500,610,l),
(499,622,l),
(313,332,l),
(330,321,l)
);
}
);
width = 634;
},
{
anchors = (
{
name = bottom;
pos = (343,0);
},
{
name = top;
pos = (343,641);
}
);
guides = (
{
angle = 232.2998;
pos = (324,366);
}
);
layerId = "7B53E429-1BF0-49C5-9F57-63EEBF39C6CC";
shapes = (
{
closed = 1;
nodes = (
(662,1,l),
(679,28,o),
(684,51,o),
(684,77,c),
(593,101,l),
(642,57,l),
(263,589,l),
(237,545,l),
(322,572,ls),
(332,575,o),
(338,602,o),
(338,641,c),
(35,641,l),
(18,614,o),
(13,591,o),
(13,565,c),
(104,541,l),
(45,584,l),
(425,52,l),
(460,97,l),
(375,70,ls),
(365,67,o),
(359,40,o),
(359,1,c)
);
},
{
closed = 1;
nodes = (
(269,1,l),
(285,28,o),
(289,51,o),
(289,77,c),
(173,101,l),
(183,58,l),
(352,276,l),
(264,326,l),
(53,53,l),
(113,99,l),
(19,70,ls),
(9,67,o),
(3,40,o),
(3,1,c)
);
},
{
closed = 1;
nodes = (
(625,589,l),
(565,543,l),
(659,572,ls),
(669,575,o),
(675,602,o),
(675,641,c),
(409,641,l),
(393,614,o),
(389,591,o),
(389,565,c),
(505,541,l),
(495,584,l),
(326,366,l),
(414,316,l)
);
}
);
width = 686;
},
{
anchors = (
{
name = bottom;
pos = (326,0);
},
{
name = top;
pos = (326,641);
}
);
layerId = "649F6AC0-C354-445A-B217-A871C51F37B2";
shapes = (
{
closed = 1;
nodes = (
(604,0,ls),
(618,9,o),
(622,19,o),
(622,38,c),
(535,56,l),
(563,33,l),
(192,610,l),
(176,587,l),
(251,605,ls),
(261,608,o),
(267,620,o),
(267,641,c),
(58,641,ls),
(43,632,o),
(39,622,o),
(39,604,c),
(127,585,l),
(97,605,l),
(469,28,l),
(486,55,l),
(412,36,ls),
(401,34,o),
(396,21,o),
(396,0,c)
);
},
{
closed = 1;
nodes = (
(206,0,ls),
(221,9,o),
(224,19,o),
(224,38,c),
(139,54,l),
(144,34,l),
(335,314,l),
(295,338,l),
(84,29,l),
(114,53,l),
(45,36,ls),
(35,34,o),
(29,21,o),
(29,0,c)
);
},
{
closed = 1;
nodes = (
(558,615,l),
(528,589,l),
(596,605,ls),
(607,608,o),
(612,620,o),
(612,641,c),
(435,641,ls),
(421,632,o),
(418,622,o),
(418,604,c),
(501,587,l),
(498,610,l),
(317,343,l),
(357,320,l)
);
}
);
width = 650.86487;
}
);
unicode = 88;
},
{
color = 4;
glyphname = Y;
kernLeft = Y;
kernRight = Y;
layers = (
{
anchors = (
{
name = bottom;
pos = (297,0);
},
{
name = top;
pos = (297,641);
},
{
name = topleft;
pos = (21,641);
}
);
layerId = "E1BF09ED-4302-4AD3-9939-8FDA35DE0FE8";
shapes = (
{
closed = 1;
nodes = (
(500,622,l),
(490,611,l),
(545,621,ls),
(556,623,o),
(561,629,o),
(561,641,c),
(428,641,l),
(414,641,o),
(411,637,o),
(411,623,c),
(480,610,l),
(475,617,l),
(293,268,l),
(313,272,l),
(101,621,l),
(92,607,l),
(164,621,ls),
(175,623,o),
(180,629,o),
(180,641,c),
(21,641,l),
(7,641,o),
(4,637,o),
(4,623,c),
(83,607,l),
(65,616,l),
(298,234,l)
);
},
{
closed = 1;
nodes = (
(376,0,ls),
(390,0,o),
(393,4,o),
(393,18,c),
(302,34,l),
(313,17,l),
(313,275,l),
(280,275,l),
(280,12,l),
(293,34,l),
(219,20,ls),
(208,18,o),
(203,12,o),
(203,0,c)
);
}
);
width = 565;
},
{
anchors = (
{
name = bottom;
pos = (346,0);
},
{
name = top;
pos = (374,641);
},
{
name = topleft;
pos = (24,641);
}
);
guides = (
{
angle = 63.392;
pos = (359,304);
},
{
pos = (170,366);
}
);
layerId = "7B53E429-1BF0-49C5-9F57-63EEBF39C6CC";
shapes = (
{
closed = 1;
nodes = (
(621,589,l),
(583,545,l),
(673,572,ls),
(683,575,o),
(689,602,o),
(689,641,c),
(430,641,l),
(414,614,o),
(410,591,o),
(410,565,c),
(521,541,l),
(506,584,l),
(366,304,l),
(416,304,l),
(249,589,l),
(226,545,l),
(311,572,ls),
(321,575,o),
(327,602,o),
(327,641,c),
(24,641,l),
(7,614,o),
(2,591,o),
(2,565,c),
(93,541,l),
(43,584,l),
(354,56,l)
);
},
{
closed = 1;
nodes = (
(489,0,l),
(505,29,o),
(509,50,o),
(509,76,c),
(407,100,l),
(439,75,l),
(439,275,l),
(253,275,l),
(253,70,l),
(274,96,l),
(200,69,ls),
(190,65,o),
(184,39,o),
(184,0,c)
);
}
);
width = 691;
},
{
anchors = (
{
name = bottom;
pos = (313,0);
},
{
name = top;
pos = (322,641);
},
{
name = topleft;
pos = (22,641);
}
);
layerId = "649F6AC0-C354-445A-B217-A871C51F37B2";
shapes = (
{
closed = 1;
nodes = (
(539,611,l),
(521,589,l),
(586,605,ls),
(597,608,o),
(602,620,o),
(602,641,c),
(429,641,l),
(414,632,o),
(411,622,o),
(411,604,c),
(493,587,l),
(485,606,l),
(317,280,l),
(347,283,l),
(149,610,l),
(136,587,l),
(212,605,ls),
(222,608,o),
(228,620,o),
(228,641,c),
(22,641,l),
(7,632,o),
(3,622,o),
(3,604,c),
(86,585,l),
(57,605,l),
(317,176,l)
);
},
{
closed = 1;
nodes = (
(413,0,ls),
(427,10,o),
(430,19,o),
(430,37,c),
(336,56,l),
(353,36,l),
(353,275,l),
(271,275,l),
(271,31,l),
(287,54,l),
(213,36,ls),
(203,33,o),
(197,21,o),
(197,0,c)
);
}
);
width = 605;
}
);
metricLeft = V;
metricRight = V;
unicode = 89;
},
{
color = 4;
glyphname = Z;
kernLeft = Z;
kernRight = Z;
layers = (
{
anchors = (
{
name = bottom;
pos = (300,0);
},
{
name = center;
pos = (300,321);
},
{
name = top;
pos = (300,641);
}
);
layerId = "E1BF09ED-4302-4AD3-9939-8FDA35DE0FE8";
shapes = (
{
closed = 1;
nodes = (
(502,0,ls),
(507,0,o),
(510,3,o),
(510,8,cs),
(510,118,ls),
(510,125,o),
(507,131,o),
(492,131,c),
(467,7,l),
(480,16,l),
(80,34,l),
(90,23,l),
(486,595,ls),
(491,602,o),
(493,608,o),
(493,615,cs),
(493,630,o),
(484,641,o),
(468,641,cs),
(85,641,ls),
(80,641,o),
(77,638,o),
(77,633,cs),
(77,517,l),
(86,517,o),
(93,521,o),
(97,533,c),
(121,634,l),
(107,625,l),
(477,612,l),
(467,625,l),
(66,46,ls),
(61,39,o),
(59,32,o),
(59,25,cs),
(59,10,o),
(68,0,o),
(85,0,cs)
);
}
);
width = 600;
},
{
anchors = (
{
name = bottom;
pos = (322,0);
},
{
name = center;
pos = (322,321);
},
{
name = top;
pos = (322,641);
}
);
layerId = "7B53E429-1BF0-49C5-9F57-63EEBF39C6CC";
shapes = (
{
closed = 1;
nodes = (
(577,0,ls),
(592,0,o),
(601,9,o),
(601,24,cs),
(601,188,l),
(574,205,o),
(551,210,o),
(525,210,c),
(491,72,l),
(534,93,l),
(267,112,l),
(266,57,l),
(576,595,ls),
(580,602,o),
(583,610,o),
(583,617,cs),
(583,632,o),
(574,641,o),
(558,641,cs),
(87,641,ls),
(72,641,o),
(63,632,o),
(63,617,cs),
(63,453,l),
(113,453,o),
(129,461,o),
(133,473,cs),
(162,558,l),
(125,548,l),
(363,530,l),
(365,589,l),
(51,46,ls),
(47,39,o),
(44,32,o),
(44,25,cs),
(44,10,o),
(53,0,o),
(70,0,cs)
);
}
);
width = 648;
},
{
anchors = (
{
name = bottom;
pos = (308,0);
},
{
name = center;
pos = (308,321);
},
{
name = top;
pos = (308,641);
}
);
layerId = "649F6AC0-C354-445A-B217-A871C51F37B2";
shapes = (
{
closed = 1;
nodes = (
(523,0,ls),
(533,0,o),
(539,6,o),
(539,16,cs),
(539,141,l),
(531,151,o),
(521,156,o),
(503,156,c),
(475,28,l),
(497,41,l),
(141,59,l),
(147,34,l),
(515,595,ls),
(519,602,o),
(522,609,o),
(522,616,cs),
(522,631,o),
(513,641,o),
(497,641,cs),
(89,641,ls),
(79,641,o),
(73,635,o),
(73,625,cs),
(73,496,l),
(95,496,o),
(105,501,o),
(109,513,cs),
(134,609,l),
(113,600,l),
(440,586,l),
(434,613,l),
(62,46,ls),
(57,39,o),
(55,32,o),
(55,25,cs),
(55,10,o),
(64,0,o),
(81,0,cs)
);
}
);
width = 616;
}
);
unicode = 90;
},
{
color = 4;
glyphname = O.OE;
kernLeft = O;
kernRight = O;
layers = (
{
anchors = (
{
name = "#exit";
pos = (371,0);
}
);
layerId = "E1BF09ED-4302-4AD3-9939-8FDA35DE0FE8";
shapes = (
{
closed = 1;
nodes = (
(387,20,l),
(213,20,o),
(110,138,o),
(110,335,cs),
(110,508,o),
(234,623,o),
(371,623,c),
(389,641,l),
(217,641,o),
(71,493,o),
(71,297,cs),
(71,130,o),
(193,0,o),
(371,0,c)
);
}
);
width = 389;
},
{
anchors = (
{
name = "#exit";
pos = (358,0);
}
);
layerId = "7B53E429-1BF0-49C5-9F57-63EEBF39C6CC";
shapes = (
{
closed = 1;
nodes = (
(374,69,l),
(282,69,o),
(221,174,o),
(221,333,cs),
(221,477,o),
(272,565,o),
(358,565,c),
(380,641,l),
(177,641,o),
(25,493,o),
(25,298,cs),
(25,121,o),
(159,0,o),
(358,0,c)
);
}
);
width = 380;
},
{
anchors = (
{
name = "#exit";
pos = (367,0);
}
);
layerId = "649F6AC0-C354-445A-B217-A871C51F37B2";
shapes = (
{
closed = 1;
nodes = (
(383,36,l),
(236,36,o),
(146,150,o),
(146,334,cs),
(146,498,o),
(246,604,o),
(367,604,c),
(386,641,l),
(204,641,o),
(56,493,o),
(56,297,cs),
(56,127,o),
(182,0,o),
(367,0,c)
);
}
);
width = 386.08108;
}
);
metricLeft = O;
},
{
color = 4;
glyphname = U.horn;
kernLeft = U;
kernRight = U;
layers = (
{
anchors = (
{
name = bottom;
pos = (356,0);
},
{
name = ogonek;
pos = (444,0);
},
{
name = top;
pos = (356,641);
},
{
name = topright;
pos = (521,641);
}
);
layerId = "E1BF09ED-4302-4AD3-9939-8FDA35DE0FE8";
shapes = (
{
closed = 1;
nodes = (
(510,-12,o),
(581,75,o),
(581,214,cs),
(581,633,ls),
(581,638,o),
(578,641,o),
(573,641,cs),
(516,641,ls),
(502,641,o),
(499,637,o),
(499,623,c),
(566,610,l),
(561,619,l),
(561,206,ls),
(561,56,o),
(467,7,o),
(355,7,cs),
(257,7,o),
(149,67,o),
(149,204,cs),
(149,619,l),
(139,607,l),
(203,621,ls),
(214,623,o),
(219,629,o),
(219,641,c),
(66,641,ls),
(52,641,o),
(49,637,o),
(49,623,c),
(130,607,l),
(116,618,l),
(116,211,ls),
(116,77,o),
(188,-12,o),
(355,-12,cs)
);
}
);
width = 685;
},
{
anchors = (
{
name = bottom;
pos = (402,0);
},
{
name = ogonek;
pos = (482,0);
},
{
name = top;
pos = (402,641);
},
{
name = topright;
pos = (564,641);
}
);
layerId = "7B53E429-1BF0-49C5-9F57-63EEBF39C6CC";
shapes = (
{
closed = 1;
nodes = (
(566,-12,o),
(644,105,o),
(644,214,cs),
(644,617,ls),
(644,632,o),
(635,641,o),
(620,641,cs),
(470,641,l),
(454,614,o),
(450,591,o),
(450,565,c),
(556,538,l),
(544,584,l),
(544,256,ls),
(544,147,o),
(516,87,o),
(395,87,cs),
(294,87,o),
(277,138,o),
(277,254,cs),
(277,571,l),
(247,545,l),
(332,572,ls),
(342,575,o),
(348,602,o),
(348,641,c),
(45,641,l),
(28,614,o),
(23,591,o),
(23,565,c),
(114,541,l),
(91,566,l),
(91,211,ls),
(91,77,o),
(169,-12,o),
(394,-12,cs)
);
}
);
width = 750;
},
{
anchors = (
{
name = bottom;
pos = (371,0);
},
{
name = ogonek;
pos = (456,0);
},
{
name = top;
pos = (371,641);
},
{
name = topright;
pos = (535,641);
}
);
layerId = "649F6AC0-C354-445A-B217-A871C51F37B2";
shapes = (
{
closed = 1;
nodes = (
(529,-12,o),
(602,85,o),
(602,214,cs),
(602,625,ls),
(602,635,o),
(596,641,o),
(586,641,cs),
(501,641,l),
(487,632,o),
(483,622,o),
(483,604,c),
(563,587,l),
(556,608,l),
(556,222,ls),
(556,85,o),
(483,33,o),
(368,33,cs),
(269,33,o),
(190,90,o),
(190,220,cs),
(190,604,l),
(174,587,l),
(245,605,ls),
(255,608,o),
(261,620,o),
(261,641,c),
(59,641,l),
(44,632,o),
(40,622,o),
(40,604,c),
(125,585,l),
(108,602,l),
(108,211,ls),
(108,77,o),
(182,-12,o),
(368,-12,cs)
);
}
);
width = 706;
}
);
metricLeft = "=H*.6";
},
{
color = 4;
glyphname = Q.ss01;
kernLeft = O;
kernRight = Q;
layers = (
{
anchors = (
{
name = bottom;
pos = (370,0);
},
{
name = top;
pos = (370,641);
}
);
layerId = "E1BF09ED-4302-4AD3-9939-8FDA35DE0FE8";
shapes = (
{
closed = 1;
nodes = (
(924,-166,o),
(945,-151,o),
(945,-121,c),
(766,-121,o),
(525,-60,o),
(413,12,c),
(405,-5,l),
(540,-97,o),
(759,-166,o),
(885,-166,cs)
);
},
{
ref = O;
}
);
width = 739;
},
{
anchors = (
{
name = bottom;
pos = (358,0);
},
{
name = top;
pos = (358,641);
}
);
layerId = "7B53E429-1BF0-49C5-9F57-63EEBF39C6CC";
shapes = (
{
closed = 1;
nodes = (
(915,-207,o),
(981,-157,o),
(994,-73,c),
(847,-73,o),
(635,-37,o),
(435,64,c),
(390,14,l),
(613,-163,o),
(742,-207,o),
(833,-207,cs)
);
},
{
ref = O;
}
);
width = 715;
},
{
anchors = (
{
name = bottom;
pos = (366,0);
},
{
name = top;
pos = (366,641);
}
);
layerId = "649F6AC0-C354-445A-B217-A871C51F37B2";
shapes = (
{
closed = 1;
nodes = (
(921,-179,o),
(957,-153,o),
(961,-106,c),
(792,-106,o),
(561,-52,o),
(421,28,c),
(401,2,l),
(564,-119,o),
(754,-179,o),
(869,-179,cs)
);
},
{
alignment = -1;
ref = O;
}
);
width = 731.34615;
}
);
metricLeft = O;
},
{
export = 0;
glyphname = C.sup;
kernLeft = O.sup;
kernRight = C.sup;
layers = (
{
layerId = "E1BF09ED-4302-4AD3-9939-8FDA35DE0FE8";
shapes = (
{
closed = 1;
nodes = (
(227,324,o),
(265,336,o),
(297,361,cs),
(301,364,o),
(301,366,o),
(301,371,cs),
(297,424,l),
(294,429,o),
(286,431,o),
(274,431,c),
(267,366,l),
(274,381,l),
(254,355,o),
(222,344,o),
(191,344,cs),
(113,344,o),
(58,402,o),
(58,485,cs),
(58,577,o),
(111,637,o),
(193,637,cs),
(224,637,o),
(253,628,o),
(273,611,c),
(267,622,l),
(273,572,ls),
(274,567,o),
(284,563,o),
(292,563,c),
(301,626,ls),
(302,630,o),
(300,634,o),
(296,636,cs),
(270,650,o),
(239,658,o),
(207,658,cs),
(107,658,o),
(30,579,o),
(30,476,cs),
(30,386,o),
(93,324,o),
(187,324,cs)
);
}
);
userData = {
RMXScaler = {
height = 50;
verticalShift = 330;
width = 52;
};
};
width = 331;
},
{
layerId = "7B53E429-1BF0-49C5-9F57-63EEBF39C6CC";
shapes = (
{
closed = 1;
nodes = (
(246,324,o),
(283,336,o),
(313,360,cs),
(321,367,o),
(323,376,o),
(322,388,cs),
(316,447,l),
(309,451,o),
(298,453,o),
(274,453,c),
(264,375,l),
(276,400,l),
(254,378,o),
(233,368,o),
(204,368,cs),
(152,368,o),
(118,416,o),
(118,488,cs),
(118,568,o),
(149,615,o),
(203,615,cs),
(231,615,o),
(254,605,o),
(279,583,c),
(266,603,l),
(276,551,ls),
(277,546,o),
(291,542,o),
(313,540,c),
(321,612,ls),
(322,625,o),
(317,635,o),
(305,641,cs),
(277,651,o),
(241,658,o),
(203,658,cs),
(98,658,o),
(18,583,o),
(18,483,cs),
(18,385,o),
(87,324,o),
(198,324,cs)
);
}
);
userData = {
RMXScaler = {
adjustSpace = 5;
height = 50;
verticalShift = 330;
weight = -100;
width = 52;
};
};
width = 351;
},
{
layerId = "649F6AC0-C354-445A-B217-A871C51F37B2";
shapes = (
{
closed = 1;
nodes = (
(233,324,o),
(270,336,o),
(301,359,cs),
(307,364,o),
(310,370,o),
(309,378,cs),
(304,432,l),
(298,437,o),
(290,439,o),
(274,439,c),
(266,369,l),
(275,388,l),
(254,363,o),
(225,352,o),
(195,352,cs),
(126,352,o),
(78,406,o),
(78,486,cs),
(78,574,o),
(123,629,o),
(196,629,cs),
(226,629,o),
(253,620,o),
(275,602,c),
(267,616,l),
(274,565,ls),
(275,560,o),
(286,556,o),
(299,555,c),
(307,620,ls),
(308,630,o),
(305,635,o),
(297,639,cs),
(271,651,o),
(239,658,o),
(206,658,cs),
(104,658,o),
(26,580,o),
(26,478,cs),
(26,386,o),
(91,324,o),
(190,324,cs)
);
}
);
width = 337;
}
);
userData = {
RMXScaler = {
source = C;
};
};
},
{
export = 0;
glyphname = M.sup;
kernLeft = M.sup;
kernRight = M.sup;
layers = (
{
anchors = (
{
name = bottom;
pos = (231,330);
},
{
name = top;
pos = (231,651);
}
);
layerId = "E1BF09ED-4302-4AD3-9939-8FDA35DE0FE8";
shapes = (
{
closed = 1;
nodes = (
(230,329,o),
(234,332,o),
(237,340,cs),
(350,631,l),
(343,631,l),
(367,349,l),
(371,358,l),
(333,346,ls),
(327,344,o),
(325,337,o),
(325,332,c),
(433,332,ls),
(440,332,o),
(443,336,o),
(443,348,c),
(395,358,l),
(400,351,l),
(376,633,l),
(370,624,l),
(411,634,ls),
(416,635,o),
(419,642,o),
(419,651,c),
(341,651,ls),
(337,651,o),
(334,650,o),
(332,645,cs),
(228,376,l),
(237,376,l),
(130,643,ls),
(128,648,o),
(124,649,o),
(120,649,cs),
(57,649,ls),
(50,649,o),
(47,645,o),
(47,633,c),
(90,622,l),
(87,631,l),
(59,349,l),
(64,357,l),
(29,346,ls),
(23,344,o),
(21,338,o),
(21,332,c),
(115,332,ls),
(122,332,o),
(125,336,o),
(125,348,c),
(78,358,l),
(81,351,l),
(108,628,l),
(101,628,l),
(220,331,l),
(222,329,o),
(224,329,o),
(227,329,cs)
);
}
);
userData = {
RMXScaler = {
height = 50;
verticalShift = 330;
width = 52;
};
};
width = 461;
},
{
anchors = (
{
name = bottom;
pos = (242,330);
},
{
name = top;
pos = (242,651);
}
);
layerId = "7B53E429-1BF0-49C5-9F57-63EEBF39C6CC";
shapes = (
{
closed = 1;
nodes = (
(238,329,o),
(251,333,o),
(255,344,cs),
(343,603,l),
(329,603,l),
(349,368,l),
(359,380,l),
(319,363,ls),
(313,360,o),
(310,345,o),
(310,330,c),
(463,330,l),
(472,343,o),
(475,353,o),
(475,369,c),
(422,383,l),
(430,370,l),
(409,613,l),
(398,601,l),
(448,618,ls),
(454,620,o),
(456,637,o),
(456,651,c),
(328,651,ls),
(314,651,o),
(304,644,o),
(300,631,cs),
(233,433,l),
(260,433,l),
(182,632,ls),
(177,645,o),
(168,651,o),
(155,651,cs),
(43,651,l),
(35,638,o),
(32,629,o),
(32,612,c),
(83,598,l),
(77,609,l),
(54,367,l),
(63,381,l),
(19,363,ls),
(12,360,o),
(11,343,o),
(11,330,c),
(147,330,l),
(156,343,o),
(159,352,o),
(159,369,c),
(99,383,l),
(103,369,l),
(125,596,l),
(110,596,l),
(212,333,l),
(215,331,o),
(223,329,o),
(231,329,cs)
);
}
);
userData = {
RMXScaler = {
adjustSpace = 5;
height = 50;
verticalShift = 330;
weight = -100;
width = 52;
};
};
width = 485;
},
{
anchors = (
{
name = bottom;
pos = (234,330);
},
{
name = top;
pos = (234,651);
}
);
layerId = "649F6AC0-C354-445A-B217-A871C51F37B2";
shapes = (
{
closed = 1;
nodes = (
(232,329,o),
(239,332,o),
(243,341,cs),
(348,622,l),
(339,622,l),
(362,356,l),
(367,366,l),
(329,351,ls),
(323,349,o),
(321,339,o),
(321,331,c),
(443,331,l),
(451,335,o),
(454,341,o),
(454,355,c),
(404,366,l),
(410,358,l),
(387,626,l),
(379,616,l),
(423,629,ls),
(428,631,o),
(431,641,o),
(431,651,c),
(339,651,ls),
(330,651,o),
(323,646,o),
(320,638,cs),
(229,395,l),
(245,395,l),
(147,638,ls),
(144,647,o),
(138,650,o),
(129,650,cs),
(53,650,l),
(46,646,o),
(43,640,o),
(43,626,c),
(88,614,l),
(84,623,l),
(58,355,l),
(64,365,l),
(26,351,ls),
(20,349,o),
(18,339,o),
(18,331,c),
(126,331,l),
(133,335,o),
(136,341,o),
(136,355,c),
(85,366,l),
(89,357,l),
(113,617,l),
(104,617,l),
(218,332,l),
(220,330,o),
(224,329,o),
(228,329,cs)
);
}
);
width = 469;
}
);
userData = {
RMXScaler = {
source = M;
};
};
},
{
export = 0;
glyphname = R.sup;
kernLeft = H.sup;
kernRight = R.sup;
layers = (
{
layerId = "E1BF09ED-4302-4AD3-9939-8FDA35DE0FE8";
shapes = (
{
closed = 1;
nodes = (
(138,332,ls),
(145,332,o),
(148,336,o),
(148,348,c),
(95,358,l),
(100,352,l),
(100,482,l),
(95,480,l),
(106,476,o),
(128,474,o),
(147,474,cs),
(222,474,o),
(270,517,o),
(270,571,cs),
(270,616,o),
(231,651,o),
(163,649,cs),
(41,649,ls),
(34,649,o),
(31,644,o),
(31,633,c),
(75,622,l),
(70,628,l),
(70,351,l),
(76,357,l),
(39,346,ls),
(35,345,o),
(31,339,o),
(31,332,c)
);
},
{
closed = 1;
nodes = (
(100,630,l),
(95,624,l),
(110,628,o),
(135,631,o),
(154,631,cs),
(200,631,o),
(232,606,o),
(232,565,cs),
(232,521,o),
(202,492,o),
(148,492,cs),
(130,492,o),
(104,494,o),
(95,498,c),
(100,491,l)
);
},
{
closed = 1;
nodes = (
(307,324,o),
(316,331,o),
(320,336,c),
(282,358,o),
(231,418,o),
(188,491,c),
(163,482,l),
(217,375,o),
(263,324,o),
(297,324,cs)
);
}
);
userData = {
RMXScaler = {
height = 50;
verticalShift = 330;
width = 52;
};
};
width = 328;
},
{
layerId = "7B53E429-1BF0-49C5-9F57-63EEBF39C6CC";
shapes = (
{
closed = 1;
nodes = (
(166,330,l),
(174,342,o),
(177,350,o),
(177,368,c),
(134,382,l),
(147,368,l),
(147,469,l),
(137,466,l),
(150,461,o),
(167,458,o),
(186,458,cs),
(255,458,o),
(310,498,o),
(310,564,cs),
(310,620,o),
(259,651,o),
(193,651,cs),
(21,651,l),
(13,639,o),
(10,629,o),
(10,612,c),
(60,598,l),
(52,608,l),
(52,368,l),
(59,379,l),
(19,362,ls),
(14,360,o),
(11,344,o),
(11,330,c)
);
},
{
closed = 1;
nodes = (
(147,606,l),
(138,598,l),
(160,603,o),
(167,604,o),
(171,604,cs),
(196,604,o),
(212,587,o),
(212,556,cs),
(212,516,o),
(194,502,o),
(164,502,cs),
(158,502,o),
(144,505,o),
(138,508,c),
(147,498,l)
);
},
{
closed = 1;
nodes = (
(306,323,o),
(335,329,o),
(358,341,c),
(311,379,o),
(273,435,o),
(248,500,c),
(162,479,l),
(217,331,o),
(229,323,o),
(290,323,cs)
);
}
);
userData = {
RMXScaler = {
adjustSpace = 5;
height = 50;
verticalShift = 330;
weight = -100;
width = 52;
};
};
width = 366;
},
{
layerId = "649F6AC0-C354-445A-B217-A871C51F37B2";
shapes = (
{
closed = 1;
nodes = (
(147,331,ls),
(155,335,o),
(158,340,o),
(158,355,c),
(108,366,l),
(115,357,l),
(115,478,l),
(108,476,l),
(120,472,o),
(141,469,o),
(160,469,cs),
(233,469,o),
(283,511,o),
(283,569,cs),
(283,617,o),
(240,651,o),
(173,650,cs),
(34,650,ls),
(27,646,o),
(24,640,o),
(24,626,c),
(71,614,l),
(65,621,l),
(65,356,l),
(71,365,l),
(32,351,ls),
(28,349,o),
(24,340,o),
(24,331,c)
);
},
{
closed = 1;
nodes = (
(115,622,l),
(109,615,l),
(126,620,o),
(146,622,o),
(159,622,cs),
(199,622,o),
(225,600,o),
(225,562,cs),
(225,520,o),
(200,495,o),
(153,495,cs),
(139,495,o),
(117,497,o),
(109,501,c),
(115,493,l)
);
},
{
closed = 1;
nodes = (
(307,324,o),
(323,330,o),
(332,337,c),
(292,365,o),
(244,423,o),
(208,494,c),
(163,481,l),
(217,361,o),
(252,324,o),
(295,324,cs)
);
}
);
width = 340.32433;
}
);
userData = {
RMXScaler = {
source = R;
};
};
},
{
export = 0;
glyphname = S.sup;
kernLeft = S.sup;
kernRight = S.sup;
layers = (
{
layerId = "E1BF09ED-4302-4AD3-9939-8FDA35DE0FE8";
shapes = (
{
closed = 1;
nodes = (
(202,324,o),
(243,366,o),
(243,417,cs),
(243,471,o),
(204,490,o),
(149,511,cs),
(100,530,o),
(71,546,o),
(71,582,cs),
(71,617,o),
(95,639,o),
(133,639,cs),
(169,639,o),
(191,624,o),
(203,613,c),
(194,629,l),
(201,578,ls),
(202,573,o),
(211,569,o),
(220,569,c),
(227,625,ls),
(228,629,o),
(226,633,o),
(222,635,cs),
(198,646,o),
(168,658,o),
(135,658,cs),
(76,658,o),
(40,621,o),
(40,572,cs),
(40,521,o),
(77,502,o),
(131,481,cs),
(177,463,o),
(207,447,o),
(207,408,cs),
(207,368,o),
(177,342,o),
(134,342,cs),
(100,342,o),
(67,359,o),
(52,369,c),
(62,351,l),
(57,422,l),
(47,422,o),
(38,419,o),
(34,416,c),
(28,359,ls),
(28,355,o),
(29,351,o),
(33,349,cs),
(60,338,o),
(99,324,o),
(137,324,cs)
);
}
);
userData = {
RMXScaler = {
height = 50;
verticalShift = 330;
width = 52;
};
};
width = 271;
},
{
layerId = "7B53E429-1BF0-49C5-9F57-63EEBF39C6CC";
shapes = (
{
closed = 1;
nodes = (
(229,324,o),
(273,368,o),
(273,423,cs),
(273,491,o),
(216,511,o),
(169,530,cs),
(139,542,o),
(109,551,o),
(109,577,cs),
(109,601,o),
(125,613,o),
(151,613,cs),
(191,613,o),
(207,595,o),
(214,584,cs),
(196,614,l),
(208,555,ls),
(210,547,o),
(228,544,o),
(246,543,c),
(255,607,ls),
(257,620,o),
(253,631,o),
(241,637,cs),
(220,647,o),
(187,658,o),
(148,658,cs),
(77,658,o),
(38,615,o),
(38,561,cs),
(38,497,o),
(85,477,o),
(130,459,cs),
(167,444,o),
(193,435,o),
(193,406,cs),
(193,381,o),
(172,368,o),
(141,368,cs),
(102,368,o),
(82,388,o),
(75,397,c),
(89,381,l),
(80,450,l),
(61,450,o),
(45,446,o),
(37,441,c),
(26,378,ls),
(24,364,o),
(27,354,o),
(40,348,cs),
(65,337,o),
(105,324,o),
(152,324,cs)
);
}
);
userData = {
RMXScaler = {
adjustSpace = 5;
height = 50;
verticalShift = 330;
weight = -100;
width = 52;
};
};
width = 298;
},
{
layerId = "649F6AC0-C354-445A-B217-A871C51F37B2";
shapes = (
{
closed = 1;
nodes = (
(211,324,o),
(253,367,o),
(253,419,cs),
(253,478,o),
(208,497,o),
(156,518,cs),
(113,534,o),
(83,547,o),
(83,581,cs),
(83,612,o),
(105,630,o),
(139,630,cs),
(177,630,o),
(196,614,o),
(206,603,c),
(195,625,l),
(203,570,ls),
(204,564,o),
(216,561,o),
(229,560,c),
(236,617,ls),
(237,627,o),
(234,633,o),
(226,637,cs),
(204,647,o),
(174,658,o),
(139,658,cs),
(76,658,o),
(39,619,o),
(39,569,cs),
(39,513,o),
(79,494,o),
(131,473,cs),
(174,457,o),
(203,443,o),
(203,407,cs),
(203,372,o),
(176,351,o),
(136,351,cs),
(101,351,o),
(71,369,o),
(60,378,c),
(71,361,l),
(65,431,l),
(51,431,o),
(40,428,o),
(35,424,c),
(28,368,ls),
(27,358,o),
(30,352,o),
(38,348,cs),
(63,336,o),
(102,324,o),
(141,324,cs)
);
}
);
width = 280;
}
);
userData = {
RMXScaler = {
source = S;
};
};
},
{
export = 0;
glyphname = T.sup;
kernLeft = T.sup;
kernRight = T.sup;
layers = (
{
anchors = (
{
name = bottom;
pos = (157,330);
},
{
name = center;
pos = (157,491);
},
{
name = top;
pos = (157,651);
}
);
layerId = "E1BF09ED-4302-4AD3-9939-8FDA35DE0FE8";
shapes = (
{
closed = 1;
nodes = (
(214,332,ls),
(221,332,o),
(223,336,o),
(223,348,c),
(168,358,l),
(173,352,l),
(173,631,l),
(168,625,l),
(272,633,l),
(266,638,l),
(281,586,ls),
(283,580,o),
(290,578,o),
(297,578,c),
(297,643,ls),
(297,648,o),
(294,651,o),
(289,651,cs),
(24,651,ls),
(19,651,o),
(16,648,o),
(16,643,cs),
(16,578,l),
(23,578,o),
(30,580,o),
(32,586,cs),
(48,638,l),
(41,633,l),
(145,625,l),
(140,631,l),
(140,351,l),
(146,357,l),
(105,346,ls),
(98,344,o),
(96,336,o),
(96,332,c)
);
}
);
userData = {
RMXScaler = {
height = 50;
verticalShift = 330;
width = 52;
};
};
width = 313;
},
{
anchors = (
{
name = bottom;
pos = (170,330);
},
{
name = center;
pos = (170,490);
},
{
name = top;
pos = (170,651);
}
);
layerId = "7B53E429-1BF0-49C5-9F57-63EEBF39C6CC";
shapes = (
{
closed = 1;
nodes = (
(259,330,l),
(267,343,o),
(270,351,o),
(270,368,c),
(202,383,l),
(212,372,l),
(212,603,l),
(207,598,l),
(276,608,l),
(269,612,l),
(290,560,ls),
(292,554,o),
(304,551,o),
(322,551,c),
(322,627,ls),
(322,642,o),
(313,651,o),
(298,651,cs),
(42,651,ls),
(27,651,o),
(18,642,o),
(18,627,cs),
(18,551,l),
(37,551,o),
(49,554,o),
(51,560,cs),
(71,612,l),
(65,608,l),
(134,598,l),
(129,603,l),
(129,368,l),
(136,382,l),
(85,362,ls),
(79,360,o),
(77,343,o),
(77,330,c)
);
}
);
userData = {
RMXScaler = {
adjustSpace = 5;
height = 50;
verticalShift = 330;
weight = -100;
width = 52;
};
};
width = 340;
},
{
anchors = (
{
name = bottom;
pos = (161,330);
},
{
name = center;
pos = (161,491);
},
{
name = top;
pos = (161,651);
}
);
layerId = "649F6AC0-C354-445A-B217-A871C51F37B2";
shapes = (
{
closed = 1;
nodes = (
(228,331,l),
(236,335,o),
(238,340,o),
(238,355,c),
(179,366,l),
(186,359,l),
(186,622,l),
(181,616,l),
(273,625,l),
(267,629,l),
(284,577,ls),
(286,571,o),
(294,569,o),
(305,569,c),
(305,635,ls),
(305,645,o),
(299,651,o),
(289,651,cs),
(33,651,ls),
(23,651,o),
(17,645,o),
(17,635,cs),
(17,569,l),
(27,569,o),
(37,571,o),
(39,577,cs),
(56,629,l),
(49,625,l),
(142,616,l),
(137,622,l),
(137,356,l),
(143,365,l),
(98,351,ls),
(92,349,o),
(90,338,o),
(90,331,c)
);
}
);
width = 322;
}
);
userData = {
RMXScaler = {
source = T;
};
};
},
{
color = 8;
glyphname = T_h;
layers = (
{
layerId = "E1BF09ED-4302-4AD3-9939-8FDA35DE0FE8";
shapes = (
{
closed = 1;
nodes = (
(620,0,ls),
(634,0,o),
(637,4,o),
(637,18,c),
(575,31,l),
(575,342,l),
(622,399,o),
(692,436,o),
(755,436,cs),
(822,436,o),
(853,395,o),
(853,308,cs),
(853,31,l),
(807,20,ls),
(796,17,o),
(791,12,o),
(791,0,c),
(932,0,ls),
(944,0,o),
(947,4,o),
(947,18,c),
(885,31,l),
(885,297,ls),
(885,408,o),
(847,462,o),
(768,462,cs),
(700,462,o),
(622,420,o),
(575,358,c),
(573,358,l),
(573,721,ls),
(573,730,o),
(569,734,o),
(559,734,cs),
(553,734,o),
(546,732,o),
(543,731,c),
(543,31,l),
(497,20,ls),
(486,17,o),
(481,12,o),
(481,0,c)
);
},
{
closed = 1;
nodes = (
(390,0,ls),
(404,0,o),
(407,4,o),
(407,18,c),
(306,34,l),
(317,22,l),
(317,625,l),
(306,612,l),
(554,626,l),
(554,641,l),
(47,641,ls),
(42,641,o),
(39,638,o),
(39,633,cs),
(39,527,l),
(48,527,o),
(56,531,o),
(59,543,cs),
(81,634,l),
(67,625,l),
(295,612,l),
(284,625,l),
(284,23,l),
(297,34,l),
(223,20,ls),
(212,18,o),
(207,12,o),
(207,0,c)
);
}
);
width = 987;
},
{
layerId = "7B53E429-1BF0-49C5-9F57-63EEBF39C6CC";
shapes = (
{
closed = 1;
nodes = (
(816,0,l),
(831,26,o),
(836,46,o),
(836,76,c),
(794,88,l),
(794,303,l),
(805,313,o),
(836,341,o),
(875,341,cs),
(903,341,o),
(917,321,o),
(917,282,cs),
(917,82,l),
(891,69,ls),
(880,64,o),
(875,41,o),
(875,0,c),
(1141,0,l),
(1156,26,o),
(1161,46,o),
(1161,76,c),
(1099,97,l),
(1099,311,ls),
(1099,412,o),
(1062,462,o),
(985,462,cs),
(927,462,o),
(858,429,o),
(794,373,c),
(784,373,l),
(784,662,ls),
(784,712,o),
(759,734,o),
(702,734,cs),
(681,734,o),
(650,731,o),
(612,726,c),
(612,92,l),
(566,69,ls),
(555,64,o),
(550,41,o),
(550,0,c)
);
},
{
closed = 1;
nodes = (
(491,0,l),
(507,29,o),
(511,50,o),
(511,76,c),
(399,106,l),
(428,75,l),
(428,544,l),
(417,531,l),
(703,572,l),
(703,641,l),
(65,641,ls),
(50,641,o),
(41,632,o),
(41,617,cs),
(41,458,l),
(91,458,o),
(107,466,o),
(111,478,cs),
(140,558,l),
(126,549,l),
(253,531,l),
(242,544,l),
(242,70,l),
(263,107,l),
(159,69,ls),
(149,65,o),
(143,39,o),
(143,0,c)
);
}
);
width = 1181;
},
{
layerId = "649F6AC0-C354-445A-B217-A871C51F37B2";
shapes = (
{
closed = 1;
nodes = (
(683,0,l),
(698,9,o),
(701,17,o),
(701,37,c),
(646,50,l),
(646,329,l),
(681,371,o),
(739,405,o),
(794,405,cs),
(848,405,o),
(874,371,o),
(874,299,cs),
(874,47,l),
(834,36,ls),
(823,32,o),
(818,22,o),
(818,0,c),
(1000,0,l),
(1013,9,o),
(1017,17,o),
(1017,37,c),
(955,53,l),
(955,301,ls),
(955,409,o),
(917,462,o),
(839,462,cs),
(773,462,o),
(698,423,o),
(646,362,c),
(642,362,l),
(642,701,ls),
(642,725,o),
(630,734,o),
(606,734,cs),
(594,734,o),
(580,732,o),
(566,730,c),
(566,51,l),
(520,36,ls),
(509,32,o),
(504,22,o),
(504,0,c)
);
},
{
closed = 1;
nodes = (
(423,0,l),
(438,10,o),
(441,19,o),
(441,37,c),
(337,57,l),
(353,39,l),
(353,599,l),
(342,586,l),
(602,609,l),
(602,641,l),
(56,641,ls),
(46,641,o),
(40,635,o),
(40,625,cs),
(40,504,l),
(62,504,o),
(72,510,o),
(75,522,cs),
(101,609,l),
(87,600,l),
(282,586,l),
(271,599,l),
(271,38,l),
(286,58,l),
(202,36,ls),
(191,33,o),
(186,21,o),
(186,0,c)
);
}
);
width = 1051;
}
);
metricLeft = T;
metricRight = h;
},
{
color = 4;
glyphname = a;
kernLeft = a;
kernRight = a;
layers = (
{
anchors = (
{
name = bottom;
pos = (263,0);
},
{
name = ogonek;
pos = (479,0);
},
{
name = top;
pos = (263,443);
}
);
layerId = "7B53E429-1BF0-49C5-9F57-63EEBF39C6CC";
shapes = (
{
closed = 1;
nodes = (
(188,-12,o),
(257,24,o),
(300,79,c),
(309,79,l),
(309,23,o),
(350,-12,o),
(417,-12,cs),
(457,-12,o),
(505,4,o),
(540,29,cs),
(552,37,o),
(554,46,o),
(551,60,cs),
(549,70,ls),
(545,85,o),
(536,89,o),
(520,87,cs),
(517,86,o),
(514,86,o),
(511,86,cs),
(488,86,o),
(480,95,o),
(480,121,cs),
(480,303,ls),
(480,404,o),
(406,462,o),
(275,462,cs),
(147,462,o),
(49,407,o),
(49,336,cs),
(49,298,o),
(76,275,o),
(122,275,cs),
(150,275,o),
(176,284,o),
(186,297,c),
(189,367,o),
(209,398,o),
(250,398,cs),
(286,398,o),
(298,375,o),
(298,308,cs),
(298,253,l),
(310,273,l),
(176,242,ls),
(79,220,o),
(26,167,o),
(26,93,cs),
(26,32,o),
(70,-12,o),
(130,-12,cs)
);
},
{
closed = 1;
nodes = (
(200,91,o),
(183,110,o),
(183,135,cs),
(183,161,o),
(202,183,o),
(233,190,cs),
(319,211,l),
(300,214,l),
(300,105,l),
(316,141,l),
(293,114,o),
(250,91,o),
(224,91,cs)
);
}
);
width = 566;
},
{
anchors = (
{
name = bottom;
pos = (216,0);
},
{
name = ogonek;
pos = (401,0);
},
{
name = top;
pos = (216,443);
}
);
layerId = "E1BF09ED-4302-4AD3-9939-8FDA35DE0FE8";
shapes = (
{
closed = 1;
nodes = (
(224,-12,o),
(275,13,o),
(310,60,c),
(312,60,l),
(312,13,o),
(329,-12,o),
(362,-12,cs),
(381,-12,o),
(406,0,o),
(423,17,cs),
(426,21,o),
(427,23,o),
(426,28,cs),
(425,30,ls),
(424,34,o),
(419,34,o),
(414,31,cs),
(400,21,o),
(381,14,o),
(368,14,cs),
(352,14,o),
(342,27,o),
(342,49,cs),
(342,308,ls),
(342,420,o),
(312,462,o),
(229,462,cs),
(141,462,o),
(76,418,o),
(76,358,cs),
(76,340,o),
(83,331,o),
(95,331,cs),
(100,331,o),
(106,332,o),
(112,337,c),
(111,405,o),
(154,447,o),
(223,447,cs),
(281,447,o),
(310,412,o),
(310,339,cs),
(310,255,l),
(323,262,l),
(194,232,ls),
(96,209,o),
(51,164,o),
(51,88,cs),
(51,25,o),
(97,-12,o),
(161,-12,cs)
);
},
{
closed = 1;
nodes = (
(119,8,o),
(87,41,o),
(87,100,cs),
(87,160,o),
(123,198,o),
(194,215,cs),
(320,245,l),
(310,247,l),
(310,76,l),
(312,84,l),
(279,34,o),
(232,8,o),
(173,8,cs)
);
}
);
width = 447;
},
{
anchors = (
{
name = bottom;
pos = (231,0);
},
{
name = ogonek;
pos = (426,0);
},
{
name = top;
pos = (231,443);
}
);
layerId = "649F6AC0-C354-445A-B217-A871C51F37B2";
shapes = (
{
closed = 1;
nodes = (
(212,-12,o),
(269,16,o),
(307,67,c),
(311,67,l),
(311,16,o),
(336,-12,o),
(379,-12,cs),
(405,-12,o),
(437,0,o),
(459,20,cs),
(466,26,o),
(467,32,o),
(465,41,cs),
(465,43,ls),
(463,52,o),
(456,51,o),
(445,46,cs),
(435,41,o),
(424,37,o),
(414,37,cs),
(396,37,o),
(387,49,o),
(387,72,cs),
(387,307,ls),
(387,415,o),
(343,462,o),
(244,462,cs),
(143,462,o),
(67,415,o),
(67,350,cs),
(67,327,o),
(81,313,o),
(104,313,cs),
(116,313,o),
(129,317,o),
(136,324,c),
(136,393,o),
(171,431,o),
(232,431,cs),
(282,431,o),
(306,400,o),
(306,329,cs),
(306,254,l),
(319,265,l),
(188,235,ls),
(91,212,o),
(42,165,o),
(42,89,cs),
(42,27,o),
(88,-12,o),
(151,-12,cs)
);
},
{
closed = 1;
nodes = (
(145,35,o),
(118,64,o),
(118,111,cs),
(118,160,o),
(148,194,o),
(206,207,cs),
(320,234,l),
(307,236,l),
(307,86,l),
(313,103,l),
(283,60,o),
(237,35,o),
(189,35,cs)
);
}
);
width = 486;
}
);
unicode = 97;
},
{
color = 4;
glyphname = ae;
kernLeft = a;
kernRight = e;
layers = (
{
anchors = (
{
name = bottom;
pos = (370,0);
},
{
name = top;
pos = (370,443);
}
);
background = {
shapes = (
{
closed = 1;
nodes = (
(51,25,o),
(97,-12,o),
(161,-12,cs),
(231,-12,o),
(289,21,o),
(330,85,c),
(359,24,o),
(414,-12,o),
(487,-12,cs),
(531,-12,o),
(595,18,o),
(659,92,c),
(649,104,l),
(607,50,o),
(551,17,o),
(501,17,cs),
(402,17,o),
(342,102,o),
(342,217,cs),
(342,233,o),
(343,248,o),
(344,262,c),
(648,262,ls),
(651,262,o),
(664,267,o),
(664,286,cs),
(664,388,o),
(600,462,o),
(511,462,cs),
(442,462,o),
(378,416,o),
(341,345,c),
(334,429,o),
(302,462,o),
(229,462,cs),
(141,462,o),
(76,418,o),
(76,358,cs),
(76,340,o),
(83,331,o),
(95,331,cs),
(100,331,o),
(106,332,o),
(112,337,c),
(111,405,o),
(154,447,o),
(223,447,cs),
(281,447,o),
(310,412,o),
(310,339,cs),
(310,259,l),
(194,232,ls),
(96,209,o),
(51,164,o),
(51,88,cs)
);
},
{
closed = 1;
nodes = (
(87,160,o),
(123,198,o),
(194,215,cs),
(309,242,l),
(307,229,o),
(306,214,o),
(306,200,cs),
(306,163,o),
(312,129,o),
(324,99,c),
(286,39,o),
(235,8,o),
(173,8,cs),
(119,8,o),
(87,41,o),
(87,100,cs)
);
},
{
closed = 1;
nodes = (
(362,383,o),
(420,442,o),
(498,442,cs),
(576,442,o),
(631,376,o),
(630,284,c),
(346,277,l)
);
}
);
};
layerId = "E1BF09ED-4302-4AD3-9939-8FDA35DE0FE8";
shapes = (
{
closed = 1;
nodes = (
(231,-12,o),
(289,21,o),
(330,85,c),
(359,24,o),
(414,-12,o),
(487,-12,cs),
(552,-12,o),
(614,25,o),
(655,86,cs),
(658,90,o),
(658,94,o),
(655,97,cs),
(654,98,ls),
(651,101,o),
(647,101,o),
(644,96,cs),
(607,43,o),
(550,9,o),
(496,9,cs),
(383,9,o),
(334,118,o),
(344,262,c),
(648,262,ls),
(651,262,o),
(664,267,o),
(664,286,cs),
(664,388,o),
(600,462,o),
(511,462,cs),
(442,462,o),
(378,416,o),
(341,345,c),
(334,429,o),
(302,462,o),
(229,462,cs),
(141,462,o),
(76,418,o),
(76,358,cs),
(76,340,o),
(83,331,o),
(95,331,cs),
(100,331,o),
(106,332,o),
(112,337,c),
(111,405,o),
(154,447,o),
(223,447,cs),
(281,447,o),
(319,412,o),
(313,309,cs),
(310,259,l),
(194,232,ls),
(96,209,o),
(51,164,o),
(51,88,cs),
(51,25,o),
(97,-12,o),
(161,-12,cs)
);
},
{
closed = 1;
nodes = (
(119,8,o),
(87,41,o),
(87,100,cs),
(87,160,o),
(123,198,o),
(194,215,cs),
(307,242,l),
(305,197,o),
(305,140,o),
(324,99,c),
(286,39,o),
(235,8,o),
(173,8,cs)
);
},
{
closed = 1;
nodes = (
(362,383,o),
(420,442,o),
(498,442,cs),
(576,442,o),
(631,376,o),
(630,284,c),
(346,277,l)
);
}
);
width = 699;
},
{
anchors = (
{
name = bottom;
pos = (421,0);
},
{
name = top;
pos = (421,443);
}
);
background = {
shapes = (
{
closed = 1;
nodes = (
(26,32,o),
(70,-12,o),
(130,-12,cs),
(196,-12,o),
(272,31,o),
(326,99,c),
(364,30,o),
(439,-12,o),
(535,-12,cs),
(624,-12,o),
(719,25,o),
(767,78,c),
(750,122,l),
(705,96,o),
(671,85,o),
(629,85,cs),
(547,85,o),
(499,126,o),
(484,206,c),
(724,206,ls),
(752,206,o),
(761,215,o),
(761,240,cs),
(761,388,o),
(681,462,o),
(544,462,cs),
(497,462,o),
(453,450,o),
(416,428,c),
(382,450,o),
(334,462,o),
(275,462,cs),
(147,462,o),
(49,407,o),
(49,336,cs),
(49,298,o),
(76,275,o),
(122,275,cs),
(150,275,o),
(176,284,o),
(186,297,c),
(189,367,o),
(209,398,o),
(250,398,cs),
(286,398,o),
(298,375,o),
(298,308,cs),
(298,270,l),
(176,242,ls),
(79,220,o),
(26,167,o),
(26,93,cs)
);
},
{
closed = 1;
nodes = (
(183,161,o),
(202,183,o),
(233,190,cs),
(297,206,l),
(298,180,o),
(302,156,o),
(310,134,c),
(286,110,o),
(248,91,o),
(224,91,cs),
(200,91,o),
(183,110,o),
(183,135,cs)
);
},
{
closed = 1;
nodes = (
(482,352,o),
(505,399,o),
(542,399,cs),
(576,399,o),
(594,358,o),
(597,278,c),
(480,274,l)
);
}
);
};
layerId = "7B53E429-1BF0-49C5-9F57-63EEBF39C6CC";
shapes = (
{
closed = 1;
nodes = (
(196,-12,o),
(272,31,o),
(326,99,c),
(363,30,o),
(437,-12,o),
(532,-12,cs),
(615,-12,o),
(702,19,o),
(753,64,cs),
(763,73,o),
(765,84,o),
(760,96,cs),
(757,103,ls),
(751,118,o),
(740,122,o),
(725,114,cs),
(690,93,o),
(662,85,o),
(626,85,cs),
(546,85,o),
(499,126,o),
(484,206,c),
(724,206,ls),
(752,206,o),
(761,215,o),
(761,240,cs),
(761,388,o),
(681,462,o),
(544,462,cs),
(497,462,o),
(453,450,o),
(416,428,c),
(382,450,o),
(334,462,o),
(275,462,cs),
(147,462,o),
(49,407,o),
(49,336,cs),
(49,298,o),
(76,275,o),
(122,275,cs),
(150,275,o),
(176,284,o),
(186,297,c),
(189,367,o),
(209,398,o),
(250,398,cs),
(286,398,o),
(298,375,o),
(298,308,cs),
(298,270,l),
(176,242,ls),
(79,220,o),
(26,167,o),
(26,93,cs),
(26,32,o),
(70,-12,o),
(130,-12,cs)
);
},
{
closed = 1;
nodes = (
(200,91,o),
(183,110,o),
(183,135,cs),
(183,161,o),
(202,182,o),
(233,190,cs),
(297,206,l),
(298,180,o),
(302,156,o),
(310,134,c),
(286,110,o),
(248,91,o),
(224,91,cs)
);
},
{
closed = 1;
nodes = (
(482,352,o),
(505,399,o),
(542,399,cs),
(576,399,o),
(594,358,o),
(597,278,c),
(480,274,l)
);
}
);
width = 802;
},
{
anchors = (
{
name = bottom;
pos = (387,0);
},
{
name = top;
pos = (387,443);
}
);
layerId = "649F6AC0-C354-445A-B217-A871C51F37B2";
shapes = (
{
closed = 1;
nodes = (
(220,-12,o),
(283,24,o),
(329,90,c),
(361,26,o),
(422,-12,o),
(503,-12,cs),
(574,-12,o),
(644,22,o),
(687,77,cs),
(693,84,o),
(694,91,o),
(690,99,cs),
(689,100,ls),
(685,107,o),
(677,106,o),
(669,97,cs),
(632,57,o),
(586,34,o),
(539,34,cs),
(436,34,o),
(388,121,o),
(389,244,c),
(673,244,ls),
(684,244,o),
(695,250,o),
(695,271,cs),
(695,388,o),
(626,462,o),
(522,462,cs),
(460,462,o),
(402,427,o),
(365,372,c),
(350,436,o),
(312,462,o),
(244,462,cs),
(143,462,o),
(67,414,o),
(67,351,cs),
(67,326,o),
(81,313,o),
(104,313,cs),
(116,313,o),
(129,316,o),
(136,324,c),
(136,393,o),
(172,431,o),
(232,431,cs),
(283,431,o),
(312,400,o),
(308,309,cs),
(306,263,l),
(188,235,ls),
(90,212,o),
(43,165,o),
(43,90,cs),
(43,27,o),
(88,-12,o),
(151,-12,cs)
);
},
{
closed = 1;
nodes = (
(145,35,o),
(118,63,o),
(118,111,cs),
(118,160,o),
(149,193,o),
(207,207,cs),
(304,230,l),
(303,191,o),
(304,145,o),
(319,110,c),
(286,62,o),
(239,35,o),
(190,35,cs)
);
},
{
closed = 1;
nodes = (
(401,373,o),
(448,428,o),
(512,428,cs),
(576,428,o),
(619,370,o),
(619,282,c),
(389,276,l)
);
}
);
width = 732;
}
);
metricRight = e;
unicode = 230;
},
{
color = 4;
glyphname = b;
kernLeft = l;
kernRight = o;
layers = (
{
layerId = "7B53E429-1BF0-49C5-9F57-63EEBF39C6CC";
shapes = (
{
closed = 1;
nodes = (
(468,-12,o),
(589,90,o),
(589,246,cs),
(589,376,o),
(521,462,o),
(421,462,cs),
(356,462,o),
(285,426,o),
(253,373,c),
(239,373,l),
(243,361,l),
(243,662,ls),
(243,712,o),
(218,734,o),
(161,734,cs),
(130,734,o),
(88,729,o),
(8,717,c),
(8,677,o),
(15,653,o),
(25,650,cs),
(82,630,l),
(71,646,l),
(71,28,l),
(134,2,o),
(213,-12,o),
(284,-12,cs)
);
},
{
closed = 1;
nodes = (
(277,64,o),
(252,78,o),
(234,104,c),
(249,76,l),
(249,322,l),
(234,287,l),
(251,311,o),
(275,352,o),
(322,352,cs),
(371,352,o),
(396,307,o),
(396,220,cs),
(396,121,o),
(363,64,o),
(306,64,cs)
);
}
);
width = 624;
},
{
layerId = "E1BF09ED-4302-4AD3-9939-8FDA35DE0FE8";
shapes = (
{
closed = 1;
nodes = (
(375,-12,o),
(456,91,o),
(456,251,cs),
(456,382,o),
(395,462,o),
(296,462,cs),
(232,462,o),
(170,425,o),
(122,359,c),
(117,359,l),
(120,356,l),
(120,700,ls),
(120,723,o),
(110,734,o),
(88,734,cs),
(78,734,o),
(66,732,o),
(28,726,c),
(28,712,o),
(32,707,o),
(42,706,cs),
(102,700,l),
(90,715,l),
(90,25,l),
(130,0,o),
(177,-12,o),
(219,-12,cs)
);
},
{
closed = 1;
nodes = (
(199,10,o),
(163,15,o),
(115,42,c),
(122,29,l),
(122,344,l),
(115,326,l),
(167,402,o),
(221,436,o),
(289,436,cs),
(380,436,o),
(420,375,o),
(420,236,cs),
(420,76,o),
(367,10,o),
(239,10,cs)
);
}
);
width = 491;
},
{
layerId = "649F6AC0-C354-445A-B217-A871C51F37B2";
shapes = (
{
closed = 1;
nodes = (
(406,-12,o),
(500,91,o),
(500,250,cs),
(500,380,o),
(435,462,o),
(336,462,cs),
(272,462,o),
(207,425,o),
(165,363,c),
(156,363,l),
(160,357,l),
(160,688,ls),
(160,720,o),
(145,734,o),
(112,734,cs),
(94,734,o),
(74,731,o),
(21,723,c),
(21,701,o),
(27,690,o),
(37,688,cs),
(95,677,l),
(84,692,l),
(84,26,l),
(131,1,o),
(189,-12,o),
(240,-12,cs)
);
},
{
closed = 1;
nodes = (
(224,27,o),
(191,36,o),
(153,62,c),
(163,44,l),
(163,336,l),
(153,313,l),
(194,373,o),
(238,409,o),
(300,409,cs),
(377,409,o),
(412,353,o),
(412,231,cs),
(412,90,o),
(366,27,o),
(261,27,cs)
);
}
);
width = 536;
}
);
metricRight = o;
unicode = 98;
},
{
color = 4;
glyphname = c;
kernLeft = o;
kernRight = c;
layers = (
{
anchors = (
{
name = bottom;
pos = (295,0);
},
{
name = top;
pos = (295,443);
}
);
layerId = "7B53E429-1BF0-49C5-9F57-63EEBF39C6CC";
shapes = (
{
closed = 1;
nodes = (
(364,-12,o),
(452,20,o),
(503,67,cs),
(511,74,o),
(512,84,o),
(507,96,cs),
(504,104,ls),
(498,120,o),
(487,123,o),
(472,115,cs),
(430,94,o),
(395,85,o),
(357,85,cs),
(267,85,o),
(227,136,o),
(227,252,cs),
(227,346,o),
(254,399,o),
(301,399,cs),
(342,399,o),
(364,359,o),
(364,283,c),
(382,271,o),
(404,265,o),
(426,265,cs),
(478,265,o),
(509,289,o),
(509,329,cs),
(509,402,o),
(416,462,o),
(301,462,cs),
(148,462,o),
(35,357,o),
(35,214,cs),
(35,80,o),
(135,-12,o),
(281,-12,cs)
);
}
);
width = 534;
},
{
anchors = (
{
name = bottom;
pos = (234,0);
},
{
name = top;
pos = (234,443);
}
);
layerId = "E1BF09ED-4302-4AD3-9939-8FDA35DE0FE8";
shapes = (
{
closed = 1;
nodes = (
(285,-12,o),
(345,18,o),
(386,66,cs),
(389,70,o),
(388,75,o),
(385,78,cs),
(385,78,ls),
(382,81,o),
(378,81,o),
(374,77,cs),
(339,35,o),
(283,9,o),
(230,9,cs),
(127,9,o),
(71,85,o),
(71,224,cs),
(71,364,o),
(128,442,o),
(231,442,cs),
(304,442,o),
(344,403,o),
(344,337,c),
(349,334,o),
(355,332,o),
(362,332,cs),
(377,332,o),
(386,344,o),
(386,364,cs),
(386,419,o),
(324,462,o),
(246,462,cs),
(123,462,o),
(35,355,o),
(35,204,cs),
(35,69,o),
(105,-12,o),
(221,-12,cs)
);
}
);
width = 430;
},
{
anchors = (
{
name = bottom;
pos = (254,0);
},
{
name = top;
pos = (254,443);
}
);
layerId = "649F6AC0-C354-445A-B217-A871C51F37B2";
shapes = (
{
closed = 1;
nodes = (
(310,-12,o),
(379,18,o),
(422,65,cs),
(428,71,o),
(428,77,o),
(424,86,cs),
(424,86,ls),
(420,94,o),
(412,93,o),
(404,86,cs),
(365,52,o),
(318,34,o),
(271,34,cs),
(172,34,o),
(122,102,o),
(122,233,cs),
(122,358,o),
(169,428,o),
(254,428,cs),
(316,428,o),
(350,389,o),
(350,319,c),
(360,314,o),
(371,310,o),
(383,310,cs),
(410,310,o),
(426,326,o),
(426,353,cs),
(426,413,o),
(354,462,o),
(264,462,cs),
(131,462,o),
(35,356,o),
(35,207,cs),
(35,73,o),
(115,-12,o),
(240,-12,cs)
);
}
);
width = 464;
}
);
metricLeft = o;
unicode = 99;
},
{
color = 4;
glyphname = d;
kernLeft = o;
kernRight = dcaron;
layers = (
{
anchors = (
{
name = bottom;
pos = (323,0);
},
{
name = center;
pos = (459,552);
},
{
name = top;
pos = (323,858);
},
{
name = topright;
pos = (583,443);
}
);
layerId = "7B53E429-1BF0-49C5-9F57-63EEBF39C6CC";
shapes = (
{
closed = 1;
nodes = (
(270,-12,o),
(341,26,o),
(373,79,c),
(382,79,l),
(382,23,o),
(423,-12,o),
(486,-12,cs),
(529,-12,o),
(577,4,o),
(613,29,cs),
(625,37,o),
(627,46,o),
(624,60,cs),
(622,70,ls),
(618,85,o),
(609,89,o),
(593,87,cs),
(590,86,o),
(587,86,o),
(584,86,cs),
(561,86,o),
(553,95,o),
(553,121,cs),
(553,662,ls),
(553,712,o),
(523,734,o),
(456,734,cs),
(423,734,o),
(375,729,o),
(299,717,c),
(299,677,o),
(305,653,o),
(315,650,cs),
(383,631,l),
(371,646,l),
(371,434,l),
(383,442,l),
(346,455,o),
(306,462,o),
(269,462,cs),
(128,462,o),
(35,360,o),
(35,204,cs),
(35,74,o),
(103,-12,o),
(204,-12,cs)
);
},
{
closed = 1;
nodes = (
(252,98,o),
(227,143,o),
(227,230,cs),
(227,329,o),
(260,386,o),
(318,386,cs),
(347,386,o),
(372,372,o),
(390,346,c),
(375,382,l),
(375,128,l),
(390,163,l),
(373,139,o),
(349,98,o),
(302,98,cs)
);
}
);
width = 645;
},
{
anchors = (
{
name = bottom;
pos = (261,0);
},
{
name = center;
pos = (396,560);
},
{
name = top;
pos = (261,858);
},
{
name = topright;
pos = (473,500);
}
);
layerId = "E1BF09ED-4302-4AD3-9939-8FDA35DE0FE8";
shapes = (
{
closed = 1;
nodes = (
(293,-12,o),
(345,21,o),
(382,65,c),
(383,65,l),
(383,15,o),
(399,-12,o),
(433,-12,cs),
(452,-12,o),
(477,0,o),
(494,17,cs),
(497,21,o),
(498,23,o),
(497,28,cs),
(496,30,ls),
(495,34,o),
(490,34,o),
(485,31,cs),
(471,21,o),
(452,14,o),
(439,14,cs),
(423,14,o),
(413,27,o),
(413,49,cs),
(413,683,ls),
(413,719,o),
(402,734,o),
(378,734,cs),
(369,734,o),
(357,732,o),
(319,726,c),
(319,712,o),
(323,707,o),
(333,706,cs),
(393,700,l),
(381,715,l),
(381,414,l),
(386,432,l),
(344,453,o),
(303,462,o),
(260,462,cs),
(132,462,o),
(35,348,o),
(35,200,cs),
(35,72,o),
(107,-12,o),
(216,-12,cs)
);
},
{
closed = 1;
nodes = (
(127,10,o),
(71,82,o),
(71,217,cs),
(71,361,o),
(135,442,o),
(247,442,cs),
(311,442,o),
(349,426,o),
(388,397,c),
(381,414,l),
(381,77,l),
(388,91,l),
(342,34,o),
(293,10,o),
(229,10,cs)
);
}
);
width = 522;
},
{
anchors = (
{
name = bottom;
pos = (281,0);
},
{
name = center;
pos = (416,557);
},
{
name = top;
pos = (281,858);
},
{
name = topright;
pos = (509,482);
}
);
layerId = "649F6AC0-C354-445A-B217-A871C51F37B2";
shapes = (
{
closed = 1;
nodes = (
(286,-12,o),
(344,23,o),
(379,70,c),
(383,70,l),
(383,18,o),
(407,-12,o),
(450,-12,cs),
(476,-12,o),
(508,0,o),
(531,19,cs),
(538,25,o),
(539,32,o),
(537,40,cs),
(537,42,ls),
(535,51,o),
(528,50,o),
(517,45,cs),
(507,40,o),
(496,37,o),
(486,37,cs),
(468,37,o),
(458,49,o),
(458,72,cs),
(458,676,ls),
(458,717,o),
(441,734,o),
(403,734,cs),
(387,734,o),
(363,731,o),
(313,723,c),
(313,701,o),
(317,689,o),
(327,688,cs),
(390,678,l),
(378,693,l),
(378,420,l),
(385,435,l),
(345,454,o),
(304,462,o),
(263,462,cs),
(131,462,o),
(35,352,o),
(35,201,cs),
(35,73,o),
(106,-12,o),
(212,-12,cs)
);
},
{
closed = 1;
nodes = (
(168,39,o),
(122,102,o),
(122,221,cs),
(122,351,o),
(176,424,o),
(270,424,cs),
(323,424,o),
(356,408,o),
(389,380,c),
(379,404,l),
(379,94,l),
(389,114,l),
(352,68,o),
(311,39,o),
(253,39,cs)
);
}
);
width = 562;
}
);
metricLeft = o;
unicode = 100;
},
{
color = 4;
glyphname = eth;
kernLeft = o;
kernRight = o;
layers = (
{
layerId = "E1BF09ED-4302-4AD3-9939-8FDA35DE0FE8";
shapes = (
{
closed = 1;
nodes = (
(365,-12,o),
(455,100,o),
(455,270,cs),
(455,400,o),
(398,517,o),
(290,610,cs),
(231,660,o),
(131,714,o),
(96,714,cs),
(87,714,o),
(82,710,o),
(82,704,c),
(256,645,o),
(395,491,o),
(413,338,c),
(426,338,l),
(386,389,o),
(322,420,o),
(256,420,cs),
(126,420,o),
(35,322,o),
(35,183,cs),
(35,65,o),
(111,-12,o),
(228,-12,cs)
);
},
{
closed = 1;
nodes = (
(128,7,o),
(71,75,o),
(71,194,cs),
(71,323,o),
(135,400,o),
(243,400,cs),
(316,400,o),
(390,360,o),
(423,303,c),
(414,325,l),
(416,307,o),
(417,291,o),
(417,273,cs),
(417,106,o),
(346,7,o),
(227,7,cs)
);
},
{
pos = (212,239);
ref = slashshortcomb;
}
);
width = 490;
},
{
background = {
shapes = (
{
closed = 1;
nodes = (
(447,-12,o),
(567,111,o),
(567,275,cs),
(567,369,o),
(527,458,o),
(473,530,cs),
(377,658,o),
(236,734,o),
(136,734,cs),
(92,734,o),
(79,719,o),
(79,680,c),
(267,619,o),
(368,482,o),
(374,381,c),
(392,395,l),
(359,410,o),
(314,420,o),
(268,420,cs),
(131,420,o),
(35,330,o),
(35,207,cs),
(35,80,o),
(137,-12,o),
(281,-12,cs)
);
},
{
closed = 1;
nodes = (
(247,57,o),
(220,123,o),
(220,209,cs),
(220,283,o),
(240,345,o),
(307,345,cs),
(340,345,o),
(381,330,o),
(410,311,c),
(374,354,l),
(377,336,o),
(378,316,o),
(378,291,cs),
(378,158,o),
(350,57,o),
(293,57,cs)
);
}
);
};
layerId = "7B53E429-1BF0-49C5-9F57-63EEBF39C6CC";
shapes = (
{
closed = 1;
nodes = (
(444,-12,o),
(567,111,o),
(567,275,cs),
(567,369,o),
(527,458,o),
(473,530,cs),
(389,646,o),
(264,714,o),
(176,714,cs),
(132,714,o),
(119,699,o),
(119,660,c),
(281,603,o),
(368,476,o),
(374,381,c),
(392,395,l),
(372,403,o),
(345,408,o),
(317,408,cs),
(149,408,o),
(35,315,o),
(35,179,cs),
(35,59,o),
(124,-12,o),
(275,-12,cs)
);
},
{
closed = 1;
nodes = (
(254,51,o),
(227,107,o),
(227,206,cs),
(227,296,o),
(256,345,o),
(309,345,cs),
(361,345,o),
(393,329,o),
(442,272,c),
(374,354,l),
(377,336,o),
(378,316,o),
(378,291,cs),
(378,155,o),
(353,51,o),
(303,51,cs)
);
},
{
pos = (172,239);
ref = slashshortcomb;
}
);
width = 602;
},
{
layerId = "649F6AC0-C354-445A-B217-A871C51F37B2";
shapes = (
{
closed = 1;
nodes = (
(390,-12,o),
(491,103,o),
(491,271,cs),
(491,390,o),
(440,497,o),
(349,584,cs),
(282,656,o),
(175,714,o),
(122,714,cs),
(101,714,o),
(94,707,o),
(94,690,c),
(264,632,o),
(386,487,o),
(400,352,c),
(415,357,l),
(382,393,o),
(330,416,o),
(276,416,cs),
(134,416,o),
(35,320,o),
(35,182,cs),
(35,63,o),
(115,-12,o),
(243,-12,cs)
);
},
{
closed = 1;
nodes = (
(168,21,o),
(121,86,o),
(121,198,cs),
(121,314,o),
(174,383,o),
(265,383,cs),
(330,383,o),
(391,350,o),
(430,293,c),
(401,335,l),
(403,317,o),
(404,299,o),
(404,279,cs),
(404,122,o),
(348,21,o),
(252,21,cs)
);
},
{
alignment = -1;
pos = (199,239);
ref = slashshortcomb;
}
);
width = 527;
}
);
metricLeft = o;
metricRight = o;
unicode = 240;
},
{
color = 4;
glyphname = e;
kernLeft = o;
kernRight = e;
layers = (
{
anchors = (
{
name = bottom;
pos = (290,0);
},
{
name = ogonek;
pos = (374,0);
},
{
name = top;
pos = (290,443);
}
);
layerId = "7B53E429-1BF0-49C5-9F57-63EEBF39C6CC";
shapes = (
{
closed = 1;
nodes = (
(364,-12,o),
(453,20,o),
(504,67,cs),
(512,74,o),
(513,84,o),
(508,96,cs),
(505,103,ls),
(499,118,o),
(488,122,o),
(473,114,cs),
(438,93,o),
(410,85,o),
(374,85,cs),
(277,85,o),
(228,146,o),
(228,265,cs),
(228,348,o),
(252,399,o),
(290,399,cs),
(327,399,o),
(345,352,o),
(345,258,c),
(357,278,l),
(165,272,l),
(165,206,l),
(472,206,ls),
(503,206,o),
(509,214,o),
(509,255,cs),
(509,382,o),
(427,462,o),
(296,462,cs),
(146,462,o),
(35,357,o),
(35,215,cs),
(35,81,o),
(135,-12,o),
(280,-12,cs)
);
}
);
width = 550;
},
{
anchors = (
{
name = bottom;
pos = (224,0);
},
{
name = ogonek;
pos = (270,0);
},
{
name = top;
pos = (224,443);
}
);
layerId = "E1BF09ED-4302-4AD3-9939-8FDA35DE0FE8";
shapes = (
{
closed = 1;
nodes = (
(281,-12,o),
(343,24,o),
(384,85,cs),
(387,90,o),
(387,94,o),
(384,97,cs),
(383,98,ls),
(380,101,o),
(376,101,o),
(373,96,cs),
(336,43,o),
(279,9,o),
(225,9,cs),
(129,9,o),
(71,97,o),
(71,217,cs),
(71,361,o),
(135,442,o),
(227,442,cs),
(307,442,o),
(363,373,o),
(359,277,c),
(369,284,l),
(58,277,l),
(58,262,l),
(377,262,ls),
(380,262,o),
(393,267,o),
(393,286,cs),
(393,388,o),
(329,462,o),
(240,462,cs),
(132,462,o),
(35,348,o),
(35,200,cs),
(35,74,o),
(104,-12,o),
(216,-12,cs)
);
}
);
width = 428;
},
{
anchors = (
{
name = bottom;
pos = (245,0);
},
{
name = ogonek;
pos = (304,0);
},
{
name = top;
pos = (245,443);
}
);
layerId = "649F6AC0-C354-445A-B217-A871C51F37B2";
shapes = (
{
closed = 1;
nodes = (
(308,-12,o),
(378,22,o),
(421,77,cs),
(427,84,o),
(428,91,o),
(424,99,cs),
(423,100,ls),
(419,107,o),
(411,106,o),
(403,97,cs),
(366,57,o),
(320,34,o),
(273,34,cs),
(177,34,o),
(122,113,o),
(122,233,cs),
(122,357,o),
(173,428,o),
(247,428,cs),
(313,428,o),
(357,366,o),
(354,271,c),
(365,282,l),
(93,275,l),
(93,244,l),
(408,244,ls),
(420,244,o),
(431,250,o),
(431,276,cs),
(431,386,o),
(361,462,o),
(258,462,cs),
(137,462,o),
(35,351,o),
(35,205,cs),
(35,76,o),
(114,-12,o),
(237,-12,cs)
);
}
);
width = 468;
}
);
metricLeft = o;
unicode = 101;
},
{
color = 4;
glyphname = f;
kernLeft = f;
kernRight = f;
layers = (
{
layerId = "E1BF09ED-4302-4AD3-9939-8FDA35DE0FE8";
shapes = (
{
closed = 1;
nodes = (
(219,0,l),
(233,0,o),
(236,4,o),
(236,18,c),
(163,34,l),
(174,22,l),
(174,468,ls),
(174,642,o),
(229,702,o),
(318,702,cs),
(384,702,l),
(386,706,o),
(387,709,o),
(387,713,cs),
(387,724,o),
(377,734,o),
(346,734,cs),
(238,734,o),
(142,636,o),
(142,447,cs),
(142,22,l),
(153,34,l),
(96,20,ls),
(85,17,o),
(80,12,o),
(80,0,c)
);
},
{
closed = 1;
nodes = (
(330,418,o),
(336,425,o),
(336,436,cs),
(336,440,o),
(336,444,o),
(333,450,c),
(69,443,l),
(62,437,o),
(60,432,o),
(60,421,c),
(318,418,ls)
);
}
);
width = 317;
},
{
background = {
shapes = (
{
closed = 1;
nodes = (
(336,0,l),
(351,26,o),
(356,46,o),
(356,76,c),
(258,103,l),
(274,76,l),
(274,442,ls),
(274,555,o),
(285,567,o),
(390,567,cs),
(436,567,l),
(449,587,o),
(456,610,o),
(456,636,cs),
(456,693,o),
(426,723,o),
(368,723,cs),
(214,723,o),
(92,588,o),
(92,418,cs),
(92,80,l),
(103,97,l),
(46,69,ls),
(35,64,o),
(30,42,o),
(30,0,c)
);
}
);
};
layerId = "7B53E429-1BF0-49C5-9F57-63EEBF39C6CC";
shapes = (
{
closed = 1;
nodes = (
(336,0,l),
(351,26,o),
(356,46,o),
(356,76,c),
(258,103,l),
(275,76,l),
(275,457,ls),
(275,560,o),
(301,596,o),
(395,596,cs),
(443,596,l),
(454,613,o),
(460,637,o),
(460,656,cs),
(460,704,o),
(424,734,o),
(367,734,cs),
(226,734,o),
(92,566,o),
(92,376,cs),
(92,80,l),
(103,97,l),
(46,69,ls),
(35,64,o),
(30,43,o),
(30,0,c)
);
},
{
closed = 1;
nodes = (
(381,359,o),
(393,392,o),
(393,432,cs),
(393,442,o),
(391,453,o),
(387,462,c),
(52,442,l),
(39,433,o),
(31,395,o),
(31,362,c),
(359,350,l)
);
}
);
width = 386;
},
{
layerId = "649F6AC0-C354-445A-B217-A871C51F37B2";
shapes = (
{
closed = 1;
nodes = (
(257,0,l),
(271,9,o),
(275,17,o),
(275,37,c),
(194,57,l),
(207,39,l),
(207,465,ls),
(207,616,o),
(252,667,o),
(343,667,cs),
(404,667,l),
(408,676,o),
(411,686,o),
(411,694,cs),
(411,717,o),
(392,734,o),
(353,734,cs),
(234,734,o),
(126,613,o),
(126,424,cs),
(126,41,l),
(137,55,l),
(80,36,ls),
(69,32,o),
(64,22,o),
(64,0,c)
);
},
{
closed = 1;
nodes = (
(346,398,o),
(355,414,o),
(355,435,cs),
(355,441,o),
(354,447,o),
(350,454,c),
(64,443,l),
(54,436,o),
(50,420,o),
(50,401,c),
(331,396,ls)
);
}
);
width = 339.37838;
}
);
metricLeft = n;
unicode = 102;
},
{
color = 8;
glyphname = g;
kernLeft = g;
kernRight = g;
layers = (
{
anchors = (
{
name = bottom;
pos = (281,-270);
},
{
name = top;
pos = (268,443);
}
);
background = {
shapes = (
{
closed = 1;
nodes = (
(425,-270,o),
(525,-200,o),
(525,-89,cs),
(525,1,o),
(454,51,o),
(307,66,cs),
(233,74,o),
(219,79,o),
(219,101,cs),
(219,111,o),
(223,120,o),
(232,134,c),
(210,149,l),
(134,122,o),
(89,74,o),
(89,21,cs),
(89,-31,o),
(130,-55,o),
(238,-65,cs),
(342,-75,o),
(373,-93,o),
(373,-142,cs),
(373,-185,o),
(345,-210,o),
(297,-210,cs),
(233,-210,o),
(204,-168,o),
(204,-79,c),
(177,-69,o),
(146,-63,o),
(120,-63,cs),
(65,-63,o),
(35,-89,o),
(35,-136,cs),
(35,-218,o),
(124,-270,o),
(264,-270,cs)
);
},
{
closed = 1;
nodes = (
(228,182,o),
(212,215,o),
(212,291,cs),
(212,366,o),
(229,400,o),
(265,400,cs),
(300,400,o),
(315,366,o),
(315,289,cs),
(315,213,o),
(301,182,o),
(265,182,cs)
);
},
{
closed = 1;
nodes = (
(392,115,o),
(491,189,o),
(491,288,cs),
(491,335,o),
(469,373,o),
(429,396,c),
(431,390,l),
(441,387,o),
(452,386,o),
(465,386,cs),
(508,386,o),
(530,403,o),
(530,434,cs),
(530,453,o),
(522,481,o),
(511,501,c),
(341,432,l),
(404,426,l),
(372,450,o),
(327,462,o),
(272,462,cs),
(135,462,o),
(36,388,o),
(36,286,cs),
(36,187,o),
(131,115,o),
(261,115,cs)
);
}
);
};
layerId = "7B53E429-1BF0-49C5-9F57-63EEBF39C6CC";
shapes = (
{
closed = 1;
nodes = (
(425,-270,o),
(525,-200,o),
(525,-89,cs),
(525,1,o),
(454,51,o),
(307,66,cs),
(233,74,o),
(219,79,o),
(219,101,cs),
(219,111,o),
(223,120,o),
(232,134,c),
(210,149,l),
(134,122,o),
(89,74,o),
(89,21,cs),
(89,-31,o),
(130,-55,o),
(238,-65,cs),
(342,-75,o),
(373,-93,o),
(373,-142,cs),
(373,-185,o),
(345,-210,o),
(297,-210,cs),
(233,-210,o),
(204,-168,o),
(204,-79,c),
(177,-69,o),
(146,-63,o),
(120,-63,cs),
(65,-63,o),
(35,-89,o),
(35,-136,cs),
(35,-218,o),
(124,-270,o),
(264,-270,cs)
);
},
{
closed = 1;
nodes = (
(388,114,o),
(491,191,o),
(491,300,cs),
(491,399,o),
(409,462,o),
(278,462,cs),
(134,462,o),
(36,385,o),
(36,273,cs),
(36,173,o),
(112,114,o),
(242,114,cs)
);
},
{
closed = 1;
nodes = (
(232,179,o),
(212,221,o),
(212,294,cs),
(212,361,o),
(229,397,o),
(260,397,cs),
(294,397,o),
(315,353,o),
(315,280,cs),
(315,215,o),
(297,179,o),
(265,179,cs)
);
},
{
closed = 1;
nodes = (
(507,386,o),
(530,403,o),
(530,434,cs),
(530,452,o),
(522,481,o),
(511,501,c),
(341,432,l),
(354,400,l),
(379,393,o),
(436,386,o),
(465,386,cs)
);
}
);
width = 540;
},
{
anchors = (
{
name = bottom;
pos = (235,-270);
},
{
name = top;
pos = (223,443);
}
);
background = {
shapes = (
{
closed = 1;
nodes = (
(347,-270,o),
(439,-204,o),
(439,-94,cs),
(439,2,o),
(354,9,o),
(262,15,cs),
(179,20,o),
(143,23,o),
(143,68,cs),
(143,92,o),
(158,119,o),
(177,134,c),
(164,137,l),
(144,122,o),
(118,85,o),
(118,50,cs),
(118,-8,o),
(181,-10,o),
(249,-15,cs),
(345,-22,o),
(410,-25,o),
(410,-109,cs),
(410,-191,o),
(335,-250,o),
(237,-250,cs),
(130,-250,o),
(83,-196,o),
(83,-107,c),
(79,-102,o),
(74,-99,o),
(65,-99,cs),
(50,-99,o),
(45,-113,o),
(45,-134,cs),
(45,-205,o),
(106,-270,o),
(231,-270,cs)
);
},
{
closed = 1;
nodes = (
(133,145,o),
(88,196,o),
(88,293,cs),
(88,396,o),
(132,442,o),
(217,442,cs),
(306,442,o),
(353,393,o),
(353,296,cs),
(353,193,o),
(316,145,o),
(219,145,cs)
);
},
{
closed = 1;
nodes = (
(314,125,o),
(385,196,o),
(385,303,cs),
(385,352,o),
(370,394,o),
(341,425,c),
(341,421,l),
(363,419,o),
(391,417,o),
(415,417,cs),
(440,417,o),
(468,420,o),
(468,438,cs),
(468,442,o),
(467,447,o),
(464,451,c),
(328,429,l),
(337,428,l),
(310,450,o),
(273,462,o),
(224,462,cs),
(126,462,o),
(55,388,o),
(55,286,cs),
(55,187,o),
(116,125,o),
(215,125,cs)
);
}
);
};
layerId = "E1BF09ED-4302-4AD3-9939-8FDA35DE0FE8";
shapes = (
{
closed = 1;
nodes = (
(342,-270,o),
(429,-203,o),
(429,-108,cs),
(429,-30,o),
(379,4,o),
(252,13,cs),
(149,20,o),
(133,28,o),
(133,65,cs),
(133,91,o),
(146,118,o),
(167,134,c),
(154,137,l),
(129,118,o),
(108,79,o),
(108,50,cs),
(108,7,o),
(136,-7,o),
(239,-15,cs),
(366,-25,o),
(400,-46,o),
(400,-117,cs),
(400,-195,o),
(327,-250,o),
(223,-250,cs),
(126,-250,o),
(73,-200,o),
(73,-107,c),
(69,-101,o),
(63,-99,o),
(55,-99,cs),
(42,-99,o),
(35,-107,o),
(35,-128,cs),
(35,-212,o),
(109,-270,o),
(217,-270,cs)
);
},
{
closed = 1;
nodes = (
(312,125,o),
(384,195,o),
(384,294,cs),
(384,392,o),
(318,462,o),
(226,462,cs),
(124,462,o),
(55,392,o),
(55,288,cs),
(55,190,o),
(117,125,o),
(207,125,cs)
);
},
{
closed = 1;
nodes = (
(128,145,o),
(88,192,o),
(88,302,cs),
(88,385,o),
(139,443,o),
(213,443,cs),
(305,443,o),
(353,387,o),
(353,284,cs),
(353,204,o),
(298,145,o),
(222,145,cs)
);
},
{
closed = 1;
nodes = (
(443,415,o),
(458,423,o),
(458,440,cs),
(458,443,o),
(456,447,o),
(451,450,c),
(318,428,l),
(323,424,l),
(339,415,o),
(385,415,o),
(412,415,cs)
);
}
);
width = 458;
},
{
anchors = (
{
name = bottom;
pos = (250,-270);
},
{
name = top;
pos = (237,443);
}
);
layerId = "649F6AC0-C354-445A-B217-A871C51F37B2";
shapes = (
{
closed = 1;
nodes = (
(369,-270,o),
(461,-202,o),
(461,-102,cs),
(461,-20,o),
(403,19,o),
(270,30,cs),
(176,37,o),
(161,44,o),
(161,77,cs),
(161,98,o),
(171,119,o),
(188,134,c),
(173,141,l),
(130,119,o),
(102,78,o),
(102,40,cs),
(102,-5,o),
(134,-22,o),
(239,-31,cs),
(358,-41,o),
(391,-61,o),
(391,-125,cs),
(391,-192,o),
(333,-237,o),
(247,-237,cs),
(161,-237,o),
(116,-189,o),
(116,-98,c),
(104,-90,o),
(90,-87,o),
(76,-87,cs),
(50,-87,o),
(35,-102,o),
(35,-130,cs),
(35,-214,o),
(113,-270,o),
(232,-270,cs)
);
},
{
closed = 1;
nodes = (
(337,122,o),
(419,194,o),
(419,296,cs),
(419,394,o),
(347,462,o),
(242,462,cs),
(127,462,o),
(49,390,o),
(49,284,cs),
(49,185,o),
(116,122,o),
(218,122,cs)
);
},
{
closed = 1;
nodes = (
(162,156,o),
(128,202,o),
(128,300,cs),
(128,377,o),
(168,428,o),
(228,428,cs),
(302,428,o),
(341,376,o),
(341,283,cs),
(341,207,o),
(298,156,o),
(236,156,cs)
);
},
{
closed = 1;
nodes = (
(464,405,o),
(481,416,o),
(481,438,cs),
(481,446,o),
(478,458,o),
(471,466,c),
(326,429,l),
(333,416,l),
(352,407,o),
(401,405,o),
(429,405,cs)
);
}
);
width = 484.23077;
}
);
metricLeft = o;
unicode = 103;
},
{
color = 4;
glyphname = h;
kernLeft = l;
kernRight = n;
layers = (
{
anchors = (
{
name = bottom;
pos = (281,0);
},
{
name = center;
pos = (132,560);
},
{
name = top;
pos = (132,701);
}
);
layerId = "E1BF09ED-4302-4AD3-9939-8FDA35DE0FE8";
shapes = (
{
closed = 1;
nodes = (
(194,0,ls),
(208,0,o),
(211,4,o),
(211,18,c),
(137,34,l),
(149,22,l),
(149,347,l),
(146,338,l),
(193,397,o),
(265,436,o),
(329,436,cs),
(396,436,o),
(427,395,o),
(427,308,cs),
(427,17,l),
(438,34,l),
(381,20,ls),
(370,18,o),
(365,12,o),
(365,0,c),
(506,0,ls),
(518,0,o),
(521,4,o),
(521,18,c),
(447,34,l),
(459,22,l),
(459,297,ls),
(459,408,o),
(421,462,o),
(342,462,cs),
(274,462,o),
(196,420,o),
(149,358,c),
(144,358,l),
(147,354,l),
(147,687,ls),
(147,720,o),
(137,734,o),
(114,734,cs),
(105,734,o),
(93,732,o),
(55,726,c),
(55,712,o),
(59,707,o),
(69,706,cs),
(129,700,l),
(117,715,l),
(117,17,l),
(128,34,l),
(71,20,ls),
(60,18,o),
(55,12,o),
(55,0,c)
);
}
);
width = 561;
},
{
anchors = (
{
name = bottom;
pos = (323,0);
},
{
name = center;
pos = (163,542);
},
{
name = top;
pos = (153,701);
}
);
layerId = "7B53E429-1BF0-49C5-9F57-63EEBF39C6CC";
shapes = (
{
closed = 1;
nodes = (
(281,0,l),
(296,26,o),
(301,46,o),
(301,76,c),
(247,91,l),
(259,76,l),
(259,315,l),
(256,300,l),
(262,305,o),
(296,341,o),
(340,341,cs),
(368,341,o),
(382,321,o),
(382,282,c),
(382,70,l),
(392,87,l),
(356,69,ls),
(345,64,o),
(340,41,o),
(340,0,c),
(606,0,l),
(621,26,o),
(626,46,o),
(626,76,c),
(553,101,l),
(564,85,l),
(564,311,ls),
(564,412,o),
(527,462,o),
(450,462,cs),
(392,462,o),
(323,429,o),
(259,373,c),
(239,373,l),
(249,361,l),
(249,662,ls),
(249,712,o),
(224,734,o),
(167,734,cs),
(136,734,o),
(94,729,o),
(15,717,c),
(15,677,o),
(21,653,o),
(31,650,cs),
(88,630,l),
(77,646,l),
(77,80,l),
(88,97,l),
(31,69,ls),
(20,64,o),
(15,41,o),
(15,0,c)
);
}
);
width = 646;
},
{
anchors = (
{
name = bottom;
pos = (294,0);
},
{
name = center;
pos = (142,555);
},
{
name = top;
pos = (139,701);
}
);
layerId = "649F6AC0-C354-445A-B217-A871C51F37B2";
shapes = (
{
closed = 1;
nodes = (
(222,0,ls),
(236,9,o),
(240,17,o),
(240,37,c),
(173,53,l),
(185,39,l),
(185,336,l),
(182,326,l),
(216,368,o),
(275,405,o),
(332,405,cs),
(387,405,o),
(413,371,o),
(413,299,cs),
(413,34,l),
(423,51,l),
(373,36,ls),
(362,33,o),
(357,22,o),
(357,0,c),
(539,0,ls),
(552,9,o),
(555,17,o),
(555,37,c),
(482,56,l),
(493,43,l),
(493,301,ls),
(493,409,o),
(456,462,o),
(377,462,cs),
(312,462,o),
(237,423,o),
(185,362,c),
(175,362,l),
(180,356,l),
(180,679,ls),
(180,718,o),
(165,734,o),
(131,734,cs),
(115,734,o),
(93,731,o),
(42,723,c),
(42,701,o),
(47,690,o),
(57,688,cs),
(116,677,l),
(104,692,l),
(104,38,l),
(115,55,l),
(58,36,ls),
(47,33,o),
(42,22,o),
(42,0,c)
);
}
);
width = 588.56757;
}
);
metricLeft = l;
metricRight = n;
unicode = 104;
},
{
color = 1;
glyphname = i;
kernLeft = i;
kernRight = i;
layers = (
{
background = {
shapes = (
{
closed = 1;
nodes = (
(346,0,l),
(361,26,o),
(366,46,o),
(366,76,c),
(272,100,l),
(284,85,l),
(284,390,ls),
(284,436,o),
(260,462,o),
(215,462,cs),
(146,462,o),
(88,454,o),
(30,445,c),
(30,404,o),
(36,381,o),
(46,378,cs),
(114,359,l),
(102,374,l),
(102,80,l),
(113,97,l),
(46,69,ls),
(35,65,o),
(30,44,o),
(30,0,c)
);
},
{
closed = 1;
nodes = (
(242,529,o),
(288,569,o),
(288,623,cs),
(288,679,o),
(254,717,o),
(192,717,cs),
(143,717,o),
(98,677,o),
(98,623,cs),
(98,567,o),
(131,529,o),
(192,529,cs)
);
}
);
};
layerId = "7B53E429-1BF0-49C5-9F57-63EEBF39C6CC";
shapes = (
{
ref = idotless;
},
{
pos = (93,0);
ref = dotaccentcomb;
}
);
width = 376;
},
{
background = {
shapes = (
{
closed = 1;
nodes = (
(199,0,ls),
(213,0,o),
(216,4,o),
(216,18,c),
(142,34,l),
(154,22,l),
(154,400,ls),
(154,436,o),
(143,451,o),
(119,451,cs),
(110,451,o),
(98,449,o),
(60,443,c),
(60,429,o),
(64,424,o),
(74,423,cs),
(134,417,l),
(122,432,l),
(122,22,l),
(133,34,l),
(76,20,ls),
(65,18,o),
(60,12,o),
(60,0,c)
);
},
{
closed = 1;
nodes = (
(154,564,o),
(167,576,o),
(167,592,cs),
(167,609,o),
(157,620,o),
(138,620,cs),
(124,620,o),
(110,608,o),
(110,592,cs),
(110,576,o),
(120,564,o),
(138,564,cs)
);
}
);
};
layerId = "E1BF09ED-4302-4AD3-9939-8FDA35DE0FE8";
shapes = (
{
ref = idotless;
},
{
pos = (107,0);
ref = dotaccentcomb;
}
);
width = 271;
},
{
layerId = "649F6AC0-C354-445A-B217-A871C51F37B2";
shapes = (
{
ref = idotless;
},
{
pos = (102,0);
ref = dotaccentcomb;
}
);
width = 305;
}
);
unicode = 105;
},
{
color = 4;
glyphname = idotless;
kernLeft = i;
kernRight = i;
layers = (
{
anchors = (
{
name = bottom;
pos = (135,0);
},
{
name = ogonek;
pos = (199,0);
},
{
name = top;
pos = (135,443);
}
);
layerId = "E1BF09ED-4302-4AD3-9939-8FDA35DE0FE8";
shapes = (
{
closed = 1;
nodes = (
(199,0,ls),
(213,0,o),
(216,4,o),
(216,18,c),
(142,34,l),
(154,22,l),
(154,400,ls),
(154,436,o),
(143,451,o),
(119,451,cs),
(110,451,o),
(98,449,o),
(60,443,c),
(60,429,o),
(64,424,o),
(74,423,cs),
(134,417,l),
(122,432,l),
(122,22,l),
(133,34,l),
(76,20,ls),
(65,18,o),
(60,12,o),
(60,0,c)
);
}
);
width = 271;
},
{
anchors = (
{
name = bottom;
pos = (188,0);
},
{
name = ogonek;
pos = (346,0);
},
{
name = top;
pos = (188,443);
}
);
layerId = "7B53E429-1BF0-49C5-9F57-63EEBF39C6CC";
shapes = (
{
closed = 1;
nodes = (
(346,0,l),
(361,26,o),
(366,46,o),
(366,76,c),
(272,100,l),
(284,85,l),
(284,390,ls),
(284,436,o),
(260,462,o),
(215,462,cs),
(146,462,o),
(88,454,o),
(30,445,c),
(30,404,o),
(36,381,o),
(46,378,cs),
(114,359,l),
(102,374,l),
(102,80,l),
(113,97,l),
(46,69,ls),
(35,65,o),
(30,44,o),
(30,0,c)
);
}
);
width = 376;
},
{
anchors = (
{
name = bottom;
pos = (152,0);
},
{
name = ogonek;
pos = (247,0);
},
{
name = top;
pos = (152,443);
}
);
layerId = "649F6AC0-C354-445A-B217-A871C51F37B2";
shapes = (
{
closed = 1;
nodes = (
(247,0,ls),
(261,9,o),
(265,17,o),
(265,37,c),
(185,56,l),
(197,43,l),
(197,397,ls),
(197,436,o),
(181,454,o),
(151,454,cs),
(122,454,o),
(95,450,o),
(50,444,c),
(50,421,o),
(55,410,o),
(65,409,cs),
(127,398,l),
(115,413,l),
(115,41,l),
(126,55,l),
(66,36,ls),
(55,33,o),
(50,23,o),
(50,0,c)
);
}
);
width = 305.05406;
}
);
unicode = 305;
},
{
color = 4;
glyphname = jdotless;
kernLeft = j;
kernRight = j;
layers = (
{
anchors = (
{
name = bottom;
pos = (121,-270);
},
{
name = top;
pos = (121,443);
}
);
background = {
shapes = (
{
closed = 1;
nodes = (
(199,0,ls),
(213,0,o),
(216,4,o),
(216,18,c),
(142,34,l),
(154,22,l),
(154,400,ls),
(154,436,o),
(143,451,o),
(119,451,cs),
(110,451,o),
(98,449,o),
(60,443,c),
(60,429,o),
(64,424,o),
(74,423,cs),
(134,417,l),
(122,432,l),
(122,22,l),
(133,34,l),
(76,20,ls),
(65,18,o),
(60,12,o),
(60,0,c)
);
},
{
closed = 1;
nodes = (
(154,564,o),
(167,576,o),
(167,592,cs),
(167,609,o),
(157,620,o),
(138,620,cs),
(124,620,o),
(110,608,o),
(110,592,cs),
(110,576,o),
(120,564,o),
(138,564,cs)
);
}
);
};
layerId = "E1BF09ED-4302-4AD3-9939-8FDA35DE0FE8";
shapes = (
{
closed = 1;
nodes = (
(94,-270,o),
(155,-135,o),
(154,52,cs),
(154,400,ls),
(154,436,o),
(143,451,o),
(119,451,cs),
(110,451,o),
(98,449,o),
(60,443,c),
(60,429,o),
(64,424,o),
(74,423,cs),
(134,417,l),
(122,432,l),
(122,-13,ls),
(122,-184,o),
(89,-235,o),
(-23,-235,c),
(-26,-239,o),
(-27,-245,o),
(-27,-249,cs),
(-27,-261,o),
(-19,-270,o),
(5,-270,cs)
);
}
);
width = 242;
},
{
anchors = (
{
name = bottom;
pos = (182,-270);
},
{
name = top;
pos = (182,443);
}
);
background = {
shapes = (
{
closed = 1;
nodes = (
(129,-270,o),
(284,-80,o),
(284,92,cs),
(284,390,ls),
(284,436,o),
(260,462,o),
(215,462,cs),
(161,462,o),
(109,457,o),
(30,445,c),
(30,405,o),
(36,381,o),
(46,378,cs),
(114,359,l),
(102,374,l),
(102,-13,ls),
(102,-138,o),
(96,-143,o),
(-56,-143,c),
(-67,-160,o),
(-75,-189,o),
(-75,-214,cs),
(-75,-246,o),
(-48,-270,o),
(-10,-270,cs)
);
},
{
closed = 0;
nodes = (
(98,17,ls),
(98,-88,o),
(65,-117,o),
(-57,-117,c),
(-68,-135,o),
(-74,-164,o),
(-74,-182,cs),
(-74,-237,o),
(-37,-270,o),
(13,-270,cs),
(157,-270,o),
(284,-56,o),
(284,188,cs)
);
}
);
};
layerId = "7B53E429-1BF0-49C5-9F57-63EEBF39C6CC";
shapes = (
{
closed = 1;
nodes = (
(157,-270,o),
(284,-56,o),
(284,188,cs),
(284,390,ls),
(284,436,o),
(260,462,o),
(215,462,cs),
(161,462,o),
(109,457,o),
(30,445,c),
(30,405,o),
(36,381,o),
(46,378,cs),
(114,359,l),
(102,374,l),
(102,-13,ls),
(102,-107,o),
(68,-133,o),
(-57,-133,c),
(-68,-149,o),
(-74,-175,o),
(-74,-191,cs),
(-74,-240,o),
(-37,-270,o),
(13,-270,cs)
);
}
);
width = 364;
},
{
anchors = (
{
name = bottom;
pos = (141,-270);
},
{
name = top;
pos = (141,443);
}
);
layerId = "649F6AC0-C354-445A-B217-A871C51F37B2";
shapes = (
{
closed = 1;
nodes = (
(115,-270,o),
(197,-110,o),
(197,96,cs),
(197,397,ls),
(197,436,o),
(181,454,o),
(151,454,cs),
(126,454,o),
(101,451,o),
(50,444,c),
(50,421,o),
(55,410,o),
(65,409,cs),
(127,398,l),
(115,413,l),
(115,-13,ls),
(115,-159,o),
(82,-202,o),
(-34,-202,c),
(-39,-210,o),
(-42,-222,o),
(-42,-230,cs),
(-42,-254,o),
(-25,-270,o),
(7,-270,cs)
);
}
);
width = 281.56757;
}
);
unicode = 567;
},
{
color = 4;
glyphname = k;
kernLeft = l;
kernRight = k;
layers = (
{
anchors = (
{
name = bottom;
pos = (247,0);
},
{
name = top;
pos = (247,443);
}
);
background = {
shapes = (
{
closed = 1;
nodes = (
(443,-12,o),
(453,-1,o),
(453,13,c),
(370,50,o),
(275,142,o),
(200,255,c),
(198,250,l),
(397,422,l),
(357,402,l),
(414,420,ls),
(427,424,o),
(430,426,o),
(430,443,c),
(297,443,l),
(282,439,o),
(279,436,o),
(279,423,c),
(345,405,l),
(340,408,l),
(163,253,l),
(299,50,o),
(389,-12,o),
(429,-12,cs)
);
},
{
closed = 1;
nodes = (
(194,0,ls),
(208,0,o),
(211,4,o),
(211,18,c),
(138,34,l),
(149,22,l),
(149,683,l),
(149,719,o),
(138,734,o),
(114,734,cs),
(105,734,o),
(93,732,o),
(55,726,c),
(55,712,o),
(59,707,o),
(69,706,cs),
(129,700,l),
(117,715,l),
(117,22,l),
(128,34,l),
(71,20,ls),
(60,17,o),
(55,12,o),
(55,0,c)
);
}
);
};
layerId = "E1BF09ED-4302-4AD3-9939-8FDA35DE0FE8";
shapes = (
{
closed = 1;
nodes = (
(194,0,ls),
(208,0,o),
(211,4,o),
(211,18,c),
(138,34,l),
(149,22,l),
(149,683,l),
(149,719,o),
(138,734,o),
(114,734,cs),
(105,734,o),
(93,732,o),
(55,726,c),
(55,712,o),
(59,707,o),
(69,706,cs),
(129,700,l),
(117,715,l),
(117,22,l),
(128,34,l),
(71,20,ls),
(60,17,o),
(55,12,o),
(55,0,c)
);
},
{
closed = 1;
nodes = (
(443,-12,o),
(456,-2,o),
(456,12,c),
(373,49,o),
(275,142,o),
(200,255,c),
(198,250,l),
(397,422,l),
(357,402,l),
(414,420,ls),
(427,424,o),
(430,426,o),
(430,443,c),
(302,443,l),
(295,439,o),
(291,431,o),
(291,422,c),
(345,408,l),
(345,412,l),
(163,253,l),
(299,50,o),
(389,-12,o),
(429,-12,cs)
);
}
);
width = 473;
},
{
anchors = (
{
name = bottom;
pos = (329,0);
},
{
name = top;
pos = (329,443);
}
);
background = {
shapes = (
{
closed = 1;
nodes = (
(257,240,l),
(387,19,o),
(423,-12,o),
(512,-12,cs),
(587,-12,o),
(633,21,o),
(633,75,c),
(557,119,o),
(467,206,o),
(406,295,c),
(382,228,l),
(551,384,l),
(469,329,l),
(596,374,ls),
(608,378,o),
(612,395,o),
(612,443,c),
(344,443,l),
(330,419,o),
(324,396,o),
(324,367,c),
(390,349,l),
(401,370,l)
);
},
{
closed = 1;
nodes = (
(98,97,l),
(31,69,ls),
(20,65,o),
(15,44,o),
(15,0,c),
(291,0,l),
(306,26,o),
(311,46,o),
(311,76,c),
(217,100,l),
(269,75,l),
(269,662,ls),
(269,708,o),
(245,734,o),
(200,734,cs),
(131,734,o),
(73,726,o),
(15,717,c),
(15,676,o),
(21,653,o),
(31,650,cs),
(99,631,l),
(87,646,l),
(87,80,l)
);
}
);
};
layerId = "7B53E429-1BF0-49C5-9F57-63EEBF39C6CC";
shapes = (
{
closed = 1;
nodes = (
(291,0,l),
(306,26,o),
(311,46,o),
(311,76,c),
(252,91,l),
(269,75,l),
(269,662,ls),
(269,708,o),
(245,734,o),
(200,734,cs),
(131,734,o),
(73,726,o),
(15,717,c),
(15,676,o),
(21,653,o),
(31,650,cs),
(99,631,l),
(87,646,l),
(87,80,l),
(98,97,l),
(31,69,ls),
(20,65,o),
(15,44,o),
(15,0,c)
);
},
{
closed = 1;
nodes = (
(587,-12,o),
(633,21,o),
(633,75,c),
(557,119,o),
(467,206,o),
(406,295,c),
(382,228,l),
(551,384,l),
(469,329,l),
(596,374,ls),
(608,378,o),
(612,395,o),
(612,443,c),
(344,443,l),
(330,419,o),
(324,396,o),
(324,367,c),
(390,349,l),
(401,370,l),
(257,240,l),
(371,46,o),
(432,-12,o),
(520,-12,cs)
);
}
);
width = 638;
},
{
anchors = (
{
name = bottom;
pos = (273,0);
},
{
name = top;
pos = (273,443);
}
);
layerId = "649F6AC0-C354-445A-B217-A871C51F37B2";
shapes = (
{
closed = 1;
nodes = (
(226,0,ls),
(240,9,o),
(244,17,o),
(244,37,c),
(175,53,l),
(188,39,l),
(188,676,l),
(188,716,o),
(173,734,o),
(142,734,cs),
(114,734,o),
(86,730,o),
(42,723,c),
(42,700,o),
(47,690,o),
(57,688,cs),
(119,677,l),
(107,692,l),
(107,41,l),
(118,55,l),
(58,36,ls),
(47,32,o),
(42,23,o),
(42,0,c)
);
},
{
closed = 1;
nodes = (
(490,-12,o),
(514,6,o),
(514,33,c),
(433,72,o),
(337,163,o),
(267,268,c),
(258,242,l),
(447,410,l),
(393,378,l),
(473,405,ls),
(486,409,o),
(489,416,o),
(489,443,c),
(315,443,l),
(306,432,o),
(302,420,o),
(302,405,c),
(359,388,l),
(364,399,l),
(194,249,l),
(322,49,o),
(403,-12,o),
(458,-12,cs)
);
}
);
width = 526.51351;
}
);
unicode = 107;
},
{
color = 4;
glyphname = kgreenlandic;
kernLeft = n;
kernRight = k;
layers = (
{
layerId = "E1BF09ED-4302-4AD3-9939-8FDA35DE0FE8";
shapes = (
{
closed = 1;
nodes = (
(199,0,ls),
(213,0,o),
(216,4,o),
(216,18,c),
(143,34,l),
(154,22,l),
(154,400,l),
(154,436,o),
(143,451,o),
(119,451,cs),
(110,451,o),
(98,449,o),
(60,443,c),
(60,429,o),
(64,424,o),
(74,423,cs),
(134,417,l),
(122,432,l),
(122,22,l),
(133,34,l),
(76,20,ls),
(65,17,o),
(60,12,o),
(60,0,c)
);
},
{
closed = 1;
nodes = (
(448,-12,o),
(461,-2,o),
(461,12,c),
(378,46,o),
(280,131,o),
(205,235,c),
(203,230,l),
(402,422,l),
(362,402,l),
(419,420,ls),
(432,424,o),
(435,426,o),
(435,443,c),
(307,443,l),
(300,439,o),
(296,431,o),
(296,422,c),
(350,408,l),
(350,412,l),
(168,233,l),
(304,45,o),
(394,-12,o),
(434,-12,cs)
);
}
);
width = 478;
},
{
layerId = "7B53E429-1BF0-49C5-9F57-63EEBF39C6CC";
shapes = (
{
closed = 1;
nodes = (
(296,0,l),
(311,26,o),
(316,46,o),
(316,76,c),
(257,91,l),
(274,75,l),
(274,379,ls),
(274,425,o),
(250,451,o),
(205,451,cs),
(140,451,o),
(109,446,o),
(30,434,c),
(30,393,o),
(36,370,o),
(46,367,cs),
(103,347,l),
(92,363,l),
(92,80,l),
(103,97,l),
(46,69,ls),
(35,65,o),
(30,44,o),
(30,0,c)
);
},
{
closed = 1;
nodes = (
(592,-12,o),
(638,21,o),
(638,75,c),
(562,115,o),
(472,186,o),
(411,275,c),
(387,208,l),
(556,384,l),
(474,329,l),
(601,374,ls),
(613,378,o),
(617,395,o),
(617,443,c),
(349,443,l),
(335,419,o),
(329,396,o),
(329,367,c),
(395,349,l),
(406,370,l),
(262,220,l),
(376,41,o),
(437,-12,o),
(525,-12,cs)
);
}
);
width = 643;
},
{
layerId = "649F6AC0-C354-445A-B217-A871C51F37B2";
shapes = (
{
closed = 1;
nodes = (
(231,0,ls),
(245,9,o),
(249,17,o),
(249,37,c),
(180,53,l),
(193,39,l),
(193,393,l),
(193,433,o),
(178,451,o),
(147,451,cs),
(120,451,o),
(101,448,o),
(50,440,c),
(50,417,o),
(55,407,o),
(65,405,cs),
(124,394,l),
(112,409,l),
(112,41,l),
(123,55,l),
(66,36,ls),
(55,32,o),
(50,23,o),
(50,0,c)
);
},
{
closed = 1;
nodes = (
(495,-12,o),
(519,6,o),
(519,33,c),
(438,69,o),
(342,149,o),
(272,248,c),
(263,222,l),
(452,410,l),
(398,378,l),
(478,405,ls),
(491,409,o),
(494,416,o),
(494,443,c),
(320,443,l),
(311,432,o),
(307,420,o),
(307,405,c),
(364,388,l),
(369,399,l),
(199,229,l),
(327,44,o),
(408,-12,o),
(463,-12,cs)
);
}
);
width = 531.51351;
}
);
metricLeft = n;
metricRight = k;
unicode = 312;
},
{
color = 4;
glyphname = l;
kernLeft = l;
kernRight = l;
layers = (
{
anchors = (
{
name = "#exit";
pos = (266,366);
},
{
name = bottom;
pos = (133,0);
},
{
name = center;
pos = (133,366);
},
{
name = top;
pos = (133,700);
},
{
name = topright;
pos = (209,500);
}
);
background = {
shapes = (
{
closed = 1;
nodes = (
(149,683,l),
(149,719,o),
(138,734,o),
(114,734,cs),
(105,734,o),
(93,732,o),
(55,726,c),
(55,712,o),
(59,707,o),
(69,706,cs),
(129,700,l),
(117,715,l),
(117,22,l),
(128,34,l),
(71,20,ls),
(60,18,o),
(55,12,o),
(55,0,c),
(194,0,ls),
(208,0,o),
(211,4,o),
(211,18,c),
(137,34,l),
(149,22,l)
);
}
);
};
layerId = "E1BF09ED-4302-4AD3-9939-8FDA35DE0FE8";
shapes = (
{
closed = 1;
nodes = (
(194,0,ls),
(208,0,o),
(211,4,o),
(211,18,c),
(138,34,l),
(149,22,l),
(149,683,ls),
(149,719,o),
(138,734,o),
(114,734,cs),
(105,734,o),
(93,732,o),
(55,726,c),
(55,712,o),
(59,707,o),
(69,706,cs),
(129,700,l),
(117,715,l),
(117,22,l),
(128,34,l),
(71,20,ls),
(60,17,o),
(55,12,o),
(55,0,c)
);
}
);
width = 266;
},
{
anchors = (
{
name = "#exit";
pos = (356,367);
},
{
name = bottom;
pos = (178,0);
},
{
name = center;
pos = (178,367);
},
{
name = top;
pos = (178,858);
},
{
name = topright;
pos = (336,858);
}
);
layerId = "7B53E429-1BF0-49C5-9F57-63EEBF39C6CC";
shapes = (
{
closed = 1;
nodes = (
(331,0,l),
(346,26,o),
(351,46,o),
(351,76,c),
(257,100,l),
(269,85,l),
(269,662,ls),
(269,708,o),
(245,734,o),
(200,734,cs),
(131,734,o),
(73,726,o),
(15,717,c),
(15,676,o),
(21,653,o),
(31,650,cs),
(99,631,l),
(87,646,l),
(87,80,l),
(98,97,l),
(31,69,ls),
(20,65,o),
(15,44,o),
(15,0,c)
);
}
);
width = 356;
},
{
anchors = (
{
name = "#exit";
pos = (295,366);
},
{
name = bottom;
pos = (147,0);
},
{
name = center;
pos = (147,366);
},
{
name = top;
pos = (147,751);
},
{
name = topright;
pos = (250,616);
}
);
layerId = "649F6AC0-C354-445A-B217-A871C51F37B2";
shapes = (
{
closed = 1;
nodes = (
(239,0,ls),
(253,9,o),
(257,17,o),
(257,37,c),
(176,56,l),
(188,43,l),
(188,676,ls),
(188,716,o),
(173,734,o),
(142,734,cs),
(114,734,o),
(86,730,o),
(42,723,c),
(42,700,o),
(47,690,o),
(57,688,cs),
(119,677,l),
(107,692,l),
(107,41,l),
(118,55,l),
(58,36,ls),
(47,32,o),
(42,23,o),
(42,0,c)
);
}
);
width = 295.18919;
}
);
unicode = 108;
},
{
color = 4;
glyphname = m;
kernLeft = n;
kernRight = n;
layers = (
{
anchors = (
{
name = bottom;
pos = (473,0);
},
{
name = top;
pos = (473,443);
}
);
layerId = "7B53E429-1BF0-49C5-9F57-63EEBF39C6CC";
shapes = (
{
closed = 1;
nodes = (
(296,0,l),
(311,26,o),
(316,46,o),
(316,76,c),
(262,91,l),
(274,76,l),
(274,315,l),
(271,300,l),
(276,305,o),
(308,341,o),
(348,341,cs),
(374,341,o),
(387,321,o),
(387,282,cs),
(387,70,l),
(397,87,l),
(361,69,ls),
(350,64,o),
(345,41,o),
(345,0,c),
(591,0,l),
(606,26,o),
(611,46,o),
(611,76,c),
(557,91,l),
(569,76,l),
(569,310,ls),
(569,412,o),
(537,462,o),
(462,462,cs),
(404,462,o),
(337,429,o),
(274,373,c),
(260,373,l),
(264,371,l),
(264,379,ls),
(264,429,o),
(239,451,o),
(182,451,cs),
(151,451,o),
(109,446,o),
(30,434,c),
(30,394,o),
(36,370,o),
(46,367,cs),
(103,347,l),
(92,363,l),
(92,80,l),
(103,97,l),
(46,69,ls),
(35,64,o),
(30,41,o),
(30,0,c)
);
},
{
closed = 1;
nodes = (
(906,0,l),
(921,26,o),
(926,46,o),
(926,76,c),
(853,101,l),
(864,85,l),
(864,311,ls),
(864,412,o),
(832,462,o),
(757,462,cs),
(699,462,o),
(632,429,o),
(569,373,c),
(552,373,l),
(569,303,l),
(579,313,o),
(608,341,o),
(643,341,cs),
(669,341,o),
(682,321,o),
(682,282,cs),
(682,70,l),
(692,87,l),
(656,69,ls),
(645,64,o),
(640,41,o),
(640,0,c)
);
}
);
width = 946;
},
{
anchors = (
{
name = bottom;
pos = (423,0);
},
{
name = top;
pos = (423,443);
}
);
layerId = "E1BF09ED-4302-4AD3-9939-8FDA35DE0FE8";
shapes = (
{
closed = 1;
nodes = (
(199,0,ls),
(213,0,o),
(216,4,o),
(216,18,c),
(142,34,l),
(154,22,l),
(154,351,l),
(145,330,l),
(189,394,o),
(261,436,o),
(324,436,cs),
(388,436,o),
(417,395,o),
(417,308,cs),
(417,22,l),
(428,34,l),
(371,20,ls),
(360,18,o),
(355,12,o),
(355,0,c),
(496,0,ls),
(508,0,o),
(511,4,o),
(511,18,c),
(437,34,l),
(449,22,l),
(449,297,ls),
(449,408,o),
(413,462,o),
(338,462,cs),
(273,462,o),
(198,420,o),
(154,358,c),
(148,358,l),
(152,354,l),
(152,404,ls),
(152,437,o),
(142,451,o),
(119,451,cs),
(110,451,o),
(98,449,o),
(60,443,c),
(60,429,o),
(64,424,o),
(74,423,cs),
(134,417,l),
(122,432,l),
(122,22,l),
(133,34,l),
(76,20,ls),
(65,18,o),
(60,12,o),
(60,0,c)
);
},
{
closed = 1;
nodes = (
(791,0,ls),
(803,0,o),
(806,4,o),
(806,18,c),
(732,34,l),
(744,22,l),
(744,297,ls),
(744,408,o),
(708,462,o),
(632,462,cs),
(568,462,o),
(492,420,o),
(447,358,c),
(433,358,l),
(440,330,l),
(484,394,o),
(556,436,o),
(619,436,cs),
(683,436,o),
(712,395,o),
(712,308,cs),
(712,21,l),
(723,34,l),
(666,20,ls),
(655,18,o),
(650,12,o),
(650,0,c)
);
}
);
width = 846;
},
{
anchors = (
{
name = bottom;
pos = (439,0);
},
{
name = top;
pos = (439,443);
}
);
layerId = "649F6AC0-C354-445A-B217-A871C51F37B2";
shapes = (
{
closed = 1;
nodes = (
(231,0,ls),
(245,9,o),
(249,17,o),
(249,37,c),
(181,53,l),
(193,39,l),
(193,339,l),
(185,320,l),
(217,366,o),
(276,405,o),
(332,405,cs),
(384,405,o),
(407,371,o),
(407,299,cs),
(407,37,l),
(418,51,l),
(368,36,ls),
(357,33,o),
(352,22,o),
(352,0,c),
(527,0,ls),
(540,9,o),
(544,17,o),
(544,37,c),
(476,53,l),
(488,39,l),
(488,301,ls),
(488,409,o),
(453,462,o),
(378,462,cs),
(316,462,o),
(243,423,o),
(193,362,c),
(184,362,l),
(188,359,l),
(188,396,ls),
(188,435,o),
(174,451,o),
(140,451,cs),
(123,451,o),
(101,448,o),
(50,440,c),
(50,418,o),
(55,407,o),
(65,405,cs),
(124,394,l),
(112,409,l),
(112,41,l),
(123,55,l),
(66,36,ls),
(55,33,o),
(50,22,o),
(50,0,c)
);
},
{
closed = 1;
nodes = (
(828,0,ls),
(841,9,o),
(845,17,o),
(845,37,c),
(771,56,l),
(783,43,l),
(783,301,ls),
(783,409,o),
(748,462,o),
(672,462,cs),
(611,462,o),
(538,423,o),
(486,362,c),
(471,362,l),
(482,321,l),
(515,368,o),
(572,405,o),
(627,405,cs),
(679,405,o),
(702,371,o),
(702,299,cs),
(702,37,l),
(713,51,l),
(663,36,ls),
(652,33,o),
(647,22,o),
(647,0,c)
);
}
);
width = 879;
}
);
metricLeft = n;
metricRight = n;
unicode = 109;
},
{
color = 4;
glyphname = n;
kernLeft = n;
kernRight = n;
layers = (
{
anchors = (
{
name = bottom;
pos = (331,0);
},
{
name = top;
pos = (336,443);
},
{
name = topleft;
pos = (203,443);
}
);
layerId = "7B53E429-1BF0-49C5-9F57-63EEBF39C6CC";
shapes = (
{
closed = 1;
nodes = (
(296,0,l),
(311,26,o),
(316,46,o),
(316,76,c),
(262,91,l),
(274,76,l),
(274,315,l),
(271,300,l),
(277,305,o),
(311,341,o),
(355,341,cs),
(383,341,o),
(397,321,o),
(397,282,cs),
(397,70,l),
(407,87,l),
(371,69,ls),
(360,64,o),
(355,41,o),
(355,0,c),
(621,0,l),
(636,26,o),
(641,46,o),
(641,76,c),
(568,101,l),
(579,85,l),
(579,311,ls),
(579,412,o),
(542,462,o),
(465,462,cs),
(407,462,o),
(338,429,o),
(274,373,c),
(260,373,l),
(264,371,l),
(264,379,ls),
(264,429,o),
(239,451,o),
(182,451,cs),
(151,451,o),
(109,446,o),
(30,434,c),
(30,394,o),
(36,370,o),
(46,367,cs),
(103,347,l),
(92,363,l),
(92,80,l),
(103,97,l),
(46,69,ls),
(35,64,o),
(30,41,o),
(30,0,c)
);
}
);
width = 661;
},
{
anchors = (
{
name = bottom;
pos = (283,0);
},
{
name = top;
pos = (293,443);
},
{
name = topleft;
pos = (152,443);
}
);
layerId = "E1BF09ED-4302-4AD3-9939-8FDA35DE0FE8";
shapes = (
{
closed = 1;
nodes = (
(199,0,ls),
(213,0,o),
(216,4,o),
(216,18,c),
(142,34,l),
(154,22,l),
(154,351,l),
(145,330,l),
(192,394,o),
(267,436,o),
(334,436,cs),
(401,436,o),
(432,395,o),
(432,308,cs),
(432,17,l),
(443,34,l),
(386,20,ls),
(375,18,o),
(370,12,o),
(370,0,c),
(511,0,ls),
(523,0,o),
(526,4,o),
(526,18,c),
(452,34,l),
(464,22,l),
(464,297,ls),
(464,408,o),
(426,462,o),
(347,462,cs),
(279,462,o),
(201,420,o),
(154,358,c),
(145,358,l),
(152,352,l),
(152,404,ls),
(152,437,o),
(142,451,o),
(119,451,cs),
(110,451,o),
(98,449,o),
(60,443,c),
(60,429,o),
(64,424,o),
(74,423,cs),
(134,417,l),
(122,432,l),
(122,17,l),
(133,34,l),
(76,20,ls),
(65,18,o),
(60,12,o),
(60,0,c)
);
}
);
width = 566;
},
{
anchors = (
{
name = bottom;
pos = (298,0);
},
{
name = top;
pos = (307,443);
},
{
name = topleft;
pos = (168,443);
}
);
layerId = "649F6AC0-C354-445A-B217-A871C51F37B2";
shapes = (
{
closed = 1;
nodes = (
(231,0,ls),
(245,9,o),
(249,17,o),
(249,37,c),
(181,53,l),
(193,39,l),
(193,339,l),
(185,320,l),
(219,366,o),
(281,405,o),
(341,405,cs),
(396,405,o),
(421,371,o),
(421,299,cs),
(421,34,l),
(431,51,l),
(382,36,ls),
(371,33,o),
(366,22,o),
(366,0,c),
(547,0,ls),
(560,9,o),
(563,17,o),
(563,37,c),
(489,56,l),
(501,43,l),
(501,301,ls),
(501,409,o),
(463,462,o),
(385,462,cs),
(320,462,o),
(246,423,o),
(193,362,c),
(182,362,l),
(188,359,l),
(188,396,ls),
(188,435,o),
(174,451,o),
(140,451,cs),
(123,451,o),
(101,448,o),
(50,440,c),
(50,418,o),
(55,407,o),
(65,405,cs),
(124,394,l),
(112,409,l),
(112,38,l),
(123,55,l),
(66,36,ls),
(55,33,o),
(50,22,o),
(50,0,c)
);
}
);
width = 596.81081;
}
);
unicode = 110;
},
{
color = 4;
glyphname = eng;
kernLeft = n;
kernRight = j;
layers = (
{
layerId = "E1BF09ED-4302-4AD3-9939-8FDA35DE0FE8";
shapes = (
{
closed = 1;
nodes = (
(199,0,ls),
(213,0,o),
(216,4,o),
(216,18,c),
(142,34,l),
(154,22,l),
(154,351,l),
(145,330,l),
(192,394,o),
(267,436,o),
(334,436,cs),
(401,436,o),
(432,395,o),
(432,308,cs),
(432,120,l),
(464,120,l),
(464,297,ls),
(464,408,o),
(426,462,o),
(347,462,cs),
(279,462,o),
(201,420,o),
(154,358,c),
(145,358,l),
(152,352,l),
(152,404,ls),
(152,437,o),
(142,451,o),
(119,451,cs),
(110,451,o),
(98,449,o),
(60,443,c),
(60,429,o),
(64,424,o),
(74,423,cs),
(134,417,l),
(122,432,l),
(122,17,l),
(133,34,l),
(76,20,ls),
(65,18,o),
(60,12,o),
(60,0,c)
);
},
{
closed = 1;
nodes = (
(404,-270,o),
(464,-135,o),
(464,52,cs),
(464,120,l),
(432,120,l),
(432,-13,ls),
(432,-184,o),
(399,-235,o),
(287,-235,c),
(285,-240,o),
(283,-245,o),
(283,-249,cs),
(283,-260,o),
(294,-270,o),
(320,-270,cs)
);
}
);
width = 552;
},
{
layerId = "7B53E429-1BF0-49C5-9F57-63EEBF39C6CC";
shapes = (
{
closed = 1;
nodes = (
(296,0,l),
(311,26,o),
(316,46,o),
(316,76,c),
(262,91,l),
(274,76,l),
(274,315,l),
(271,300,l),
(277,305,o),
(311,341,o),
(355,341,cs),
(383,341,o),
(397,321,o),
(397,282,cs),
(397,120,l),
(579,120,l),
(579,311,ls),
(579,412,o),
(542,462,o),
(465,462,cs),
(407,462,o),
(338,429,o),
(274,373,c),
(260,373,l),
(264,371,l),
(264,379,ls),
(264,429,o),
(239,451,o),
(182,451,cs),
(151,451,o),
(109,446,o),
(30,434,c),
(30,394,o),
(36,370,o),
(46,367,cs),
(103,347,l),
(92,363,l),
(92,80,l),
(103,97,l),
(46,69,ls),
(35,64,o),
(30,41,o),
(30,0,c)
);
},
{
closed = 1;
nodes = (
(425,-270,o),
(579,-79,o),
(579,92,cs),
(579,120,l),
(397,120,l),
(397,-13,ls),
(397,-140,o),
(388,-143,o),
(239,-143,c),
(228,-160,o),
(220,-189,o),
(220,-214,cs),
(220,-246,o),
(247,-270,o),
(285,-270,cs)
);
}
);
width = 659;
},
{
layerId = "649F6AC0-C354-445A-B217-A871C51F37B2";
shapes = (
{
closed = 1;
nodes = (
(231,0,ls),
(245,9,o),
(249,17,o),
(249,37,c),
(181,53,l),
(193,39,l),
(193,339,l),
(185,320,l),
(219,366,o),
(281,405,o),
(341,405,cs),
(396,405,o),
(421,371,o),
(421,299,cs),
(421,120,l),
(501,120,l),
(501,301,ls),
(501,409,o),
(463,462,o),
(385,462,cs),
(320,462,o),
(246,423,o),
(193,362,c),
(182,362,l),
(188,359,l),
(188,396,ls),
(188,435,o),
(174,451,o),
(140,451,cs),
(123,451,o),
(101,448,o),
(50,440,c),
(50,418,o),
(55,407,o),
(65,405,cs),
(124,394,l),
(112,409,l),
(112,38,l),
(123,55,l),
(66,36,ls),
(55,33,o),
(50,22,o),
(50,0,c)
);
},
{
closed = 1;
nodes = (
(411,-270,o),
(501,-117,o),
(501,65,cs),
(501,120,l),
(421,120,l),
(421,-13,ls),
(421,-170,o),
(396,-206,o),
(272,-206,c),
(266,-214,o),
(262,-227,o),
(262,-238,cs),
(262,-256,o),
(279,-270,o),
(309,-270,cs)
);
}
);
width = 585.92308;
}
);
metricLeft = n;
metricRight = j;
unicode = 331;
},
{
color = 4;
glyphname = o;
kernLeft = o;
kernRight = o;
layers = (
{
anchors = (
{
name = bottom;
pos = (293,0);
},
{
name = center;
pos = (293,222);
},
{
name = ogonek;
pos = (370,0);
},
{
name = top;
pos = (293,443);
},
{
name = topright;
pos = (430,443);
}
);
guides = (
{
angle = 188.8807;
pos = (131,219);
}
);
layerId = "7B53E429-1BF0-49C5-9F57-63EEBF39C6CC";
shapes = (
{
closed = 1;
nodes = (
(447,-12,o),
(566,92,o),
(566,241,cs),
(566,376,o),
(469,462,o),
(317,462,cs),
(149,462,o),
(35,357,o),
(35,204,cs),
(35,68,o),
(124,-12,o),
(275,-12,cs)
);
},
{
closed = 1;
nodes = (
(254,51,o),
(227,117,o),
(227,234,cs),
(227,341,o),
(251,399,o),
(295,399,cs),
(344,399,o),
(374,328,o),
(374,213,cs),
(374,109,o),
(349,51,o),
(303,51,cs)
);
}
);
width = 601;
},
{
anchors = (
{
name = bottom;
pos = (240,0);
},
{
name = center;
pos = (240,222);
},
{
name = ogonek;
pos = (285,0);
},
{
name = top;
pos = (240,443);
},
{
name = topright;
pos = (342,443);
}
);
layerId = "E1BF09ED-4302-4AD3-9939-8FDA35DE0FE8";
shapes = (
{
closed = 1;
nodes = (
(347,-12,o),
(441,97,o),
(441,251,cs),
(441,379,o),
(369,462,o),
(260,462,cs),
(132,462,o),
(35,349,o),
(35,200,cs),
(35,72,o),
(107,-12,o),
(216,-12,cs)
);
},
{
closed = 1;
nodes = (
(128,8,o),
(71,81,o),
(71,217,cs),
(71,361,o),
(135,442,o),
(247,442,cs),
(350,442,o),
(405,369,o),
(405,234,cs),
(405,90,o),
(342,8,o),
(232,8,cs)
);
}
);
width = 476;
},
{
anchors = (
{
name = bottom;
pos = (257,0);
},
{
name = center;
pos = (257,222);
},
{
name = ogonek;
pos = (312,0);
},
{
name = top;
pos = (257,443);
},
{
name = topright;
pos = (370,443);
}
);
layerId = "649F6AC0-C354-445A-B217-A871C51F37B2";
shapes = (
{
closed = 1;
nodes = (
(380,-12,o),
(481,96,o),
(481,248,cs),
(481,378,o),
(402,462,o),
(279,462,cs),
(137,462,o),
(35,351,o),
(35,201,cs),
(35,71,o),
(112,-12,o),
(236,-12,cs)
);
},
{
closed = 1;
nodes = (
(168,22,o),
(121,93,o),
(121,222,cs),
(121,354,o),
(172,428,o),
(262,428,cs),
(348,428,o),
(395,356,o),
(395,227,cs),
(395,97,o),
(344,22,o),
(255,22,cs)
);
}
);
width = 516.54054;
}
);
unicode = 111;
},
{
color = 4;
glyphname = p;
kernLeft = n;
kernRight = o;
layers = (
{
layerId = "E1BF09ED-4302-4AD3-9939-8FDA35DE0FE8";
shapes = (
{
closed = 1;
nodes = (
(194,-265,ls),
(208,-265,o),
(211,-261,o),
(211,-247,c),
(137,-231,l),
(149,-243,l),
(149,20,l),
(135,12,l),
(170,-4,o),
(211,-12,o),
(251,-12,cs),
(393,-12,o),
(483,91,o),
(483,251,cs),
(483,382,o),
(422,462,o),
(323,462,cs),
(259,462,o),
(197,425,o),
(149,359,c),
(144,359,l),
(147,356,l),
(147,417,ls),
(147,440,o),
(137,451,o),
(115,451,cs),
(105,451,o),
(93,449,o),
(55,443,c),
(55,429,o),
(59,424,o),
(69,423,cs),
(129,417,l),
(117,432,l),
(117,-248,l),
(128,-231,l),
(71,-245,ls),
(60,-248,o),
(55,-254,o),
(55,-265,c)
);
},
{
closed = 1;
nodes = (
(226,10,o),
(202,16,o),
(142,42,c),
(149,29,l),
(149,344,l),
(142,326,l),
(194,402,o),
(248,436,o),
(316,436,cs),
(407,436,o),
(447,375,o),
(447,236,cs),
(447,76,o),
(394,10,o),
(266,10,cs)
);
}
);
width = 518;
},
{
layerId = "7B53E429-1BF0-49C5-9F57-63EEBF39C6CC";
shapes = (
{
closed = 1;
nodes = (
(321,-240,l),
(336,-214,o),
(341,-194,o),
(341,-164,c),
(247,-140,l),
(259,-155,l),
(259,16,l),
(247,8,l),
(284,-5,o),
(324,-12,o),
(361,-12,cs),
(502,-12,o),
(595,90,o),
(595,246,cs),
(595,376,o),
(527,462,o),
(427,462,cs),
(362,462,o),
(291,426,o),
(259,373,c),
(245,373,l),
(249,371,l),
(249,379,ls),
(249,429,o),
(224,451,o),
(167,451,cs),
(136,451,o),
(94,446,o),
(15,434,c),
(15,394,o),
(21,370,o),
(31,367,cs),
(88,347,l),
(77,363,l),
(77,-160,l),
(88,-143,l),
(31,-171,ls),
(20,-176,o),
(15,-199,o),
(15,-240,c)
);
},
{
closed = 1;
nodes = (
(283,64,o),
(258,78,o),
(240,104,c),
(255,76,l),
(255,322,l),
(240,287,l),
(257,311,o),
(281,352,o),
(328,352,cs),
(377,352,o),
(402,307,o),
(402,220,cs),
(402,121,o),
(369,64,o),
(312,64,cs)
);
}
);
width = 630;
},
{
layerId = "649F6AC0-C354-445A-B217-A871C51F37B2";
shapes = (
{
closed = 1;
nodes = (
(235,-257,ls),
(249,-249,o),
(254,-239,o),
(254,-220,c),
(173,-202,l),
(185,-215,l),
(185,19,l),
(171,11,l),
(207,-4,o),
(248,-12,o),
(287,-12,cs),
(428,-12,o),
(519,91,o),
(519,250,cs),
(519,380,o),
(456,462,o),
(357,462,cs),
(293,462,o),
(228,425,o),
(185,363,c),
(177,363,l),
(180,360,l),
(180,405,ls),
(180,437,o),
(165,451,o),
(131,451,cs),
(115,451,o),
(93,448,o),
(42,440,c),
(42,418,o),
(47,407,o),
(57,405,cs),
(116,394,l),
(104,409,l),
(104,-220,l),
(115,-203,l),
(58,-221,ls),
(47,-225,o),
(42,-237,o),
(42,-257,c)
);
},
{
closed = 1;
nodes = (
(245,27,o),
(221,36,o),
(174,62,c),
(184,44,l),
(184,336,l),
(174,313,l),
(215,373,o),
(259,409,o),
(320,409,cs),
(397,409,o),
(433,353,o),
(433,231,cs),
(433,90,o),
(386,27,o),
(281,27,cs)
);
}
);
width = 555;
}
);
metricRight = o;
unicode = 112;
},
{
color = 4;
glyphname = thorn;
kernLeft = l;
kernRight = o;
layers = (
{
background = {
shapes = (
{
closed = 1;
nodes = (
(194,0,ls),
(208,0,o),
(211,4,o),
(211,18,c),
(138,34,l),
(149,22,l),
(149,683,l),
(149,719,o),
(138,734,o),
(114,734,cs),
(105,734,o),
(93,732,o),
(55,726,c),
(55,712,o),
(59,707,o),
(69,706,cs),
(129,700,l),
(117,715,l),
(117,22,l),
(128,34,l),
(71,20,ls),
(60,17,o),
(55,12,o),
(55,0,c)
);
}
);
};
layerId = "E1BF09ED-4302-4AD3-9939-8FDA35DE0FE8";
shapes = (
{
closed = 1;
nodes = (
(194,-265,ls),
(208,-265,o),
(211,-261,o),
(211,-247,c),
(137,-231,l),
(149,-243,l),
(149,20,l),
(135,12,l),
(170,-4,o),
(211,-12,o),
(251,-12,cs),
(393,-12,o),
(483,91,o),
(483,251,cs),
(483,382,o),
(422,462,o),
(323,462,cs),
(259,462,o),
(197,425,o),
(149,359,c),
(144,359,l),
(147,356,l),
(147,700,ls),
(147,723,o),
(137,734,o),
(115,734,cs),
(105,734,o),
(93,732,o),
(55,726,c),
(55,712,o),
(59,707,o),
(69,706,cs),
(129,700,l),
(117,715,l),
(117,-248,l),
(128,-231,l),
(71,-245,ls),
(60,-248,o),
(55,-254,o),
(55,-265,c)
);
},
{
closed = 1;
nodes = (
(226,10,o),
(202,16,o),
(142,42,c),
(149,29,l),
(149,344,l),
(142,326,l),
(194,402,o),
(248,436,o),
(316,436,cs),
(407,436,o),
(447,375,o),
(447,236,cs),
(447,76,o),
(394,10,o),
(266,10,cs)
);
}
);
width = 518;
},
{
background = {
shapes = (
{
closed = 1;
nodes = (
(331,0,l),
(346,26,o),
(351,46,o),
(351,76,c),
(257,100,l),
(269,85,l),
(269,662,ls),
(269,708,o),
(245,734,o),
(200,734,cs),
(131,734,o),
(73,726,o),
(15,717,c),
(15,676,o),
(21,653,o),
(31,650,cs),
(99,631,l),
(87,646,l),
(87,80,l),
(98,97,l),
(31,69,ls),
(20,65,o),
(15,44,o),
(15,0,c)
);
}
);
};
layerId = "7B53E429-1BF0-49C5-9F57-63EEBF39C6CC";
shapes = (
{
closed = 1;
nodes = (
(331,-240,l),
(346,-214,o),
(351,-194,o),
(351,-164,c),
(257,-140,l),
(269,-155,l),
(269,16,l),
(257,8,l),
(294,-5,o),
(334,-12,o),
(371,-12,cs),
(512,-12,o),
(605,90,o),
(605,246,cs),
(605,376,o),
(537,462,o),
(437,462,cs),
(372,462,o),
(301,426,o),
(269,373,c),
(255,373,l),
(259,371,l),
(259,662,ls),
(259,712,o),
(234,734,o),
(177,734,cs),
(144,734,o),
(73,726,o),
(15,717,c),
(15,677,o),
(21,653,o),
(31,650,cs),
(99,631,l),
(87,646,l),
(87,-160,l),
(98,-143,l),
(41,-171,ls),
(30,-176,o),
(25,-199,o),
(25,-240,c)
);
},
{
closed = 1;
nodes = (
(293,64,o),
(268,78,o),
(250,104,c),
(265,76,l),
(265,322,l),
(250,287,l),
(267,311,o),
(291,352,o),
(338,352,cs),
(387,352,o),
(412,307,o),
(412,220,cs),
(412,121,o),
(379,64,o),
(322,64,cs)
);
}
);
width = 640;
},
{
layerId = "649F6AC0-C354-445A-B217-A871C51F37B2";
shapes = (
{
closed = 1;
nodes = (
(239,-257,ls),
(253,-249,o),
(257,-239,o),
(257,-220,c),
(176,-202,l),
(188,-215,l),
(188,19,l),
(174,11,l),
(210,-4,o),
(251,-12,o),
(290,-12,cs),
(431,-12,o),
(522,91,o),
(522,250,cs),
(522,380,o),
(459,462,o),
(360,462,cs),
(296,462,o),
(231,425,o),
(188,363,c),
(180,363,l),
(183,360,l),
(183,688,ls),
(183,720,o),
(169,734,o),
(135,734,cs),
(118,734,o),
(86,730,o),
(42,723,c),
(42,701,o),
(47,690,o),
(57,688,cs),
(119,677,l),
(107,692,l),
(107,-220,l),
(118,-203,l),
(61,-221,ls),
(50,-225,o),
(45,-237,o),
(45,-257,c)
);
},
{
closed = 1;
nodes = (
(248,27,o),
(224,36,o),
(177,62,c),
(186,44,l),
(186,336,l),
(177,313,l),
(218,373,o),
(262,409,o),
(324,409,cs),
(400,409,o),
(436,353,o),
(436,231,cs),
(436,90,o),
(390,27,o),
(285,27,cs)
);
}
);
width = 557.56757;
}
);
metricLeft = l;
metricRight = o;
unicode = 254;
},
{
color = 4;
glyphname = q;
kernLeft = o;
kernRight = q;
layers = (
{
background = {
shapes = (
{
closed = 1;
nodes = (
(458,-265,l),
(472,-265,o),
(475,-261,o),
(475,-247,c),
(401,-231,l),
(413,-243,l),
(413,419,l),
(349,454,o),
(303,462,o),
(260,462,cs),
(132,462,o),
(35,348,o),
(35,200,cs),
(35,72,o),
(107,-12,o),
(216,-12,cs),
(283,-12,o),
(339,14,o),
(380,63,c),
(381,63,l),
(381,-248,l),
(392,-231,l),
(335,-245,ls),
(324,-248,o),
(319,-253,o),
(319,-265,c)
);
},
{
closed = 1;
nodes = (
(127,8,o),
(71,82,o),
(71,217,cs),
(71,361,o),
(135,442,o),
(247,442,cs),
(311,442,o),
(349,426,o),
(388,397,c),
(381,414,l),
(381,77,l),
(388,91,l),
(342,34,o),
(293,8,o),
(229,8,cs)
);
},
{
closed = 1;
nodes = (
(413,419,l),
(413,463,l),
(397,463,o),
(392,458,o),
(389,447,cs),
(380,417,l)
);
}
);
};
layerId = "E1BF09ED-4302-4AD3-9939-8FDA35DE0FE8";
shapes = (
{
closed = 1;
nodes = (
(458,-265,l),
(472,-265,o),
(475,-261,o),
(475,-247,c),
(401,-231,l),
(413,-243,l),
(413,419,l),
(349,454,o),
(303,462,o),
(260,462,cs),
(132,462,o),
(35,348,o),
(35,200,cs),
(35,72,o),
(107,-12,o),
(216,-12,cs),
(283,-12,o),
(339,14,o),
(380,63,c),
(381,63,l),
(381,-248,l),
(392,-231,l),
(335,-245,ls),
(324,-248,o),
(319,-253,o),
(319,-265,c)
);
},
{
closed = 1;
nodes = (
(127,8,o),
(71,82,o),
(71,217,cs),
(71,361,o),
(135,442,o),
(247,442,cs),
(311,442,o),
(349,426,o),
(388,397,c),
(381,414,l),
(381,77,l),
(388,91,l),
(342,34,o),
(293,8,o),
(229,8,cs)
);
},
{
closed = 1;
nodes = (
(413,419,l),
(413,463,l),
(397,463,o),
(392,458,o),
(389,447,cs),
(380,417,l)
);
}
);
width = 530;
},
{
layerId = "7B53E429-1BF0-49C5-9F57-63EEBF39C6CC";
shapes = (
{
closed = 1;
nodes = (
(595,-240,l),
(610,-214,o),
(615,-194,o),
(615,-164,c),
(499,-134,l),
(553,-184,l),
(553,373,l),
(490,432,o),
(411,462,o),
(340,462,cs),
(156,462,o),
(35,360,o),
(35,204,cs),
(35,74,o),
(103,-12,o),
(203,-12,cs),
(268,-12,o),
(339,24,o),
(371,77,c),
(381,77,l),
(381,-179,l),
(416,-120,l),
(315,-171,ls),
(304,-176,o),
(299,-199,o),
(299,-240,c)
);
},
{
closed = 1;
nodes = (
(252,98,o),
(227,143,o),
(227,230,cs),
(227,329,o),
(260,386,o),
(318,386,cs),
(347,386,o),
(372,372,o),
(390,346,c),
(375,374,l),
(375,128,l),
(390,163,l),
(373,139,o),
(349,98,o),
(302,98,cs)
);
},
{
closed = 1;
nodes = (
(553,373,l),
(553,463,l),
(512,463,o),
(489,458,o),
(484,447,cs),
(433,345,l)
);
}
);
width = 635;
},
{
layerId = "649F6AC0-C354-445A-B217-A871C51F37B2";
shapes = (
{
closed = 1;
nodes = (
(503,-257,l),
(517,-249,o),
(521,-239,o),
(521,-220,c),
(433,-199,l),
(459,-223,l),
(459,404,l),
(395,446,o),
(338,462,o),
(286,462,cs),
(140,462,o),
(35,352,o),
(35,201,cs),
(35,73,o),
(106,-12,o),
(212,-12,cs),
(279,-12,o),
(339,17,o),
(377,67,c),
(381,67,l),
(381,-225,l),
(400,-195,l),
(328,-221,ls),
(317,-225,o),
(312,-236,o),
(312,-257,c)
);
},
{
closed = 1;
nodes = (
(167,37,o),
(121,102,o),
(121,221,cs),
(121,350,o),
(175,424,o),
(270,424,cs),
(323,424,o),
(357,409,o),
(389,381,c),
(379,401,l),
(379,93,l),
(389,114,l),
(352,68,o),
(312,37,o),
(253,37,cs)
);
},
{
closed = 1;
nodes = (
(459,404,l),
(459,463,l),
(434,463,o),
(424,458,o),
(420,447,cs),
(397,394,l)
);
}
);
width = 564.05406;
}
);
metricLeft = o;
unicode = 113;
},
{
color = 4;
glyphname = r;
kernLeft = n;
kernRight = r;
layers = (
{
anchors = (
{
name = bottom;
pos = (138,0);
},
{
name = top;
pos = (212,443);
}
);
background = {
shapes = (
{
closed = 1;
nodes = (
(234,425,o),
(276,425,cs),
(299,425,o),
(320,414,o),
(338,386,c),
(359,386,o),
(369,399,o),
(369,418,cs),
(369,444,o),
(343,462,o),
(306,462,cs),
(258,462,o),
(197,417,o),
(156,355,c),
(149,355,l),
(152,352,l),
(152,404,ls),
(152,434,o),
(137,451,o),
(119,451,cs),
(110,451,o),
(98,449,o),
(60,443,c),
(60,429,o),
(64,424,o),
(74,423,cs),
(134,417,l),
(122,432,l),
(122,17,l),
(133,34,l),
(76,20,ls),
(65,17,o),
(60,12,o),
(60,0,c),
(199,0,l),
(213,0,o),
(216,4,o),
(216,18,c),
(142,34,l),
(154,22,l),
(154,340,l),
(148,328,l),
(187,384,o)
);
}
);
};
layerId = "E1BF09ED-4302-4AD3-9939-8FDA35DE0FE8";
shapes = (
{
closed = 1;
nodes = (
(205,0,ls),
(219,0,o),
(222,5,o),
(222,19,c),
(142,34,l),
(154,22,l),
(154,340,l),
(148,328,l),
(187,384,o),
(237,433,o),
(279,433,cs),
(302,433,o),
(321,425,o),
(342,386,c),
(355,386,o),
(364,401,o),
(364,417,cs),
(364,438,o),
(349,462,o),
(306,462,cs),
(258,462,o),
(195,417,o),
(154,355,c),
(149,355,l),
(152,352,l),
(152,404,ls),
(152,434,o),
(137,451,o),
(119,451,cs),
(110,451,o),
(98,449,o),
(60,443,c),
(60,429,o),
(64,424,o),
(74,423,cs),
(134,417,l),
(122,432,l),
(122,17,l),
(133,34,l),
(76,20,ls),
(65,17,o),
(60,12,o),
(60,0,c)
);
}
);
width = 364;
},
{
anchors = (
{
name = bottom;
pos = (183,0);
},
{
name = top;
pos = (260,443);
}
);
layerId = "7B53E429-1BF0-49C5-9F57-63EEBF39C6CC";
shapes = (
{
closed = 1;
nodes = (
(336,0,l),
(351,26,o),
(356,46,o),
(356,76,c),
(258,103,l),
(274,76,l),
(274,322,l),
(266,291,l),
(284,320,o),
(321,337,o),
(347,337,cs),
(374,337,o),
(392,325,o),
(405,294,c),
(452,294,o),
(490,330,o),
(490,376,cs),
(490,433,o),
(457,462,o),
(394,462,cs),
(345,462,o),
(297,424,o),
(271,363,c),
(250,363,l),
(264,348,l),
(264,372,ls),
(264,433,o),
(246,451,o),
(182,451,cs),
(152,451,o),
(113,447,o),
(30,434,c),
(30,395,o),
(36,370,o),
(46,367,cs),
(103,347,l),
(92,363,l),
(92,80,l),
(103,97,l),
(46,69,ls),
(35,64,o),
(30,42,o),
(30,0,c)
);
}
);
width = 480;
},
{
anchors = (
{
name = bottom;
pos = (152,0);
},
{
name = top;
pos = (227,443);
}
);
layerId = "649F6AC0-C354-445A-B217-A871C51F37B2";
shapes = (
{
closed = 1;
nodes = (
(248,0,ls),
(262,9,o),
(266,18,o),
(266,38,c),
(179,57,l),
(193,39,l),
(193,335,l),
(186,316,l),
(219,363,o),
(264,401,o),
(301,401,cs),
(325,401,o),
(344,392,o),
(363,357,c),
(387,357,o),
(404,378,o),
(404,404,cs),
(404,437,o),
(384,462,o),
(334,462,cs),
(286,462,o),
(228,419,o),
(192,357,c),
(182,357,l),
(188,351,l),
(188,393,ls),
(188,434,o),
(172,451,o),
(140,451,cs),
(123,451,o),
(102,448,o),
(50,440,c),
(50,418,o),
(55,407,o),
(65,405,cs),
(124,394,l),
(112,409,l),
(112,38,l),
(123,55,l),
(66,36,ls),
(55,32,o),
(50,22,o),
(50,0,c)
);
}
);
width = 401.62162;
}
);
metricLeft = n;
unicode = 114;
},
{
color = 4;
glyphname = s;
kernLeft = s;
kernRight = s;
layers = (
{
anchors = (
{
name = bottom;
pos = (186,0);
},
{
name = top;
pos = (186,443);
}
);
layerId = "E1BF09ED-4302-4AD3-9939-8FDA35DE0FE8";
shapes = (
{
closed = 1;
nodes = (
(268,-12,o),
(336,42,o),
(336,121,cs),
(336,203,o),
(263,233,o),
(195,260,cs),
(140,282,o),
(89,303,o),
(89,364,cs),
(89,415,o),
(125,446,o),
(186,446,cs),
(246,446,o),
(283,416,o),
(283,360,c),
(288,357,o),
(294,356,o),
(299,356,cs),
(311,356,o),
(321,364,o),
(321,382,cs),
(321,427,o),
(260,462,o),
(191,462,cs),
(110,462,o),
(55,413,o),
(55,351,cs),
(55,286,o),
(116,253,o),
(176,230,cs),
(239,205,o),
(301,184,o),
(301,106,cs),
(301,40,o),
(257,4,o),
(188,4,cs),
(117,4,o),
(79,43,o),
(79,116,c),
(74,124,o),
(66,128,o),
(58,128,cs),
(46,128,o),
(35,119,o),
(35,94,cs),
(35,37,o),
(95,-12,o),
(180,-12,cs)
);
}
);
width = 371;
},
{
anchors = (
{
name = bottom;
pos = (256,0);
},
{
name = top;
pos = (256,443);
}
);
layerId = "7B53E429-1BF0-49C5-9F57-63EEBF39C6CC";
shapes = (
{
closed = 1;
nodes = (
(389,-12,o),
(476,46,o),
(476,144,cs),
(476,245,o),
(384,276,o),
(308,301,cs),
(256,318,o),
(211,333,o),
(211,367,cs),
(211,388,o),
(228,401,o),
(256,401,cs),
(298,401,o),
(321,371,o),
(321,318,c),
(337,303,o),
(357,296,o),
(381,296,cs),
(428,296,o),
(461,323,o),
(461,363,cs),
(461,423,o),
(387,462,o),
(272,462,cs),
(134,462,o),
(55,408,o),
(55,313,cs),
(55,212,o),
(143,182,o),
(216,157,cs),
(266,140,o),
(309,125,o),
(309,91,cs),
(309,66,o),
(286,49,o),
(251,49,cs),
(204,49,o),
(183,78,o),
(183,144,c),
(166,156,o),
(139,164,o),
(114,164,cs),
(67,164,o),
(35,137,o),
(35,97,cs),
(35,32,o),
(119,-12,o),
(243,-12,cs)
);
}
);
width = 511;
},
{
anchors = (
{
name = bottom;
pos = (209,0);
},
{
name = top;
pos = (209,443);
}
);
layerId = "649F6AC0-C354-445A-B217-A871C51F37B2";
shapes = (
{
closed = 1;
nodes = (
(307,-12,o),
(382,43,o),
(382,129,cs),
(382,216,o),
(302,247,o),
(232,273,cs),
(177,294,o),
(128,313,o),
(128,365,cs),
(128,406,o),
(159,432,o),
(209,432,cs),
(262,432,o),
(295,402,o),
(295,347,c),
(304,340,o),
(315,336,o),
(325,336,cs),
(349,336,o),
(367,351,o),
(367,376,cs),
(367,426,o),
(301,462,o),
(217,462,cs),
(118,462,o),
(55,412,o),
(55,339,cs),
(55,262,o),
(125,230,o),
(189,206,cs),
(248,184,o),
(303,164,o),
(303,102,cs),
(303,49,o),
(267,18,o),
(209,18,cs),
(145,18,o),
(113,54,o),
(113,125,c),
(104,135,o),
(90,140,o),
(77,140,cs),
(53,140,o),
(35,125,o),
(35,95,cs),
(35,36,o),
(103,-12,o),
(201,-12,cs)
);
}
);
width = 416.4054;
}
);
unicode = 115;
},
{
color = 4;
glyphname = germandbls;
kernLeft = f;
kernRight = s;
layers = (
{
layerId = "E1BF09ED-4302-4AD3-9939-8FDA35DE0FE8";
shapes = (
{
closed = 1;
nodes = (
(521,-12,o),
(589,42,o),
(589,121,cs),
(589,203,o),
(516,233,o),
(448,260,cs),
(393,282,o),
(342,303,o),
(342,364,cs),
(342,479,o),
(522,437,o),
(522,590,cs),
(522,671,o),
(452,734,o),
(356,734,cs),
(233,734,o),
(142,638,o),
(142,437,c),
(151,445,l),
(69,443,l),
(62,437,o),
(60,432,o),
(60,421,c),
(150,420,l),
(142,427,l),
(142,22,l),
(153,34,l),
(96,20,ls),
(85,17,o),
(80,12,o),
(80,0,c),
(167,0,ls),
(172,0,o),
(175,2,o),
(175,8,cs),
(174,468,ls),
(174,652,o),
(237,711,o),
(348,711,cs),
(429,711,o),
(485,662,o),
(485,580,cs),
(485,446,o),
(308,471,o),
(308,351,cs),
(308,286,o),
(369,253,o),
(429,230,cs),
(492,206,o),
(554,184,o),
(554,106,cs),
(554,40,o),
(510,4,o),
(441,4,cs),
(370,4,o),
(332,43,o),
(332,116,c),
(327,124,o),
(319,128,o),
(311,128,cs),
(299,128,o),
(288,119,o),
(288,94,cs),
(288,37,o),
(348,-12,o),
(433,-12,cs)
);
}
);
width = 624;
},
{
background = {
shapes = (
{
closed = 0;
nodes = (
(398,723,ls)
);
}
);
};
layerId = "7B53E429-1BF0-49C5-9F57-63EEBF39C6CC";
shapes = (
{
closed = 1;
nodes = (
(643,-12,o),
(730,46,o),
(730,144,cs),
(730,245,o),
(638,276,o),
(562,301,cs),
(505,320,o),
(455,333,o),
(455,367,cs),
(455,442,o),
(632,431,o),
(632,575,cs),
(632,656,o),
(562,734,o),
(398,734,cs),
(214,734,o),
(92,594,o),
(92,418,c),
(126,446,l),
(52,442,l),
(39,433,o),
(31,395,o),
(31,362,c),
(119,359,l),
(92,385,l),
(92,80,l),
(103,97,l),
(46,69,ls),
(35,64,o),
(30,42,o),
(30,0,c),
(250,0,ls),
(265,0,o),
(274,9,o),
(274,24,cs),
(274,442,ls),
(274,567,o),
(283,658,o),
(380,658,cs),
(436,658,o),
(465,619,o),
(465,557,cs),
(465,432,o),
(309,433,o),
(309,313,cs),
(309,212,o),
(397,182,o),
(470,157,cs),
(525,138,o),
(573,125,o),
(573,91,cs),
(573,66,o),
(548,49,o),
(517,49,cs),
(467,49,o),
(447,78,o),
(447,144,c),
(430,156,o),
(403,164,o),
(378,164,cs),
(331,164,o),
(299,137,o),
(299,97,cs),
(299,32,o),
(383,-12,o),
(497,-12,cs)
);
}
);
width = 765;
},
{
layerId = "649F6AC0-C354-445A-B217-A871C51F37B2";
shapes = (
{
closed = 1;
nodes = (
(560,-12,o),
(635,43,o),
(635,129,cs),
(635,216,o),
(555,247,o),
(485,273,cs),
(429,294,o),
(379,313,o),
(379,365,cs),
(379,467,o),
(558,435,o),
(558,586,cs),
(558,667,o),
(488,734,o),
(369,734,cs),
(227,734,o),
(126,624,o),
(126,431,c),
(143,445,l),
(64,443,l),
(54,436,o),
(50,420,o),
(50,401,c),
(140,400,l),
(126,414,l),
(126,41,l),
(137,55,l),
(80,36,ls),
(69,32,o),
(64,22,o),
(64,0,c),
(191,0,ls),
(201,0,o),
(207,6,o),
(207,16,cs),
(207,459,ls),
(207,625,o),
(252,694,o),
(359,694,cs),
(431,694,o),
(478,648,o),
(478,572,cs),
(478,442,o),
(308,459,o),
(308,339,cs),
(308,262,o),
(378,230,o),
(442,206,cs),
(503,184,o),
(561,164,o),
(561,102,cs),
(561,49,o),
(522,18,o),
(466,18,cs),
(402,18,o),
(369,54,o),
(369,125,c),
(361,135,o),
(346,140,o),
(333,140,cs),
(310,140,o),
(291,125,o),
(291,95,cs),
(291,36,o),
(359,-12,o),
(454,-12,cs)
);
}
);
width = 669;
}
);
metricLeft = f;
metricRight = s;
unicode = 223;
},
{
color = 4;
glyphname = t;
kernLeft = t;
kernRight = t;
layers = (
{
anchors = (
{
name = bottom;
pos = (153,0);
},
{
name = center;
pos = (138,250);
},
{
name = top;
pos = (153,443);
},
{
name = topright;
pos = (188,493);
}
);
background = {
shapes = (
{
closed = 1;
nodes = (
(279,462,l),
(283,454,o),
(285,446,o),
(285,438,cs),
(285,423,o),
(274,411,o),
(258,406,c),
(35,418,l),
(35,434,o),
(43,444,o),
(53,448,c)
);
}
);
};
guides = (
{
angle = -88.0145;
pos = (314,61);
}
);
layerId = "E1BF09ED-4302-4AD3-9939-8FDA35DE0FE8";
shapes = (
{
closed = 1;
nodes = (
(240,-12,o),
(296,36,o),
(312,59,cs),
(313,60,o),
(312,63,o),
(310,67,cs),
(310,67,ls),
(308,70,o),
(304,71,o),
(300,67,cs),
(263,34,o),
(223,20,o),
(189,20,cs),
(151,20,o),
(138,38,o),
(138,92,cs),
(138,569,l),
(126,568,o),
(112,559,o),
(106,549,c),
(106,87,ls),
(106,15,o),
(131,-12,o),
(180,-12,cs)
);
},
{
closed = 1;
nodes = (
(295,418,o),
(301,425,o),
(301,436,cs),
(301,440,o),
(301,444,o),
(298,450,c),
(44,443,l),
(37,437,o),
(35,432,o),
(35,421,c),
(283,418,ls)
);
}
);
width = 305;
},
{
anchors = (
{
name = bottom;
pos = (198,0);
},
{
name = center;
pos = (183,240);
},
{
name = top;
pos = (198,443);
},
{
name = topright;
pos = (288,490);
}
);
layerId = "7B53E429-1BF0-49C5-9F57-63EEBF39C6CC";
shapes = (
{
closed = 1;
nodes = (
(285,-12,o),
(358,17,o),
(396,60,cs),
(403,68,o),
(403,78,o),
(397,90,cs),
(391,102,ls),
(384,115,o),
(373,118,o),
(359,113,cs),
(343,107,o),
(328,104,o),
(315,104,cs),
(273,104,o),
(258,131,o),
(258,182,cs),
(258,569,l),
(194,563,o),
(116,538,o),
(76,513,c),
(76,155,ls),
(76,55,o),
(117,-12,o),
(212,-12,cs)
);
},
{
closed = 1;
nodes = (
(365,359,o),
(377,392,o),
(377,432,cs),
(377,442,o),
(375,453,o),
(371,462,c),
(36,442,l),
(23,433,o),
(15,395,o),
(15,362,c),
(343,350,l)
);
}
);
width = 396;
},
{
anchors = (
{
name = bottom;
pos = (167,0);
},
{
name = center;
pos = (152,247);
},
{
name = top;
pos = (167,443);
},
{
name = topright;
pos = (221,492);
}
);
layerId = "649F6AC0-C354-445A-B217-A871C51F37B2";
shapes = (
{
closed = 1;
nodes = (
(253,-12,o),
(314,29,o),
(339,58,cs),
(343,62,o),
(342,68,o),
(338,76,cs),
(337,77,ls),
(333,85,o),
(325,85,o),
(316,78,cs),
(286,57,o),
(256,47,o),
(229,47,cs),
(190,47,o),
(177,69,o),
(177,121,cs),
(177,569,l),
(148,567,o),
(113,552,o),
(96,537,c),
(96,109,ls),
(96,28,o),
(127,-12,o),
(191,-12,cs)
);
},
{
closed = 1;
nodes = (
(318,398,o),
(326,414,o),
(326,435,cs),
(326,441,o),
(325,447,o),
(322,454,c),
(42,443,l),
(33,436,o),
(28,420,o),
(28,401,c),
(303,396,l)
);
}
);
width = 335;
}
);
unicode = 116;
},
{
color = 4;
glyphname = u;
kernLeft = u;
kernRight = u;
layers = (
{
anchors = (
{
name = bottom;
pos = (260,0);
},
{
name = ogonek;
pos = (478,0);
},
{
name = top;
pos = (260,443);
},
{
name = topright;
pos = (384,443);
}
);
layerId = "E1BF09ED-4302-4AD3-9939-8FDA35DE0FE8";
shapes = (
{
closed = 1;
nodes = (
(301,-12,o),
(352,13,o),
(387,60,c),
(389,60,l),
(389,13,o),
(406,-12,o),
(439,-12,cs),
(458,-12,o),
(483,0,o),
(500,17,cs),
(503,21,o),
(504,23,o),
(503,28,cs),
(502,30,ls),
(501,34,o),
(496,34,o),
(491,31,cs),
(477,21,o),
(458,14,o),
(445,14,cs),
(429,14,o),
(419,27,o),
(419,49,cs),
(419,396,ls),
(419,428,o),
(407,443,o),
(384,443,cs),
(375,443,o),
(363,441,o),
(325,435,c),
(325,421,o),
(329,416,o),
(339,415,cs),
(399,409,l),
(387,424,l),
(387,76,l),
(389,84,l),
(356,34,o),
(309,8,o),
(250,8,cs),
(183,8,o),
(146,48,o),
(146,135,cs),
(146,396,ls),
(146,428,o),
(134,443,o),
(111,443,cs),
(102,443,o),
(90,441,o),
(52,435,c),
(52,421,o),
(56,416,o),
(66,415,cs),
(126,409,l),
(114,424,l),
(114,146,ls),
(114,35,o),
(159,-12,o),
(238,-12,cs)
);
}
);
width = 538;
},
{
anchors = (
{
name = bottom;
pos = (311,0);
},
{
name = ogonek;
pos = (557,0);
},
{
name = top;
pos = (311,443);
},
{
name = topright;
pos = (463,451);
}
);
layerId = "7B53E429-1BF0-49C5-9F57-63EEBF39C6CC";
shapes = (
{
closed = 1;
nodes = (
(239,-12,o),
(308,20,o),
(375,79,c),
(384,79,l),
(384,23,o),
(425,-12,o),
(488,-12,cs),
(531,-12,o),
(579,4,o),
(615,29,cs),
(627,37,o),
(629,46,o),
(626,60,cs),
(624,70,ls),
(620,85,o),
(610,89,o),
(595,87,cs),
(592,86,o),
(588,86,o),
(585,86,cs),
(563,86,o),
(555,95,o),
(555,121,cs),
(555,379,ls),
(555,429,o),
(527,451,o),
(463,451,cs),
(432,451,o),
(387,446,o),
(311,434,c),
(311,395,o),
(317,370,o),
(327,367,cs),
(395,348,l),
(373,363,l),
(373,128,l),
(392,163,l),
(379,149,o),
(344,109,o),
(299,109,cs),
(268,109,o),
(252,129,o),
(252,168,cs),
(252,379,ls),
(252,429,o),
(224,451,o),
(160,451,cs),
(129,451,o),
(84,446,o),
(8,434,c),
(8,395,o),
(14,370,o),
(24,367,cs),
(92,348,l),
(70,363,l),
(70,139,ls),
(70,38,o),
(107,-12,o),
(181,-12,cs)
);
}
);
width = 647;
},
{
anchors = (
{
name = bottom;
pos = (276,0);
},
{
name = ogonek;
pos = (503,0);
},
{
name = top;
pos = (276,443);
},
{
name = topright;
pos = (409,445);
}
);
layerId = "649F6AC0-C354-445A-B217-A871C51F37B2";
shapes = (
{
closed = 1;
nodes = (
(281,-12,o),
(338,15,o),
(383,67,c),
(388,67,l),
(388,16,o),
(413,-12,o),
(455,-12,cs),
(481,-12,o),
(513,0,o),
(536,20,cs),
(543,26,o),
(543,32,o),
(541,41,cs),
(541,43,ls),
(539,51,o),
(532,51,o),
(522,46,cs),
(511,40,o),
(500,37,o),
(491,37,cs),
(473,37,o),
(463,49,o),
(463,72,cs),
(463,391,ls),
(463,428,o),
(446,445,o),
(409,445,cs),
(394,445,o),
(371,442,o),
(321,435,c),
(321,412,o),
(325,401,o),
(335,400,cs),
(398,389,l),
(383,404,l),
(383,92,l),
(390,109,l),
(364,71,o),
(320,41,o),
(266,41,cs),
(210,41,o),
(181,74,o),
(181,146,cs),
(181,391,ls),
(181,428,o),
(163,445,o),
(127,445,cs),
(111,445,o),
(88,442,o),
(38,435,c),
(38,412,o),
(43,401,o),
(53,400,cs),
(115,389,l),
(100,404,l),
(100,144,ls),
(100,36,o),
(143,-12,o),
(219,-12,cs)
);
}
);
width = 573;
}
);
unicode = 117;
},
{
color = 4;
glyphname = v;
kernLeft = v;
kernRight = v;
layers = (
{
layerId = "E1BF09ED-4302-4AD3-9939-8FDA35DE0FE8";
shapes = (
{
closed = 1;
nodes = (
(252,-8,o),
(258,-6,o),
(261,2,cs),
(423,423,l),
(408,409,l),
(465,423,ls),
(475,425,o),
(481,431,o),
(481,443,c),
(342,443,l),
(328,443,o),
(325,439,o),
(325,425,c),
(399,408,l),
(395,415,l),
(245,21,l),
(256,21,l),
(95,422,l),
(86,409,l),
(143,423,ls),
(154,426,o),
(159,431,o),
(159,443,c),
(20,443,l),
(6,443,o),
(3,439,o),
(3,425,c),
(77,409,l),
(64,417,l),
(233,-5,l),
(236,-6,o),
(241,-8,o),
(246,-8,cs)
);
}
);
width = 484;
},
{
layerId = "7B53E429-1BF0-49C5-9F57-63EEBF39C6CC";
shapes = (
{
closed = 1;
nodes = (
(303,-12,o),
(329,4,o),
(342,37,cs),
(473,371,l),
(447,350,l),
(504,374,ls),
(515,379,o),
(520,399,o),
(520,443,c),
(343,443,l),
(328,427,o),
(324,411,o),
(324,367,c),
(386,348,l),
(377,372,l),
(282,131,l),
(329,131,l),
(234,372,l),
(214,347,l),
(278,369,ls),
(288,373,o),
(294,399,o),
(294,443,c),
(23,443,l),
(8,417,o),
(3,398,o),
(3,367,c),
(79,344,l),
(51,365,l),
(197,0,l),
(214,-7,o),
(242,-12,o),
(263,-12,cs)
);
}
);
width = 523;
},
{
layerId = "649F6AC0-C354-445A-B217-A871C51F37B2";
shapes = (
{
closed = 1;
nodes = (
(268,-9,o),
(281,-3,o),
(287,13,cs),
(439,407,l),
(421,389,l),
(478,407,ls),
(488,410,o),
(494,420,o),
(494,443,c),
(342,443,l),
(328,438,o),
(325,430,o),
(325,406,c),
(395,388,l),
(390,401,l),
(257,57,l),
(280,57,l),
(140,406,l),
(127,389,l),
(187,406,ls),
(198,409,o),
(203,420,o),
(203,443,c),
(21,443,l),
(7,434,o),
(3,426,o),
(3,406,c),
(78,388,l),
(60,401,l),
(221,-4,l),
(228,-6,o),
(241,-9,o),
(251,-9,cs)
);
}
);
width = 496.64864;
}
);
metricLeft = "=o*.08";
metricRight = "=o*.08";
unicode = 118;
},
{
color = 4;
glyphname = w;
kernLeft = v;
kernRight = v;
layers = (
{
anchors = (
{
name = bottom;
pos = (352,0);
},
{
name = top;
pos = (352,443);
}
);
background = {
shapes = (
{
closed = 1;
nodes = (
(212,-8,o),
(218,-6,o),
(221,2,cs),
(350,338,l),
(335,338,l),
(473,-5,l),
(476,-6,o),
(481,-8,o),
(486,-8,cs),
(492,-8,o),
(495,-17,o),
(501,2,cs),
(633,423,l),
(618,409,l),
(675,423,ls),
(685,425,o),
(691,431,o),
(691,443,c),
(552,443,ls),
(538,443,o),
(535,439,o),
(535,425,c),
(609,408,l),
(605,415,l),
(485,21,l),
(496,21,l),
(351,381,l),
(342,381,l),
(205,21,l),
(216,21,l),
(85,422,l),
(76,409,l),
(133,423,ls),
(144,426,o),
(149,431,o),
(149,443,c),
(10,443,ls),
(-4,443,o),
(-7,439,o),
(-7,425,c),
(67,409,l),
(54,417,l),
(193,-5,l),
(196,-6,o),
(201,-8,o),
(206,-8,cs)
);
}
);
};
layerId = "E1BF09ED-4302-4AD3-9939-8FDA35DE0FE8";
shapes = (
{
closed = 1;
nodes = (
(222,-8,o),
(228,-6,o),
(231,2,cs),
(350,338,l),
(335,338,l),
(463,-5,l),
(466,-6,o),
(471,-8,o),
(476,-8,cs),
(482,-8,o),
(488,-6,o),
(491,2,c),
(623,423,l),
(608,409,l),
(665,423,ls),
(675,425,o),
(681,431,o),
(681,443,c),
(542,443,ls),
(528,443,o),
(525,439,o),
(525,425,c),
(599,408,l),
(595,415,l),
(475,21,l),
(486,21,l),
(351,381,l),
(342,381,l),
(215,21,l),
(226,21,l),
(95,422,l),
(86,409,l),
(143,423,ls),
(154,426,o),
(159,431,o),
(159,443,c),
(20,443,ls),
(6,443,o),
(3,439,o),
(3,425,c),
(77,409,l),
(64,417,l),
(203,-5,l),
(206,-6,o),
(211,-8,o),
(216,-8,cs)
);
}
);
width = 684;
},
{
anchors = (
{
name = bottom;
pos = (418,0);
},
{
name = top;
pos = (418,443);
}
);
background = {
shapes = (
{
closed = 1;
nodes = (
(266,-12,o),
(289,-3,o),
(304,15,c),
(411,216,l),
(358,216,l),
(476,-5,l),
(498,-10,o),
(517,-12,o),
(534,-12,cs),
(567,-12,o),
(590,-3,o),
(605,15,c),
(713,374,l),
(688,350,l),
(745,374,ls),
(756,379,o),
(761,399,o),
(761,443,c),
(580,443,l),
(565,427,o),
(561,411,o),
(561,367,c),
(623,348,l),
(613,372,l),
(543,111,l),
(600,111,l),
(472,381,l),
(375,381,l),
(242,111,l),
(299,111,l),
(234,372,l),
(214,347,l),
(278,369,ls),
(288,373,o),
(294,399,o),
(294,443,c),
(23,443,l),
(8,417,o),
(3,398,o),
(3,367,c),
(79,344,l),
(57,365,l),
(175,-5,l),
(197,-10,o),
(216,-12,o),
(233,-12,cs)
);
}
);
};
guides = (
{
angle = -67.8337;
pos = (488,372);
}
);
layerId = "7B53E429-1BF0-49C5-9F57-63EEBF39C6CC";
shapes = (
{
closed = 1;
nodes = (
(283,-12,o),
(310,3,o),
(322,37,cs),
(394,243,l),
(350,243,l),
(449,0,l),
(466,-7,o),
(494,-12,o),
(515,-12,cs),
(555,-12,o),
(583,4,o),
(594,37,cs),
(705,371,l),
(679,350,l),
(736,374,ls),
(747,379,o),
(752,399,o),
(752,443,c),
(575,443,l),
(560,427,o),
(556,411,o),
(556,367,c),
(618,348,l),
(610,372,l),
(533,131,l),
(572,131,l),
(457,412,l),
(363,412,l),
(265,131,l),
(312,131,l),
(231,372,l),
(214,347,l),
(278,369,ls),
(288,373,o),
(294,399,o),
(294,443,c),
(23,443,l),
(8,417,o),
(3,398,o),
(3,367,c),
(79,344,l),
(51,365,l),
(177,0,l),
(194,-7,o),
(222,-12,o),
(243,-12,cs)
);
}
);
width = 755;
},
{
anchors = (
{
name = bottom;
pos = (374,0);
},
{
name = top;
pos = (374,443);
}
);
layerId = "649F6AC0-C354-445A-B217-A871C51F37B2";
shapes = (
{
closed = 1;
nodes = (
(242,-9,o),
(254,-3,o),
(260,13,cs),
(364,307,l),
(339,307,l),
(459,-4,l),
(466,-6,o),
(479,-9,o),
(489,-9,cs),
(506,-9,o),
(519,-3,o),
(525,13,c),
(649,407,l),
(631,389,l),
(688,407,ls),
(698,410,o),
(704,420,o),
(704,443,c),
(553,443,ls),
(539,438,o),
(535,430,o),
(535,406,c),
(606,388,l),
(599,401,l),
(494,57,l),
(514,57,l),
(386,391,l),
(349,391,l),
(231,57,l),
(254,57,l),
(139,406,l),
(127,389,l),
(187,406,ls),
(198,409,o),
(203,420,o),
(203,443,c),
(21,443,ls),
(7,434,o),
(3,426,o),
(3,406,c),
(78,388,l),
(60,401,l),
(194,-4,l),
(202,-6,o),
(214,-9,o),
(225,-9,cs)
);
}
);
width = 707.02703;
}
);
metricLeft = v;
metricRight = v;
unicode = 119;
},
{
color = 4;
glyphname = x;
kernLeft = x;
kernRight = x;
layers = (
{
background = {
shapes = (
{
closed = 1;
nodes = (
(429,0,l),
(443,0,o),
(446,4,o),
(446,18,c),
(372,34,l),
(388,22,l),
(119,425,l),
(112,409,l),
(169,423,ls),
(180,426,o),
(185,431,o),
(185,443,c),
(46,443,l),
(32,443,o),
(29,439,o),
(29,425,c),
(103,409,l),
(84,421,l),
(354,17,l),
(363,34,l),
(306,20,ls),
(295,17,o),
(290,12,o),
(290,0,c)
);
},
{
closed = 1;
nodes = (
(154,0,l),
(168,0,o),
(171,4,o),
(171,18,c),
(101,33,l),
(106,23,l),
(231,211,l),
(217,232,l),
(74,19,l),
(96,36,l),
(31,20,ls),
(21,18,o),
(15,12,o),
(15,0,c)
);
},
{
closed = 1;
nodes = (
(381,424,l),
(360,409,l),
(417,423,ls),
(427,425,o),
(433,431,o),
(433,443,c),
(294,443,ls),
(280,443,o),
(277,439,o),
(277,425,c),
(351,409,l),
(350,421,l),
(232,243,l),
(246,222,l)
);
}
);
};
layerId = "E1BF09ED-4302-4AD3-9939-8FDA35DE0FE8";
shapes = (
{
closed = 1;
nodes = (
(429,0,l),
(443,0,o),
(446,4,o),
(446,18,c),
(372,34,l),
(388,22,l),
(118,425,l),
(112,409,l),
(169,423,ls),
(180,426,o),
(185,431,o),
(185,443,c),
(46,443,l),
(32,443,o),
(29,439,o),
(29,425,c),
(103,409,l),
(84,421,l),
(355,17,l),
(363,34,l),
(306,20,ls),
(295,17,o),
(290,12,o),
(290,0,c)
);
},
{
closed = 1;
nodes = (
(154,0,l),
(168,0,o),
(171,4,o),
(171,18,c),
(101,36,l),
(106,23,l),
(231,211,l),
(217,232,l),
(74,19,l),
(96,36,l),
(31,20,ls),
(21,18,o),
(15,12,o),
(15,0,c)
);
},
{
closed = 1;
nodes = (
(381,424,l),
(360,409,l),
(417,423,ls),
(427,425,o),
(433,431,o),
(433,443,c),
(294,443,ls),
(280,443,o),
(277,439,o),
(277,425,c),
(351,408,l),
(350,421,l),
(232,243,l),
(246,222,l)
);
}
);
width = 460;
},
{
layerId = "7B53E429-1BF0-49C5-9F57-63EEBF39C6CC";
shapes = (
{
closed = 1;
nodes = (
(551,0,l),
(566,26,o),
(571,45,o),
(571,76,c),
(467,107,l),
(522,77,l),
(260,391,l),
(218,346,l),
(305,374,ls),
(316,377,o),
(321,400,o),
(321,443,c),
(29,443,l),
(14,417,o),
(9,398,o),
(9,367,c),
(113,336,l),
(58,366,l),
(318,52,l),
(360,97,l),
(273,69,ls),
(262,66,o),
(257,43,o),
(257,0,c)
);
},
{
closed = 1;
nodes = (
(198,0,l),
(213,16,o),
(217,32,o),
(217,76,c),
(142,96,l),
(133,27,l),
(274,176,l),
(213,243,l),
(40,59,l),
(123,110,l),
(26,69,ls),
(14,64,o),
(10,41,o),
(10,0,c)
);
},
{
closed = 1;
nodes = (
(523,384,l),
(440,333,l),
(537,374,ls),
(549,379,o),
(553,402,o),
(553,443,c),
(365,443,l),
(350,427,o),
(346,411,o),
(346,367,c),
(421,347,l),
(430,416,l),
(289,267,l),
(350,200,l)
);
}
);
width = 580;
},
{
layerId = "649F6AC0-C354-445A-B217-A871C51F37B2";
shapes = (
{
closed = 1;
nodes = (
(468,0,l),
(483,9,o),
(486,17,o),
(486,37,c),
(403,58,l),
(432,40,l),
(164,414,l),
(147,388,l),
(213,407,ls),
(224,410,o),
(229,421,o),
(229,443,c),
(41,443,l),
(27,434,o),
(22,426,o),
(22,406,c),
(106,385,l),
(75,404,l),
(343,28,l),
(362,55,l),
(295,36,ls),
(284,33,o),
(279,22,o),
(279,0,c)
);
},
{
closed = 1;
nodes = (
(168,0,l),
(182,5,o),
(186,13,o),
(186,37,c),
(114,56,l),
(115,24,l),
(245,200,l),
(216,235,l),
(63,32,l),
(105,60,l),
(30,36,ls),
(19,33,o),
(14,22,o),
(14,0,c)
);
},
{
closed = 1;
nodes = (
(427,411,l),
(386,384,l),
(456,407,ls),
(466,410,o),
(472,421,o),
(472,443,c),
(317,443,ls),
(303,438,o),
(300,430,o),
(300,406,c),
(374,388,l),
(376,420,l),
(251,251,l),
(280,214,l)
);
}
);
width = 498.91892;
}
);
unicode = 120;
},
{
color = 4;
glyphname = y;
kernLeft = y;
kernRight = y;
layers = (
{
anchors = (
{
name = bottom;
pos = (375,0);
},
{
name = top;
pos = (255,443);
}
);
background = {
shapes = (
{
closed = 1;
nodes = (
(136,-270,o),
(220,-120,o),
(267,2,cs),
(429,423,l),
(414,409,l),
(471,423,ls),
(481,425,o),
(487,431,o),
(487,443,c),
(348,443,l),
(334,443,o),
(331,439,o),
(331,425,c),
(405,408,l),
(401,415,l),
(251,21,l),
(262,21,l),
(101,422,l),
(92,409,l),
(149,423,ls),
(160,426,o),
(165,431,o),
(165,443,c),
(26,443,l),
(12,443,o),
(9,439,o),
(9,425,c),
(83,409,l),
(70,417,l),
(244,-15,l),
(251,21,l),
(172,-176,o),
(126,-235,o),
(60,-235,cs),
(7,-235,l),
(5,-240,o),
(3,-245,o),
(3,-249,cs),
(3,-260,o),
(15,-270,o),
(57,-270,cs)
);
}
);
};
layerId = "E1BF09ED-4302-4AD3-9939-8FDA35DE0FE8";
shapes = (
{
closed = 1;
nodes = (
(120,-270,o),
(203,-165,o),
(267,2,cs),
(429,423,l),
(414,409,l),
(471,423,ls),
(481,425,o),
(487,431,o),
(487,443,c),
(348,443,l),
(334,443,o),
(331,439,o),
(331,425,c),
(405,408,l),
(401,415,l),
(251,21,l),
(262,21,l),
(101,422,l),
(92,409,l),
(149,423,ls),
(160,426,o),
(165,431,o),
(165,443,c),
(26,443,l),
(12,443,o),
(9,439,o),
(9,425,c),
(83,409,l),
(70,417,l),
(244,-15,l),
(251,21,l),
(172,-176,o),
(141,-234,o),
(30,-234,cs),
(7,-234,l),
(5,-239,o),
(3,-245,o),
(3,-249,cs),
(3,-260,o),
(17,-270,o),
(49,-270,cs)
);
}
);
width = 490;
},
{
anchors = (
{
name = bottom;
pos = (399,0);
},
{
name = top;
pos = (289,443);
}
);
background = {
shapes = (
{
closed = 1;
nodes = (
(169,-270,o),
(260,-178,o),
(316,-31,cs),
(472,374,l),
(447,350,l),
(504,374,ls),
(516,379,o),
(520,402,o),
(520,443,c),
(339,443,l),
(324,427,o),
(320,411,o),
(320,367,c),
(382,348,l),
(375,372,l),
(275,111,l),
(326,111,l),
(231,372,l),
(214,347,l),
(278,369,ls),
(289,373,o),
(294,402,o),
(294,443,c),
(23,443,l),
(8,417,o),
(3,397,o),
(3,367,c),
(79,344,l),
(57,365,l),
(224,-53,l),
(228,-3,l),
(198,-111,o),
(173,-143,o),
(72,-143,cs),
(22,-143,l),
(11,-160,o),
(3,-189,o),
(3,-214,cs),
(3,-246,o),
(30,-270,o),
(68,-270,cs)
);
}
);
};
guides = (
{
angle = 248.4861;
pos = (330,252);
}
);
layerId = "7B53E429-1BF0-49C5-9F57-63EEBF39C6CC";
shapes = (
{
closed = 1;
nodes = (
(182,-270,o),
(261,-176,o),
(316,-31,cs),
(473,371,l),
(447,350,l),
(504,374,ls),
(515,379,o),
(520,399,o),
(520,443,c),
(343,443,l),
(328,427,o),
(324,411,o),
(324,367,c),
(386,348,l),
(377,372,l),
(282,131,l),
(329,132,l),
(234,372,l),
(214,347,l),
(278,369,ls),
(288,373,o),
(294,399,o),
(294,443,c),
(23,443,l),
(8,417,o),
(3,398,o),
(3,367,c),
(79,344,l),
(51,365,l),
(226,-73,l),
(228,-3,l),
(198,-103,o),
(172,-133,o),
(37,-133,cs),
(20,-133,l),
(9,-149,o),
(3,-175,o),
(3,-191,cs),
(3,-240,o),
(40,-270,o),
(90,-270,cs)
);
}
);
width = 523;
},
{
anchors = (
{
name = bottom;
pos = (383,0);
},
{
name = top;
pos = (266,443);
}
);
layerId = "649F6AC0-C354-445A-B217-A871C51F37B2";
shapes = (
{
closed = 1;
nodes = (
(140,-270,o),
(222,-168,o),
(283,-9,cs),
(443,407,l),
(425,389,l),
(482,407,ls),
(492,410,o),
(498,420,o),
(498,443,c),
(347,443,l),
(332,438,o),
(329,430,o),
(329,406,c),
(399,388,l),
(393,401,l),
(261,57,l),
(284,57,l),
(145,406,l),
(131,389,l),
(191,406,ls),
(201,409,o),
(207,420,o),
(207,443,c),
(25,443,l),
(11,434,o),
(7,426,o),
(7,406,c),
(82,388,l),
(64,401,l),
(239,-34,l),
(243,13,l),
(181,-152,o),
(151,-201,o),
(32,-201,cs),
(11,-201,l),
(6,-210,o),
(3,-222,o),
(3,-230,cs),
(3,-253,o),
(25,-270,o),
(62,-270,cs)
);
}
);
width = 500.7027;
}
);
metricLeft = v;
metricRight = v;
unicode = 121;
},
{
color = 4;
glyphname = z;
kernLeft = z;
kernRight = z;
layers = (
{
anchors = (
{
name = bottom;
pos = (212,0);
},
{
name = center;
pos = (212,222);
},
{
name = top;
pos = (212,443);
}
);
layerId = "E1BF09ED-4302-4AD3-9939-8FDA35DE0FE8";
shapes = (
{
closed = 1;
nodes = (
(379,0,ls),
(384,0,o),
(387,2,o),
(387,8,cs),
(380,135,l),
(375,140,o),
(368,143,o),
(363,143,c),
(351,12,l),
(370,20,l),
(68,30,l),
(82,23,l),
(369,404,ls),
(373,410,o),
(375,416,o),
(375,422,cs),
(375,433,o),
(367,443,o),
(350,443,cs),
(67,443,ls),
(62,443,o),
(60,441,o),
(60,435,cs),
(70,310,l),
(76,310,o),
(87,311,o),
(88,322,cs),
(99,430,l),
(90,423,l),
(344,414,l),
(340,420,l),
(52,36,ls),
(48,30,o),
(46,24,o),
(46,19,cs),
(46,8,o),
(53,0,o),
(64,0,cs)
);
}
);
width = 438;
},
{
anchors = (
{
name = bottom;
pos = (219,0);
},
{
name = center;
pos = (219,222);
},
{
name = top;
pos = (219,443);
}
);
layerId = "7B53E429-1BF0-49C5-9F57-63EEBF39C6CC";
shapes = (
{
closed = 1;
nodes = (
(414,0,ls),
(430,0,o),
(438,9,o),
(437,25,cs),
(426,154,l),
(402,169,o),
(373,173,o),
(338,173,c),
(325,25,l),
(364,85,l),
(110,99,l),
(199,43,l),
(400,357,ls),
(414,378,o),
(423,394,o),
(423,408,cs),
(423,430,o),
(404,443,o),
(362,443,cs),
(38,443,ls),
(22,443,o),
(14,434,o),
(15,418,cs),
(26,280,l),
(57,280,o),
(101,281,o),
(104,296,cs),
(122,410,l),
(88,358,l),
(316,344,l),
(222,397,l),
(20,86,ls),
(8,68,o),
(-1,50,o),
(-1,35,cs),
(-1,15,o),
(13,0,o),
(45,0,cs)
);
}
);
width = 438;
},
{
anchors = (
{
name = bottom;
pos = (214,0);
},
{
name = center;
pos = (214,222);
},
{
name = top;
pos = (214,443);
}
);
layerId = "649F6AC0-C354-445A-B217-A871C51F37B2";
shapes = (
{
closed = 1;
nodes = (
(387,0,ls),
(397,0,o),
(403,6,o),
(402,16,cs),
(395,142,l),
(384,150,o),
(369,153,o),
(355,153,c),
(342,16,l),
(368,41,l),
(81,53,l),
(120,30,l),
(379,389,ls),
(386,399,o),
(390,408,o),
(390,418,cs),
(390,432,o),
(379,443,o),
(354,443,cs),
(61,443,ls),
(51,443,o),
(44,436,o),
(45,426,cs),
(56,300,l),
(70,300,o),
(91,301,o),
(93,313,cs),
(107,423,l),
(89,402,l),
(335,391,l),
(302,412,l),
(41,52,l),
(35,42,o),
(31,33,o),
(31,24,cs),
(31,10,o),
(40,0,o),
(58,0,cs)
);
}
);
width = 438;
}
);
unicode = 122;
},
{
color = 8;
glyphname = f.long;
kernLeft = f;
kernRight = f;
layers = (
{
layerId = "E1BF09ED-4302-4AD3-9939-8FDA35DE0FE8";
shapes = (
{
closed = 1;
nodes = (
(219,0,l),
(233,0,o),
(236,4,o),
(236,18,c),
(163,34,l),
(174,22,l),
(174,468,ls),
(174,655,o),
(239,702,o),
(425,702,cs),
(443,702,l),
(446,706,o),
(447,711,o),
(447,716,cs),
(447,727,o),
(437,734,o),
(422,734,cs),
(262,734,o),
(142,649,o),
(142,447,cs),
(142,22,l),
(153,34,l),
(96,20,ls),
(85,17,o),
(80,12,o),
(80,0,c)
);
},
{
closed = 1;
nodes = (
(330,418,o),
(336,425,o),
(336,436,cs),
(336,440,o),
(336,444,o),
(333,450,c),
(69,443,l),
(62,437,o),
(60,432,o),
(60,421,c),
(318,418,ls)
);
}
);
width = 317;
},
{
background = {
shapes = (
{
closed = 1;
nodes = (
(336,0,l),
(351,26,o),
(356,46,o),
(356,76,c),
(258,103,l),
(274,76,l),
(274,442,ls),
(274,555,o),
(285,567,o),
(390,567,cs),
(436,567,l),
(449,587,o),
(456,610,o),
(456,636,cs),
(456,693,o),
(426,723,o),
(368,723,cs),
(214,723,o),
(92,588,o),
(92,418,cs),
(92,80,l),
(103,97,l),
(46,69,ls),
(35,64,o),
(30,42,o),
(30,0,c)
);
}
);
};
layerId = "7B53E429-1BF0-49C5-9F57-63EEBF39C6CC";
shapes = (
{
closed = 1;
nodes = (
(336,0,l),
(351,26,o),
(356,46,o),
(356,76,c),
(258,103,l),
(275,76,l),
(275,457,ls),
(275,560,o),
(301,596,o),
(395,596,cs),
(473,596,l),
(484,613,o),
(490,637,o),
(490,656,cs),
(490,704,o),
(444,734,o),
(372,734,cs),
(209,734,o),
(92,590,o),
(92,376,cs),
(92,80,l),
(103,97,l),
(46,69,ls),
(35,64,o),
(30,43,o),
(30,0,c)
);
},
{
closed = 1;
nodes = (
(381,359,o),
(393,392,o),
(393,432,cs),
(393,442,o),
(391,453,o),
(387,462,c),
(52,442,l),
(39,433,o),
(31,395,o),
(31,362,c),
(359,350,l)
);
}
);
width = 386;
},
{
layerId = "649F6AC0-C354-445A-B217-A871C51F37B2";
shapes = (
{
closed = 1;
nodes = (
(257,0,l),
(271,9,o),
(275,17,o),
(275,37,c),
(194,57,l),
(207,39,l),
(207,465,ls),
(207,624,o),
(259,667,o),
(415,667,cs),
(453,667,l),
(458,676,o),
(461,687,o),
(461,696,cs),
(461,719,o),
(439,734,o),
(406,734,cs),
(245,734,o),
(126,629,o),
(126,424,cs),
(126,41,l),
(137,55,l),
(80,36,ls),
(69,32,o),
(64,22,o),
(64,0,c)
);
},
{
closed = 1;
nodes = (
(346,398,o),
(355,414,o),
(355,435,cs),
(355,441,o),
(354,447,o),
(350,454,c),
(64,443,l),
(54,436,o),
(50,420,o),
(50,401,c),
(331,396,ls)
);
}
);
width = 339.37838;
}
);
metricLeft = n;
},
